<?xml version="1.0" encoding="UTF-8"?>
<svg id="_77-Nicotine-Pouches-Logo" xmlns="http://www.w3.org/2000/svg" version="1.1" viewBox="0 0 206 57.5">
  <!-- Generator: Adobe Illustrator 29.8.2, SVG Export Plug-In . SVG Version: 2.1.1 Build 3)  -->
  <path d="M98.9,6.2v28.8c0,.6-2.2,6.2-2.7,7-7.7,12.5-33.6,12.6-41,0-.5-.8-2.7-5.9-2.7-6.3V6.2h12.3l1.1,1.1v26.2c0,.6,2.6,4.2,3.4,4.9,4.4,3.5,16.1,1.3,16.1-4.9V7.3l1.1-1.1h12.4Z"/>
  <path d="M45,36.9v10c-.8,1.9-7.6,3.7-9.5,4C18.5,54,1.7,46.9,2.3,27.5S8.5,10,17.9,7.2s20.3-1.5,25.1,1.4,1.6,8.6,1.7,11,0,1-.8,1.5c-6-5.5-20.2-6.9-25.4,0s-1.8,17.8,6.9,19.2c8.7,1.4,12.7-1.1,19.6-3.6v.2Z"/>
  <path d="M139.3,27.1c10.7-8.6,5.9-19.4-7.1-20.9-7.5-.9-16.6.7-24.3,0v44.8h25.8c2,0,2.6,2.1,10.1-3.3,7.5-5.4,5.1-19-4.5-20.6ZM121.4,14.4c7.8-1.3,11.5,1.8,11.4,4.9,0,3.2-4,6.4-11.4,5.6v-10.5ZM134.9,38c-.4,6.7-9.3,5.8-13.5,5.7h0v-11.3h0c.7-.1,1.5-.1,2.4-.1,4.6-.2,11,0,11.2,5.1,0,0,0,0,0,0,0,.2,0,.4,0,.6Z"/>
  <g>
    <path d="M169.9,6.6l-19.4,44.5h13.1l4.6-8.9h18.9l3.5,8.9h13l-19.1-44.1c-1.2-1.1-13.3-1.2-14.6-.4ZM170.8,33.9l6-15s0,0,.1,0c1.3,0,5.9,13.9,6.6,15h-12.7Z"/>
    <polygon points="203.7 51.1 203.6 51.1 203.6 51.2 203.7 51.1"/>
  </g>
</svg>