<?xml version="1.0" encoding="UTF-8"?>
<svg id="_77-Nicotine-Pouches-Logo" xmlns="http://www.w3.org/2000/svg" version="1.1" viewBox="0 0 206 57.5">
  <!-- Generator: Adobe Illustrator 29.8.2, SVG Export Plug-In . SVG Version: 2.1.1 Build 3)  -->
  <path d="M181.2,3.5c12.4,1.1,20.9,10.3,15.7,23-1.5,3.7-7.7,9-11.7,9h-17v18.6h-9.3V4.5l1-1h21.3ZM168.2,27.4h14.3c5.4,0,8.4-10.6,2.3-14.3s-4.3-1.7-5-1.7h-11.7v16Z"/>
  <path d="M108.6,24.6c-3,3.6-12.5,3.4-17.2,7.2-7.9,6.4-4.2,21.1-15,22.3-19.7,2.3-35.4-19.6-24.2-37.5S78.4,1.1,94.8,7.8s19.6,9.9,13.8,16.8ZM76,8.3c-8.6,1.2-19,9.8-19.2,18.8s5.2,14.2,10.7,17.2c11.1,6.1,12.7-7.3,19.7-12.9,5.3-4.3,20.5-5.4,14.3-15s-17.6-9.2-25.5-8.1Z"/>
  <path d="M125.3,3.6c16.5-2.8,32.5,14.6,27.7,31-4.2,14.5-15.9,20.9-30.5,19.4-7.2-.7-28.2-7.6-29.7-15.6-1.6-8.3,8.5-8,13.8-10.2,13.7-5.5,7.4-22.7,18.7-24.6ZM128.7,11.6c-4.9.8-9.3,11.6-14.2,15.2s-14.3,4.2-15,9.7c-1.1,8.8,16.2,13.8,23,13.6,10.8-.3,24.7-10.2,22.9-22.2-1-6.3-9.7-17.5-16.7-16.4Z"/>
  <path d="M22.1,46.1h27.4v8H12.7V3.5c3,.4,7-1,9.3,1v41.6Z"/>
</svg>