<?xml version="1.0" encoding="UTF-8"?>
<svg id="_77-Nicotine-Pouches-Logo" xmlns="http://www.w3.org/2000/svg" version="1.1" viewBox="0 0 206 57.5">
  <!-- Generator: Adobe Illustrator 29.8.2, SVG Export Plug-In . SVG Version: 2.1.1 Build 3)  -->
  <defs>
    <style>
      .st0 {
        fill: #fff;
      }
    </style>
  </defs>
  <path d="M52.5,6.4c.7-.4,1.3-.2,1.3.7.4-.5,2.9.1,3.1.3.3.3.2,1.8,0,2.3,1,0,.3-1.3,1.8-1.1s.3,1.4.8,1.5c.9.1,2-.1,3,0s3,1.4,4.3,1.6,1.8,0,2.7,0c1.6.2,3.2,1.8,3.8,3.2s.3,1.6,0,3l3.1-5.1,1.5.2c.4.2-.4.5-.3.8,2-.5,4-1.1,6.1-.7.4,1.5,2.1,1.7,3.4,2l.9,16.2.6.2,5.1-11.9-.3-.4h.3c0-.3-.2-.5-.1-.8.2-1.8,2.1-4.7,2.4-6.7s0-2.3,0-3.3c1.6,0,3-.9,4.7-.6s.8,1.2,1.6,1.4,2.7,0,3.8.2c.6,1.3,2.1.3,3.1,1l.4-.9c.1,0,2.3,1,1.9,1.4-.3,0-1-.5-1.2-.1,2.7.9,5.1,3.1,6.5,5.6s.8,1.9,1.2,2.9.4.4.4.6c.4,1.4-.9,3.6-1,5.1h-1c-.2-.3,1-1.7,1-1.8,0-.3-.7-.4.2-.9,0-.7-.5-.8-1.1-.8-.8,2-2.7,2.8-4.5,3.7s-1.6.4-1.8,1c1.8.9,3.7,0,5.5-.6l-.4,1-2.8,1.9c2.2.9,3.2,3.6,4.2,5.6.8-.3-.8-2.4-.8-2.9l5.3-19.6h.6c0,0-1.3,4.8-1.3,4.8l.9.3-1.9,5.5c.6.8-.1,1.5-.4,2.3s-.5,2.2-.4,2.3h.4s5.9-23.3,5.9-23.3c0-.1.6-.2.9-.4.5-.5.2-1.3,1.3-1.2,2,.2.7,2.6,1,3,1,.4,1.5-.3,2.4-.6l.3.6-6.7,24.6c3.2-.4,6.4-.5,9.6-.4-.7-1.2-1.3-2.4-1.7-3.7s-.2-1.3-.4-1.9-1.3-2.5-1.2-2.9.3-.3.4-.6c.5-2.7-.3-3.7,1.4-6.5s5.5-6.3,8.3-9.1c.1,0,0,.3,0,.4s-.9.7-1.1,1c-2.3,2.5-4.7,5.3-6.2,8.4h.6c3-6.2,9.1-10.2,14.5-14.1-1,0-2.2.9-3.1.9s-.3-.1-.2-.4c.2-.8,2.6-1.3,3.4-1.4,3.9-.5,7.5,0,10.9,1.8s4,2.6,3.9,3.1c-1.3.5,1.1,3.4.7,3.8-.9,0-.9-.7-1.6-.7-.2,1.5,0,3.1-.1,4.7s-.1,2.2-.1,3.3-.6,2,.3,2.2c.2-.7.3-2.2,1.3-2.2-.5,4.8-4.2,8.7-6.7,12.6l.3.3c-2.4,2.3-5.4,4.1-8.4,5.4s-1.9.9-2.5,1c-2.2.3-4.6-.5-6.8-.4l3.3,1.1.8-.3-.2,1.1c0,.3-.9.4-1.2.4-8.2.8-16.3.5-24.4,2.7-3.2,3.1-7.5,4.3-11.7,5.3s-5.6,1.4-8.1,1.8-5.2.7-6,0-.2-1.3-1-1.3c-.2.5-.6.9-1.2,1s-.7-.2-.9-.1-.2,1.2-1.3,1,0-2.5-.2-3.3c-.2.2-.3,0-.4.4-.3,2.7-.3,5.3-.9,8l-.9-.4v6.9c.1,0-.7-.2-.7-.2,0-.6,0-1.3-.7-1.6v1.9c-.6.2-.4-.7-1.1-.6,0,.6-.4,1.3-1.1,1.1l-.9-8-.3-.2-.2.2-.2,1.6h-.4c-.4-.4.1-4.8,0-5.6l1.1,1s.2-.3.2-.4v-3.3c0-.3-.6-.9-.6-1.1s.3,0,.4-.3.2-1.3.2-1.3h-.9c0,.3,0,1.3-.6,1.3,0-.5,0-1.3.2-1.7s.4-.3.5-.6h-.9c0,.1.1-1.4.1-1.4.8-.2.6.7,1.3.6-.6-.9.2-2.1.1-3.2l-10,.4c-.5,0-.3.6-.4,1,.9,0,2.2-.5,3.1-.4s1.3.7,1.8.8,2.3-.2,2.5,0l-.3.9c-2.4.1-8.5,0-9.9,2.3s-1.4,3.5-2.7,5.2-1.6,1.1-1.4,2.1c-.3,0-1.2,0-1.4-.2s-.7-1.4-1-.3l-1-1,1.2-2.4c.1-.4-.6-.3-.8-.2-1.2.4-1.3,3.1-1.6,3.2,0-.3-.5-.6-.6-.9-.2-.5.8-2,.8-2.6s-1.1-1.4-.9-1.8l10.7-16.9h.5c0,.6-.2,1.5.7,1.4l.7-2-.8.3c0-1.3.5-2.5,1-3.7h-.3c-.4.9-1.2,1.8-1.8,2.6-2.2,2.7-5.2,5.4-8.5,6.7s-6.3,1.5-9.3,2.4l-1.6,7.4v2.4c-1.4.2-3,4.5-3.8,4.5s-2.9-2.1-3.6-2.4l1.1-3.4-.8-2.4,2.1-5.7c.1-.5-.3-.5-.2-1,.4-2.2,2.5-5.4,2.9-7.6s0-.6-.2-1c.6-.3.8-.2,1.4-.1l-.3,1.9h.4c.2-1.3.6-2.3.3-3.6h.9c.2-1.2.8-2.3-.4-3.2l-.3,1.6h-.4c.2-1.2,0-2.4-.6-3.6s-1-1.1-1.1-1.3c-.4-1.2.2-3.4.4-4.6,1.6-.4,4.9-.8,6.2-1.7s.1-1.1-.1-1.8l-.7.3v-2ZM152.3,6.1l-1.8.4-.5-.4.3.9c-.9.4-2.4,1.7-3.3,2s-1.6.1-2.7.9c-2.2,1.4-6.1,7.9-6.9,10.4s.6,4.8,2,6.3,1.5,1.2,3,1c5.1-.5,12.9-9.2,14.5-13.9.3-.8,1.2-4.5,1-5.2s-3.4-2.2-4.2-2.3-.8.3-1.3.3v-.4ZM139.6,11.2c-.3,0-.3.1-.5.3-.4.4-1,1.3-1.3,1.7s-.3.3,0,.6l1.6-2,.2-.6ZM112.9,18.4c-1.5-1.8-6.7-3.3-9-2.7s-3,3.5-3.3,6.1l4.2.3c.2.1-.6,1,0,.9l7-1.6c0,.3-.1.3-.3.5-.8.5-2.3,1-3.3,1.4,0,.3.5.1.6.1,2.5-.3,5.1-1.5,6-3.9l-1-.4c0,1-.8,2-1.9,1.9-.1-.1.5-1-.1-1l.7-1.2c.2-.2.2.3.3.5s.5.2.5.2c0-.4-.1-.7-.3-1ZM113.8,17.5c-.3-1.3-2.3-1.4-3.4-1.7,0,.2,0,.3,0,.4s2.4,1.1,2.7,1.2.4.2.7.1ZM132.8,16.5h-.4s-.6,3.6-.6,3.6h.4c0-.5.7-3.4.6-3.6ZM156.9,17.1h-.5s-2.5,4.1-2.5,4.1h1.4c.7-1.3,2.3-2.4,1.6-4.1ZM66.7,18.3c-2.7-.4-5.7-.7-8.4-.4s-1.7.4-2.2.8-2,5.5-1.8,5.7c1.2.3,2.7-.3,3.8-.7,3.1-1.2,6.2-3.1,8.5-5.5ZM74.1,20.3c.4-1.2-1.2-2.4-1.4-.9.7.1.7.8,1.4.9ZM158.9,21.6c.2-.7.6-1.2.8-1.9s.2-.2-.1-.4c-.4,0-.3,0-.4.2s-.9,1.7-.7,2l.4.2ZM153.7,21.6h-.5s-2.1,1.9-2.1,1.9h.7c0-.1,1.9-1.9,1.9-1.9ZM79.5,23.1h-.5c0,.1-5.1,8.9-5.1,8.9,2.6.5,6.7.7,6.2-3.1l-.6-5.8ZM74.9,25.1h-.4c0,0-1.3,2.8-1.3,2.8l-.9-.4v1.9c.5,0,.5,0,.7-.2.3-.4,1.6-2.8,1.8-3.2s.1-.5.1-.8ZM47.8,26.7c-.4,0-.7-.3-1,0,.8,1-.7,1.1-.2,2h.7c0,0,.4-2.1.4-2.1ZM69.3,28.2c-.8,0-1.1.5-1,1.3.4.4,1.1-1.2,1-1.3ZM135.1,31l-1-1.1c-2.6.1-5.4,0-8,.4s-1.8.2-2.2.8l5.2-.4v.4c-.1,0,6-.1,6-.1ZM139.1,31c.3-.3-1-1.4-1.4-1.1l1.4,1.1ZM97.4,30c-.2,0-.2.3-.3.4-.4.8-2.4,6.2-2.5,7s.8,1.1,1.6,1.2c3.2.3,10.2-1.7,13.4-2.8s2.3-.8,2.5-1.1c-.4-2.9-4.7-2.8-6.8-3.8l-7.9-.9ZM112.2,32.4v-.5c-1.3-1-3-1.3-4.6-1.8v.6s4.6,1.7,4.6,1.7ZM68,30.4h-.9c0,0-.7,1.6-.7,1.6.5.4,1.3-1.3,1.6-1.6ZM71.8,30.5h-.6s-.6,1.7-.6,1.7c1,.1,1-1,1.1-1.7ZM79.6,32.8h-5.2c0,.1,0,.6,0,.6.2.2,3.6.2,4.1.1s1.4-.4,1.1-.7ZM113.8,35.3c-.1-.3-.4-.7-.8-.7l-1.1,1.3,1.9-.6ZM106.1,42.2c1.6-.2,9.4-2.1,10-3.3s-.4-1.3-.7-1.3-.7.6-1,.8c-.7.5-1.5.8-2.2,1.2l-6.1,2.6ZM84.8,51.1c.3,0,.5,0,.6-.4s.1-2.5-.4-2.5c-.7.8,0,1.9-.2,2.9ZM81.5,48.6h-1.4c0,.1-.1,1-.1,1l1.4-.2.2-.8Z"/>
  <polygon points="164 10.5 163.7 12.6 162.8 12.6 163.2 10.3 164 10.5"/>
  <path d="M79.1,46.8v-2.7c.2,0,.9,0,1,.2-.4.7,0,2.5-1,2.5Z"/>
  <path class="st0" d="M74.9,25.1c0,.3,0,.5-.1.8-.1.4-1.5,2.9-1.8,3.2s-.2.3-.6.2v-1.9c-.1,0,.7.4.7.4l1.3-2.7h.4Z"/>
  <path class="st0" d="M79.6,32.8c.3.3-.9.7-1.1.7-.5,0-3.9,0-4.1-.1v-.4s5.2-.1,5.2-.1Z"/>
  <path class="st0" d="M112.2,32.4l-4.6-1.7v-.6c1.6.5,3.2.8,4.6,1.8v.5Z"/>
  <path class="st0" d="M113.8,17.5c-.3,0-.4,0-.7-.1s-2.5-1.1-2.7-1.2,0-.3,0-.4c1.1.3,3.1.4,3.4,1.7Z"/>
  <path class="st0" d="M47.8,26.7l-.4,2.1h-.7c-.6-1,.9-1.1.2-2.1.3-.4.6-.2,1,0Z"/>
  <path class="st0" d="M84.8,51.1c.2-1-.4-2,.2-2.9.5,0,.4,2.1.4,2.5s-.2.4-.6.4Z"/>
  <path class="st0" d="M132.8,16.5c.2.2-.5,3-.6,3.5h-.4c0,0,.6-3.5.6-3.5h.4Z"/>
  <path class="st0" d="M74.1,20.3c-.7,0-.7-.7-1.4-.9.2-1.5,1.8-.3,1.4.9Z"/>
  <path class="st0" d="M139.6,11.2l-.2.6-1.6,2c-.3-.2-.1-.3,0-.6.3-.5.9-1.3,1.3-1.7s.2-.4.5-.3Z"/>
  <polygon class="st0" points="81.5 48.6 81.3 49.5 79.9 49.6 80.1 48.8 81.5 48.6"/>
  <path class="st0" d="M68,30.4c-.3.3-1.1,2-1.6,1.6l.7-1.7h.9Z"/>
  <path class="st0" d="M71.8,30.5c-.1.8-.1,1.9-1.1,1.7l.6-1.7h.6Z"/>
  <path class="st0" d="M113.8,35.3l-1.9.6,1.1-1.3c.4,0,.6.3.8.7Z"/>
  <polygon class="st0" points="153.7 21.6 151.8 23.4 151.1 23.5 153.2 21.6 153.7 21.6"/>
  <path class="st0" d="M69.3,28.2c0,0-.6,1.7-1,1.3-.1-.8.2-1.3,1-1.3Z"/>
  <path class="st0" d="M139.1,31l-1.4-1.1c.5-.3,1.7.8,1.4,1.1Z"/>
  <path d="M111.5,20.3c0,0-1.3.7-1.6.4l1.5-.9v.4Z"/>
</svg>