<?xml version="1.0" encoding="UTF-8"?>
<svg id="_77-Nicotine-Pouches-Logo" xmlns="http://www.w3.org/2000/svg" version="1.1" viewBox="0 0 206 57.5">
  <!-- Generator: Adobe Illustrator 29.8.2, SVG Export Plug-In . SVG Version: 2.1.1 Build 3)  -->
  <path d="M84.2,6.8v14.9l-8.8,8.7c-.7,0-.1-.2-.1-.3v-15.9l-.3-.3h-5l-.3.3v9.1c1.1,1,3.1-.6,4.3.5v6.9h-4.3v12.7h7.5v-13.1l2.8-2.8h6v23.2h-25.2V6.8h23.4Z"/>
  <path d="M200.3,6.8v43.9h-12.6l-7.8-7.3h11.6V15l-7.7,27.3h-6.6c1.5,1.7,3.1,3.2,4.7,4.8s2.1,1.1,1.7,3.6h-8.4v-10.1l7.2-26.2-.3-.5h-5.1v-7h23.4Z"/>
  <polygon points="32.1 6.8 32.1 20.1 31.8 20.5 23 20.5 23 13.9 15.9 13.9 15.5 14.2 15.5 23.4 32.1 23.6 32.1 50.4 31.8 50.7 4.6 50.7 12.5 43.4 23 43.4 23 30.7 6.7 30.7 6.7 6.8 32.1 6.8"/>
  <path d="M144.4,6.8v18.1l-8.9,8.7V14.2l-.3-.3h-6.9v12.7h5.9v7.3h-5.8c-.3.2-.3.5-.4.8-.4,3.3-.1,9,0,12.5s.7,2.6-.1,3.5h-8.7V6.8h25.2Z"/>
  <path d="M115.8,6.8l-1.7,1.8-5.9,5.2h-9.3l-.3.4.2,10.8h11.6c0,.4-.3.7-.6.9-2.3,2.2-4.9,4.1-7.1,6.4h-4v11.1h9.9l5.8,5.1,2,2.2h-26.5l-.3-.3V6.8h26.1Z"/>
  <polygon points="57.1 13.9 51.1 13.9 50.8 14.2 50.8 43.4 56.8 43.4 57.1 43.8 57.1 50.7 35.8 50.7 35.8 43.4 41.9 43.4 41.9 14.2 41.6 13.9 35.8 13.9 35.8 6.8 56.8 6.8 57.1 7.2 57.1 13.9"/>
  <path d="M171.4,6.8c.1,2.4-.6,4.7,0,7h-6l-.3.3v28.9l.3.3h5.7c.3.2.3.5.4.8.2,2.1-.4,4.4-.2,6.5h-21.1v-7.3h6.1V14.2l-.3-.3h-5.8v-7h21.4Z"/>
  <polygon points="146.4 30.7 146.4 50.4 146.1 50.7 137.6 50.7 137.6 33.5 140.4 30.7 146.4 30.7"/>
</svg>