<?xml version="1.0" encoding="UTF-8"?>
<svg id="Lager_1" xmlns="http://www.w3.org/2000/svg" version="1.1" viewBox="0 0 400 200">
  <!-- Generator: Adobe Illustrator 29.8.2, SVG Export Plug-In . SVG Version: 2.1.1 Build 3)  -->
  <defs>
    <style>
      .st0 {
        fill: #1d1d1b;
      }
    </style>
  </defs>
  <path class="st0" d="M201.6,50.9c1,1-7.7,17.4-10,19.2h-54.4s-1.2,1.1-1.2,1.2v18h45.6c-.3,4.3-7,17.6-10.4,19.5s-29-.7-33.9-.2c-.5,0-1.3.8-1.3,1.1v16.8s1.1,1.2,1.2,1.2h64.4c-.6,3.1-8.5,20-10.8,20h-72.8s-1.2-1.1-1.2-1.2V50.9h84.8Z"/>
  <path class="st0" d="M236,50.9v74.7c0,.3,1.1,1.2.8,2h57.6l-10.4,20h-65.2s-1.2-1.1-1.2-1.2V50.9h18.4Z"/>
  <path class="st0" d="M77.6,50.9l-35.6,70.3c-2.2.2-2.7-1.2-3.7-2.7-9.7-14.5-18.2-36.4-26.6-52.5s-5.7-8.6-7.2-12-.5-2-.4-3.2c6.3.7,12.8-1.7,18.9.7l17.5,32.8,19.2-33.5h18,0Z"/>
  <path class="st0" d="M104.4,50.9c.7.2,1.6,1.6.9,2.4l-49.7,95c-1,0-1.4.3-2-.5s-7.6-14.5-7.8-15.3-.3-1.8,0-2.8l37.8-73.3c.6-1,3.3-5.6,4-5.6,3.8,0,14.1-.7,16.8,0h0Z"/>
  <path class="st0" d="M336.6,49.5h0c-19.9,2.3-36.5,20.5-40.3,39.6-8.5,42.8,39.8,76.6,76.7,51.8,44.7-30,19.8-98.1-36.4-91.4ZM319.3,115.8c-12.8-19.4,1.6-45.5,23.7-47.9,13.1-1.4,25.6,7.3,31,18.9,14.9,32.3-33.2,61.6-54.7,29Z"/>
</svg>