<?xml version="1.0" encoding="UTF-8"?>
<svg id="Lager_1" xmlns="http://www.w3.org/2000/svg" version="1.1" viewBox="0 0 211.6 74.4">
  <!-- Generator: Adobe Illustrator 29.8.2, SVG Export Plug-In . SVG Version: 2.1.1 Build 3)  -->
  <defs>
    <style>
      .st0 {
        fill: #1d1d1b;
      }
    </style>
  </defs>
  <polygon class="st0" points="142.4 74.4 160.5 74.4 160.5 28 193.4 74.4 211.6 74.4 211.6 0 193.4 0 193.4 36.3 167.6 0 150.7 0 142.4 16 142.4 74.4"/>
  <polygon class="st0" points="60.5 0 2 0 2 18.1 36.6 18.1 0 56.5 0 74.4 69.2 74.4 69.2 56.2 30.7 56.2 69.1 16 60.5 0"/>
  <polygon class="st0" points="118.2 74.4 118.2 52.3 145.4 0 121.4 0 105.7 32.5 90.1 0 66 0 93.2 52.3 93.2 74.4 118.2 74.4"/>
</svg>