<?xml version="1.0" encoding="UTF-8"?>
<svg id="Lager_1" data-name="Lager 1" xmlns="http://www.w3.org/2000/svg" version="1.1" viewBox="0 0 450 100">
  <defs>
    <style>
      .cls-1 {
        fill: #fff;
        stroke-width: 0px;
      }
    </style>
  </defs>
  <g id="Page-1">
    <g id="instabox-logotype-landscape-screen">
      <g id="logo">
        <polyline id="Fill-16" class="cls-1" points="427.9 63 449 94.1 426.3 94.1 416 78.3 405.8 94.1 384.1 94.1 405.1 63.2 385.1 33.3 407.6 33.3 417 47.9 426.4 33.3 448 33.3 427.9 63"/>
        <path id="Fill-14" class="cls-1" d="M355.2,49c-6.4,0-10,5.9-10,14.2s3.6,14,10,14,10.1-5.8,10.1-14-3.6-14.2-10.1-14.2ZM355.2,94.6c-18.1,0-30.5-12.8-30.5-31.4s12.5-31.4,30.5-31.4,30.5,12.8,30.5,31.4-12.3,31.4-30.5,31.4Z"/>
        <path id="Fill-13" class="cls-1" d="M279.2,71c1.6,3.4,5.1,5.6,9.2,5.6,7.2,0,11.5-5.8,11.5-13.6s-4.3-13.7-11.5-13.7-7.6,2.4-9.2,5.6v16ZM279.2,93.3h-21V5.9h21v31.7c2.8-3.2,8.7-6.2,14.8-6.2,17.4,0,26.9,14.1,26.9,31.6s-9.5,31.6-26.9,31.6-12-3-14.8-6.2v4.8Z"/>
        <path id="Fill-11" class="cls-1" d="M228.9,73.1c-1.3-2.6-4.7-4.2-8.4-4.2s-8.3,1.7-8.3,5.8,4.1,5.9,8.3,5.9,7.1-1.6,8.4-4v-3.5ZM228.9,57.1c0-4.7-4.3-8.1-12.8-8.1s-11.6,1.5-16.4,4.3v-16.9c4.9-2.7,12.9-4.7,21.4-4.7,17.7,0,27.8,8.5,27.8,24.5v37.4h-20.1v-3.1c-2,2-7.7,4.2-14.1,4.2-11.9,0-22-6.7-22-19.5s10.1-19.2,23-19.2,10.7,1.6,13.1,3.4v-2.2Z"/>
        <polyline id="Fill-10" class="cls-1" points="180.6 94.1 160 94.1 160 49.8 149.6 49.8 149.6 33.4 160 33.4 160 16.7 180.6 16.7 180.6 33.4 192.3 33.4 192.3 49.8 180.6 49.8 180.6 94.1"/>
        <path id="Fill-8" class="cls-1" d="M99.1,71.2c5.7,4.7,15,7.6,21.1,7.6s6.8-.9,6.8-3.6-1.9-3.3-5.4-4.1l-4.6-1.2c-11-2.4-18-7.6-18-18.5s10.3-19.7,24.4-19.7,15,1.7,20.8,5.4v17.3c-5.7-4.1-12.1-7-18.8-7s-6,1.2-6,3.6,1.7,3.1,4.6,3.9l5.4,1.6c13,3.5,18.2,8.8,18.2,19s-11,19.1-25.7,19.1-17.1-2-22.7-5.8v-17.7"/>
        <path id="Fill-6" class="cls-1" d="M33.4,33.1h21v5.2c3.3-3.8,9.2-6.6,16.2-6.6,13.4,0,21.2,8.7,21.2,22.2v39.6h-20.8v-34.5c0-5-2.5-8.6-7.9-8.6s-7.6,2.4-8.7,6.6v36.5h-21v-60.5"/>
        <path id="Fill-5" class="cls-1" d="M2.4,93.5h21v-60.4H2.4v60.4ZM12.9,28.1c-6.4,0-11.9-4.4-11.9-11.3S6.5,5.4,12.9,5.4s11.9,4.4,11.9,11.4-5.5,11.3-11.9,11.3Z"/>
      </g>
    </g>
  </g>
</svg>