<?xml version="1.0" encoding="UTF-8"?>
<svg id="Layer_1" data-name="Layer 1" xmlns="http://www.w3.org/2000/svg" version="1.1" viewBox="0 0 450 100">
  <defs>
    <style>
      .cls-1 {
        fill: #fff;
        stroke-width: 0px;
      }
    </style>
  </defs>
  <path class="cls-1" d="M85.3,1h-21.6c0,17.7-8.1,33.9-22.3,44.6l-8.5,6.4,33.1,45.2h27.2l-30.5-41.6c14.4-14.3,22.6-33.7,22.6-54.6Z"/>
  <rect class="cls-1" x="8" y="1" width="22.1" height="96.2"/>
  <rect class="cls-1" x="99.6" y="1" width="20.8" height="96.2"/>
  <path class="cls-1" d="M303.3,28.8c-7.9,0-15.5,2.4-20.5,9.3v-7.5h-19.8v66.5h20.1v-34.9c0-10.1,6.8-15,14.9-15s13.8,5.2,13.8,14.9v35.1h19.9v-42.4c0-15.5-12.3-26.1-28.3-26.1Z"/>
  <path class="cls-1" d="M183.5,30.7v4.3c-5.6-3.9-12.4-6.1-19.8-6.1-19.4,0-35.1,15.7-35.1,35.1s15.7,35.1,35.1,35.1,14.2-2.2,19.8-6.1v4.3h19.9V30.7h-19.9ZM165.3,81c-10,0-18-7.7-18-17.1s8-17.1,18-17.1,18,7.7,18,17.1-8,17.1-18,17.1Z"/>
  <path class="cls-1" d="M234.2,39.3v-8.6h-20.4v66.5h20.5v-31c0-10.5,11.3-16.1,19.2-16.1h.2v-19.4c-8,0-15.5,3.5-19.5,8.6Z"/>
  <path class="cls-1" d="M393.4,30.7v4.3c-5.6-3.9-12.4-6.1-19.8-6.1-19.4,0-35.1,15.7-35.1,35.1s15.7,35.1,35.1,35.1,14.2-2.2,19.8-6.1v4.3h19.9V30.7h-19.9ZM375.3,81c-10,0-18-7.7-18-17.1s8-17.1,18-17.1,18,7.7,18,17.1c0,9.4-8,17.1-18,17.1Z"/>
  <g>
    <path class="cls-1" d="M428.7,32.6c0-1-.7-1.6-1.7-1.6h-1.8v5h.9v-1.8h1l.8,1.8h1l-.9-2c.6-.3.9-.8.9-1.5ZM426.9,33.4h-1v-1.6h1c.6,0,.9.3.9.8s-.2.8-.9.8Z"/>
    <path class="cls-1" d="M426.7,28.9c-2.6,0-4.7,2.1-4.7,4.7,0,2.6,2.1,4.7,4.7,4.7s4.7-2.1,4.7-4.7-2.1-4.7-4.7-4.7ZM426.7,37.5c-2.1,0-3.8-1.7-3.8-3.9s1.7-3.9,3.8-3.9,3.8,1.7,3.8,3.9-1.7,3.9-3.8,3.9Z"/>
  </g>
  <path class="cls-1" d="M434.5,73.6c-6.9,0-12.5,5.6-12.5,12.5s5.6,12.5,12.5,12.5,12.5-5.6,12.5-12.5-5.6-12.5-12.5-12.5Z"/>
</svg>