<svg xmlns="http://www.w3.org/2000/svg" viewBox="0 0 272 241">
  <defs>
    <style>
      .cls-1 {
        fill: #fff;
      }

      .cls-2 {
        fill: #168c40;
      }

      .cls-3 {
        fill: #b7b6ba;
      }

      .cls-4 {
        fill: #88bc24;
      }

      .cls-5 {
        fill: #2aab6e;
      }

      .cls-6 {
        fill: none;
      }

      .cls-7 {
        fill: #cccbcb;
      }

      .cls-8 {
        fill: #004f87;
      }

      .cls-9 {
        fill: #ffce00;
      }
    </style>
  </defs>
  <g id="Lager_2" data-name="Lager 2">
    <g id="Lager_4" data-name="Lager 4">
      <g>
        <rect class="cls-1" x="2.25" y="12.5" width="267.3" height="222.27" />
        <path class="cls-2" d="M267.3,14.75V232.52H4.5V14.75H267.3m4.5-4.5H0V237H271.8V10.25Z" />
      </g>
      <rect class="cls-3" x="14.94" y="25.25" width="242.05" height="11.77" />
      <rect class="cls-2" x="14.94" y="37.02" width="242.05" height="19.07" />
      <rect class="cls-4" x="14.94" y="55.96" width="242.05" height="16.17" />
      <rect class="cls-5" x="14.94" y="72.12" width="242.05" height="19.93" />
      <polygon class="cls-1" points="14.94 21.75 14.94 25.25 91.88 25.25 91.88 45.18 71.96 45.18 71.96 72.12 91.88 72.12 91.88 92.05 14.94 92.05 14.94 95.55 256.99 95.55 256.99 92.05 118.82 92.05 118.82 72.12 138.74 72.12 138.74 45.18 118.82 45.18 118.82 25.25 256.99 25.25 256.99 21.75 14.94 21.75" />
      <rect class="cls-6" x="14.94" y="21.75" width="242.05" height="73.79" />
      <g>
        <path class="cls-2" d="M80.18,128.05l-5.31-9.32-3.18,3.82v5.5H68.82v-18.9h2.87v9.5l7.72-9.5h3.51l-6.14,7.4,6.77,11.5Z" />
        <path class="cls-2" d="M89.15,128.05a3.44,3.44,0,0,1-3.69-3.72V109.15h2.71v15c0,1,.37,1.57,1.46,1.57h1.19v2.31Z" />
        <path class="cls-2" d="M93.29,111.94v-2.87h2.86v2.87Zm.08,16.11V114.59h2.71v13.46Z" />
        <path class="cls-2" d="M105.26,128.21c-3,0-6-1.86-6-6.9s3-6.88,6-6.88a5.49,5.49,0,0,1,4.43,1.89l-1.86,1.8a3.12,3.12,0,0,0-2.57-1.27,3,3,0,0,0-2.5,1.19,5,5,0,0,0-.79,3.27,5.11,5.11,0,0,0,.79,3.29,3,3,0,0,0,2.5,1.19,3.12,3.12,0,0,0,2.57-1.27l1.86,1.77A5.52,5.52,0,0,1,105.26,128.21Z" />
        <path class="cls-2" d="M120.86,128.05l-3.77-6.21-2,2.25v4h-2.71v-18.9h2.71V120.8l5.23-6.21h3.29L119,119.87l5.25,8.18Z" />
        <path class="cls-2" d="M133.76,128.05v-1.22a4.43,4.43,0,0,1-3.59,1.38,4.74,4.74,0,0,1-3.61-1.23,4.11,4.11,0,0,1-1.06-2.89c0-2.25,1.57-3.87,4.65-3.87h3.55v-1c0-1.7-.84-2.52-2.94-2.52a3.17,3.17,0,0,0-2.95,1.3L126,116.37c1.28-1.49,2.6-1.94,4.83-1.94,3.69,0,5.55,1.57,5.55,4.62v9Zm-.06-6h-3.15c-1.6,0-2.42.72-2.42,1.94s.77,1.91,2.47,1.91a3.22,3.22,0,0,0,2.52-.77,2.69,2.69,0,0,0,.58-2Z" />
        <path class="cls-2" d="M154.24,128.05v-8.26c0-2-1.19-2.94-2.7-2.94a2.63,2.63,0,0,0-2.74,2.94v8.26h-2.7v-18.9h2.7v6.79a4.66,4.66,0,0,1,3.48-1.51c3,0,4.67,2,4.67,4.94v8.68Z" />
        <path class="cls-2" d="M167.94,128.05v-1.22a4.43,4.43,0,0,1-3.59,1.38,4.74,4.74,0,0,1-3.61-1.23,4.11,4.11,0,0,1-1.06-2.89c0-2.25,1.57-3.87,4.65-3.87h3.55v-1c0-1.7-.85-2.52-2.94-2.52A3.17,3.17,0,0,0,162,118l-1.78-1.67c1.28-1.49,2.6-1.94,4.83-1.94,3.69,0,5.55,1.57,5.55,4.62v9Zm-6.66-16v-2.87h2.44V112Zm6.6,10.08h-3.15c-1.6,0-2.42.72-2.42,1.94s.77,1.91,2.47,1.91a3.22,3.22,0,0,0,2.52-.77,2.69,2.69,0,0,0,.58-2ZM167,112v-2.87h2.44V112Z" />
        <path class="cls-2" d="M181.71,117.75a2.5,2.5,0,0,0-2-.9,2.76,2.76,0,0,0-2.68,3v8.18h-2.7V114.59H177v1.46a4.45,4.45,0,0,1,3.58-1.62,4.19,4.19,0,0,1,3.21,1.27Z" />
        <path class="cls-2" d="M194.61,116.9v11.15H191.9V116.9h-1.54v-2.07h1.54v-2.07a3.5,3.5,0,0,1,3.69-3.74h1.7v2.31h-1.2a1.36,1.36,0,0,0-1.48,1.56v1.94h2.68v2.07Z" />
        <path class="cls-2" d="M208.33,126.61a5.44,5.44,0,0,1-4,1.6,5.37,5.37,0,0,1-4-1.6c-1.27-1.32-1.59-3-1.59-5.3s.32-4,1.59-5.29a5.4,5.4,0,0,1,4-1.59,5.48,5.48,0,0,1,4,1.59c1.27,1.33,1.59,3,1.59,5.29S209.6,125.29,208.33,126.61ZM200.2,112v-2.87h2.45V112Zm6.08,5.6a2.71,2.71,0,0,0-2-.77,2.65,2.65,0,0,0-2,.77c-.82.82-.93,2.23-.93,3.69s.11,2.86.93,3.68a2.68,2.68,0,0,0,2,.8,2.73,2.73,0,0,0,2-.8c.83-.82.93-2.23.93-3.68S207.11,118.44,206.28,117.62Zm-.34-5.6v-2.87h2.44V112Z" />
        <path class="cls-2" d="M220.56,117.75a2.5,2.5,0,0,0-2-.9,2.76,2.76,0,0,0-2.68,3v8.18h-2.71V114.59h2.66v1.46a4.45,4.45,0,0,1,3.58-1.62,4.19,4.19,0,0,1,3.21,1.27Z" />
        <path class="cls-2" d="M75.75,157.1v-1.22a4.43,4.43,0,0,1-3.58,1.38A4.75,4.75,0,0,1,68.56,156a4.12,4.12,0,0,1-1.07-2.89c0-2.26,1.57-3.88,4.65-3.88H75.7v-1c0-1.7-.85-2.52-3-2.52a3.15,3.15,0,0,0-3,1.3L68,145.42c1.27-1.48,2.6-1.93,4.83-1.93,3.69,0,5.54,1.56,5.54,4.62v9Zm0-5.94H72.54c-1.59,0-2.42.71-2.42,1.94s.77,1.91,2.47,1.91a3.2,3.2,0,0,0,2.52-.77,2.71,2.71,0,0,0,.59-2Z" />
        <path class="cls-2" d="M86.15,157.1a3.5,3.5,0,0,1-3.69-3.74V146H80.92v-2.07h1.54V139.8h2.71v4.09h2.6V146h-2.6v7.27a1.37,1.37,0,0,0,1.49,1.56h1.11v2.31Z" />
        <path class="cls-2" d="M94.8,157.1a3.5,3.5,0,0,1-3.69-3.74V146H89.57v-2.07h1.54V139.8h2.71v4.09h2.6V146h-2.6v7.27a1.37,1.37,0,0,0,1.49,1.56h1.11v2.31Z" />
        <path class="cls-2" d="M113.86,157.1l-3.77-6.21-2,2.26v3.95h-2.71V138.21h2.71v11.65l5.23-6.21h3.29l-4.68,5.28,5.26,8.17Z" />
        <path class="cls-2" d="M128.32,155.67a5.45,5.45,0,0,1-4,1.59,5.37,5.37,0,0,1-4-1.59c-1.28-1.33-1.6-3-1.6-5.31s.32-4,1.6-5.28a5.37,5.37,0,0,1,4-1.59,5.45,5.45,0,0,1,4,1.59c1.27,1.33,1.59,3,1.59,5.28S129.59,154.34,128.32,155.67Zm-2-9a2.78,2.78,0,0,0-2-.77,2.72,2.72,0,0,0-2,.77c-.82.83-.93,2.23-.93,3.69s.11,2.87.93,3.69a2.74,2.74,0,0,0,2,.8,2.8,2.8,0,0,0,2-.8c.82-.82.92-2.23.92-3.69S127.1,147.5,126.28,146.67Z" />
        <path class="cls-2" d="M141.35,157.1v-8.2c0-2.09-1.2-3-2.71-3a2.68,2.68,0,0,0-2.79,3v8.2h-2.7V143.65h2.65V145a4.81,4.81,0,0,1,3.58-1.51,4.66,4.66,0,0,1,3.32,1.22,4.92,4.92,0,0,1,1.36,3.79v8.6Z" />
        <path class="cls-2" d="M151.8,157.1a3.5,3.5,0,0,1-3.69-3.74V146h-1.54v-2.07h1.54V139.8h2.71v4.09h2.6V146h-2.6v7.27a1.37,1.37,0,0,0,1.49,1.56h1.11v2.31Z" />
        <path class="cls-2" d="M163.85,146.81a2.48,2.48,0,0,0-2-.91,2.77,2.77,0,0,0-2.68,3v8.17h-2.7V143.65h2.65v1.46a4.45,4.45,0,0,1,3.58-1.62,4.14,4.14,0,0,1,3.21,1.27Z" />
        <path class="cls-2" d="M175.85,155.67a5.48,5.48,0,0,1-4,1.59,5.4,5.4,0,0,1-4-1.59c-1.27-1.33-1.59-3-1.59-5.31s.32-4,1.59-5.28a5.4,5.4,0,0,1,4-1.59,5.48,5.48,0,0,1,4,1.59c1.27,1.33,1.59,3,1.59,5.28S177.12,154.34,175.85,155.67Zm-2-9a2.75,2.75,0,0,0-2-.77,2.69,2.69,0,0,0-2,.77c-.82.83-.93,2.23-.93,3.69s.11,2.87.93,3.69a2.71,2.71,0,0,0,2,.8,2.77,2.77,0,0,0,2-.8c.83-.82.93-2.23.93-3.69S174.63,147.5,173.8,146.67Z" />
        <path class="cls-2" d="M184.28,157.1a3.43,3.43,0,0,1-3.69-3.71V138.21h2.71v15c0,1,.37,1.56,1.46,1.56H186v2.31Z" />
        <path class="cls-2" d="M192.11,157.1a3.43,3.43,0,0,1-3.69-3.71V138.21h2.71v15c0,1,.37,1.56,1.46,1.56h1.19v2.31Z" />
        <path class="cls-2" d="M197.66,151.16c0,2.31,1.22,3.77,3.42,3.77a4,4,0,0,0,3.27-1.38l1.72,1.62a6.31,6.31,0,0,1-5,2.09c-3.37,0-6.05-1.78-6.05-6.9,0-4.35,2.25-6.87,5.7-6.87,3.61,0,5.71,2.65,5.71,6.47v1.2Zm5.68-3.72a2.78,2.78,0,0,0-2.66-1.7,2.82,2.82,0,0,0-2.68,1.7,4.24,4.24,0,0,0-.34,1.83h6.05A4.38,4.38,0,0,0,203.34,147.44Z" />
        <path class="cls-2" d="M217,146.81a2.48,2.48,0,0,0-2-.91,2.77,2.77,0,0,0-2.68,3v8.17h-2.7V143.65h2.65v1.46a4.45,4.45,0,0,1,3.58-1.62,4.14,4.14,0,0,1,3.21,1.27Z" />
        <path class="cls-2" d="M227.75,157.1v-1.22a4.43,4.43,0,0,1-3.58,1.38,4.76,4.76,0,0,1-3.61-1.22,4.11,4.11,0,0,1-1.06-2.89c0-2.26,1.56-3.88,4.64-3.88h3.56v-1c0-1.7-.85-2.52-2.95-2.52a3.14,3.14,0,0,0-2.94,1.3L220,145.42c1.27-1.48,2.6-1.93,4.83-1.93,3.69,0,5.55,1.56,5.55,4.62v9Zm-.05-5.94h-3.16c-1.59,0-2.42.71-2.42,1.94s.77,1.91,2.47,1.91a3.2,3.2,0,0,0,2.52-.77,2.71,2.71,0,0,0,.59-2Z" />
        <path class="cls-2" d="M77.5,184.73a5.88,5.88,0,0,1-8,0c-1.27-1.33-1.59-3-1.59-5.31s.32-4,1.59-5.28a5.85,5.85,0,0,1,8,0c1.27,1.32,1.59,3,1.59,5.28S78.77,183.4,77.5,184.73Zm-2-9a2.74,2.74,0,0,0-2-.77,2.68,2.68,0,0,0-2,.77c-.82.82-.93,2.23-.93,3.69s.11,2.86.93,3.69a2.73,2.73,0,0,0,2,.79,2.79,2.79,0,0,0,2-.79c.82-.83.93-2.23.93-3.69S76.28,176.55,75.46,175.73Z" />
        <path class="cls-2" d="M98.73,186.16V178c0-2.1-1.19-3-2.71-3a2.66,2.66,0,0,0-2.78,2.86v8.34H90.53V178c0-2.1-1.19-3-2.71-3A2.68,2.68,0,0,0,85,178v8.2H82.33V172.7H85v1.36a4.86,4.86,0,0,1,3.59-1.52,4.31,4.31,0,0,1,3.82,2,5.11,5.11,0,0,1,4.22-2,4.84,4.84,0,0,1,3.39,1.22,5,5,0,0,1,1.44,3.8v8.6Z" />
        <path class="cls-2" d="M124.29,186.16H122l-3.16-9.4-3.13,9.4h-2.34l-4.17-13.46h2.87l2.6,9.48,3.13-9.48h2.1l3.11,9.48,2.6-9.48h2.89Z" />
        <path class="cls-2" d="M132.19,180.21c0,2.31,1.22,3.77,3.43,3.77a4,4,0,0,0,3.26-1.38l1.73,1.62a6.32,6.32,0,0,1-5.05,2.1c-3.37,0-6.05-1.78-6.05-6.9,0-4.36,2.26-6.88,5.71-6.88,3.61,0,5.7,2.66,5.7,6.48v1.19Zm5.68-3.71a2.77,2.77,0,0,0-2.65-1.7,2.8,2.8,0,0,0-2.68,1.7,4.24,4.24,0,0,0-.35,1.83h6.05A4.09,4.09,0,0,0,137.87,176.5Z" />
        <path class="cls-2" d="M153.58,185.12a4.63,4.63,0,0,1-3.29,1.2,4.15,4.15,0,0,1-3.56-1.59v1.43h-2.65v-18.9h2.71v6.8a4.15,4.15,0,0,1,3.53-1.52,4.55,4.55,0,0,1,3.26,1.2c1.35,1.35,1.51,3.63,1.51,5.68S154.93,183.77,153.58,185.12Zm-4-10.16c-2.44,0-2.81,2.07-2.81,4.46s.37,4.48,2.81,4.48,2.79-2.09,2.79-4.48S152,175,149.6,175Z" />
        <path class="cls-2" d="M167.83,185.12a4.63,4.63,0,0,1-3.29,1.2,4.15,4.15,0,0,1-3.56-1.59v1.43h-2.65v-18.9H161v6.8a4.15,4.15,0,0,1,3.53-1.52,4.55,4.55,0,0,1,3.26,1.2c1.35,1.35,1.51,3.63,1.51,5.68S169.18,183.77,167.83,185.12Zm-4-10.16c-2.44,0-2.81,2.07-2.81,4.46s.37,4.48,2.81,4.48,2.79-2.09,2.79-4.48S166.29,175,163.85,175Z" />
        <path class="cls-2" d="M182.08,185.12a4.55,4.55,0,0,1-3.26,1.2,4.18,4.18,0,0,1-3.53-1.54v6.82h-2.71V172.7h2.66v1.44a4.1,4.1,0,0,1,3.55-1.6,4.61,4.61,0,0,1,3.29,1.2c1.36,1.35,1.52,3.63,1.52,5.68S183.44,183.77,182.08,185.12Zm-4-10.16c-2.44,0-2.81,2.07-2.81,4.46s.37,4.48,2.81,4.48,2.79-2.09,2.79-4.48S180.54,175,178.1,175Z" />
        <path class="cls-2" d="M190.44,186.16a3.44,3.44,0,0,1-3.69-3.72V167.26h2.71v15c0,1,.37,1.57,1.46,1.57h1.19v2.31Z" />
        <path class="cls-2" d="M201.9,186.16v-1.22a4.43,4.43,0,0,1-3.58,1.38,4.78,4.78,0,0,1-3.61-1.22,4.14,4.14,0,0,1-1.06-2.9c0-2.25,1.57-3.87,4.65-3.87h3.55v-1c0-1.7-.85-2.52-2.94-2.52a3.16,3.16,0,0,0-2.95,1.3l-1.78-1.67c1.28-1.49,2.6-1.94,4.83-1.94,3.69,0,5.55,1.57,5.55,4.62v9Zm-.05-5.95h-3.16c-1.59,0-2.41.72-2.41,1.94s.77,1.91,2.47,1.91a3.22,3.22,0,0,0,2.52-.77,2.69,2.69,0,0,0,.58-2Z" />
        <path class="cls-2" d="M212.31,186.16a3.51,3.51,0,0,1-3.69-3.74V175h-1.54v-2.07h1.54v-4.09h2.7v4.09h2.61V175h-2.61v7.27a1.37,1.37,0,0,0,1.49,1.57h1.12v2.31Z" />
        <path class="cls-2" d="M221.3,186.32a7.38,7.38,0,0,1-5.65-1.94l1.78-1.78A5.21,5.21,0,0,0,221.3,184c1.65,0,2.95-.59,2.95-1.86,0-.9-.5-1.49-1.81-1.59l-2.15-.19c-2.52-.21-4-1.35-4-3.71,0-2.63,2.26-4.12,5.07-4.12a7.37,7.37,0,0,1,5,1.52l-1.7,1.72a5,5,0,0,0-3.31-1c-1.62,0-2.45.72-2.45,1.72,0,.8.43,1.41,1.86,1.54l2.13.19c2.52.21,4,1.41,4,3.79C226.9,184.86,224.51,186.32,221.3,186.32Z" />
        <path class="cls-2" d="M231.76,180.21c0,2.31,1.22,3.77,3.42,3.77a4,4,0,0,0,3.27-1.38l1.72,1.62a6.31,6.31,0,0,1-5,2.1c-3.37,0-6-1.78-6-6.9,0-4.36,2.25-6.88,5.7-6.88,3.61,0,5.71,2.66,5.71,6.48v1.19Zm5.68-3.71a2.78,2.78,0,0,0-2.66-1.7,2.82,2.82,0,0,0-2.68,1.7,4.24,4.24,0,0,0-.34,1.83h6.05A4.38,4.38,0,0,0,237.44,176.5Z" />
        <path class="cls-2" d="M251.85,186.16V178c0-2.1-1.2-3-2.71-3a2.68,2.68,0,0,0-2.79,3v8.2h-2.7V172.7h2.65v1.36a4.81,4.81,0,0,1,3.58-1.52,4.68,4.68,0,0,1,3.32,1.22,4.94,4.94,0,0,1,1.35,3.8v8.6Z" />
        <path class="cls-2" d="M75.75,215.22V214a4.39,4.39,0,0,1-3.58,1.38,4.71,4.71,0,0,1-3.61-1.22,4.12,4.12,0,0,1-1.07-2.89c0-2.26,1.57-3.87,4.65-3.87H75.7v-1c0-1.7-.85-2.52-3-2.52a3.15,3.15,0,0,0-3,1.3L68,203.54c1.27-1.49,2.6-1.94,4.83-1.94,3.69,0,5.54,1.57,5.54,4.62v9Zm-6.66-16v-2.86h2.44v2.86Zm6.61,10.09H72.54c-1.59,0-2.42.72-2.42,1.94s.77,1.91,2.47,1.91a3.2,3.2,0,0,0,2.52-.77,2.71,2.71,0,0,0,.59-2Zm-.88-10.09v-2.86h2.44v2.86Z" />
        <path class="cls-2" d="M89.52,204.92a2.51,2.51,0,0,0-2-.91,2.77,2.77,0,0,0-2.68,3v8.18h-2.7V201.76h2.65v1.46a4.45,4.45,0,0,1,3.58-1.62,4.18,4.18,0,0,1,3.22,1.27Z" />
        <path class="cls-2" d="M102.9,215.22a3.43,3.43,0,0,1-3.69-3.72V196.32h2.7v15c0,1,.38,1.57,1.46,1.57h1.2v2.31Z" />
        <path class="cls-2" d="M114.36,215.22V214a4.39,4.39,0,0,1-3.58,1.38,4.71,4.71,0,0,1-3.61-1.22,4.11,4.11,0,0,1-1.06-2.89c0-2.26,1.56-3.87,4.64-3.87h3.56v-1c0-1.7-.85-2.52-3-2.52a3.15,3.15,0,0,0-3,1.3l-1.77-1.67c1.27-1.49,2.6-1.94,4.83-1.94,3.69,0,5.54,1.57,5.54,4.62v9Zm0-5.95h-3.16c-1.59,0-2.42.72-2.42,1.94s.77,1.91,2.47,1.91a3.2,3.2,0,0,0,2.52-.77,2.71,2.71,0,0,0,.59-2Z" />
        <path class="cls-2" d="M125.27,220.82a6.24,6.24,0,0,1-4.76-1.78l1.73-1.73a3.77,3.77,0,0,0,2.92,1.2c2.28,0,3.16-1.62,3.16-3.43v-1.72a4.18,4.18,0,0,1-3.48,1.54,4.43,4.43,0,0,1-3.21-1.2c-1.3-1.3-1.51-3.18-1.51-5.47s.21-4.16,1.51-5.46a4.47,4.47,0,0,1,3.24-1.17,4.13,4.13,0,0,1,3.53,1.59v-1.43H131v13.38A5.4,5.4,0,0,1,125.27,220.82Zm.31-16.81c-2.44,0-2.76,2.1-2.76,4.22s.32,4.22,2.76,4.22,2.74-2.09,2.74-4.22S128,204,125.58,204Z" />
        <path class="cls-2" d="M138.51,215.22a3.43,3.43,0,0,1-3.69-3.72V196.32h2.71v15c0,1,.37,1.57,1.46,1.57h1.19v2.31Z" />
        <path class="cls-2" d="M142.65,199.1v-2.86h2.86v2.86Zm.08,16.12V201.76h2.7v13.46Z" />
        <path class="cls-2" d="M153.82,220.82a6.23,6.23,0,0,1-4.75-1.78l1.72-1.73a3.79,3.79,0,0,0,2.92,1.2c2.29,0,3.16-1.62,3.16-3.43v-1.72a4.16,4.16,0,0,1-3.48,1.54,4.44,4.44,0,0,1-3.21-1.2c-1.3-1.3-1.51-3.18-1.51-5.47s.21-4.16,1.51-5.46a4.5,4.5,0,0,1,3.24-1.17,4.13,4.13,0,0,1,3.53,1.59v-1.43h2.63v13.38A5.4,5.4,0,0,1,153.82,220.82Zm.32-16.81c-2.44,0-2.76,2.1-2.76,4.22s.32,4.22,2.76,4.22,2.73-2.09,2.73-4.22S156.58,204,154.14,204Z" />
      </g>
      <rect class="cls-7" x="14.88" y="104.11" width="40.69" height="26.82" />
      <g id="Flag">
        <rect class="cls-8" x="16.61" y="105.84" width="37.23" height="23.31" />
        <polyline class="cls-9" points="28.33 105.83 28.37 115.14 16.62 115.14 16.62 119.77 28.24 119.77 28.23 129.17 32.96 129.17 32.96 119.76 53.83 119.78 53.83 115.15 32.93 115.13 32.93 105.82" />
      </g>
    </g>

  </g>
</svg>