<?xml version="1.0" encoding="UTF-8"?>
<svg id="Layer_1" data-name="Layer 1" xmlns="http://www.w3.org/2000/svg" version="1.1" viewBox="0 0 450 100">
  <defs>
    <style>
      .cls-1 {
        fill: #fff;
        fill-rule: evenodd;
        stroke-width: 0px;
      }
    </style>
  </defs>
  <path class="cls-1" d="M1.8,24.2c6.1,0,12.2,0,18.3,0,1,0,1.3.4,1.2,1.3,0,1.1,0,2.1,0,3.2.2,0,.4,0,.6-.1,12.9-11.5,32.5-6.9,38.7,9.3,4.4,11.5,3.5,22.7-4.8,32.5-8.8,10.3-25.4,10.8-33.8,4.1-.1-.1-.3-.1-.8-.3v18.2c-5.9,0-11.8,0-17.7,0-1.3,0-1.8-.2-1.8-1.7,0-22.2,0-44.4,0-66.6ZM20.7,50.5c0,6.4,4.3,11,10.6,11.1,6,.1,10.6-4.4,10.7-10.3.1-6.9-4-11.5-10.4-11.6-6.4,0-10.9,4.3-11,10.9Z"/>
  <path class="cls-1" d="M450,77.4c-5.5-.4-10.9,0-16.4-.2-.6,0-1.1,0-1.7,0-1.2.2-1.5-.4-1.4-1.5,0-1,0-2.1,0-3.4-1.1.9-2,1.8-3,2.5-9.1,6.7-23.6,5.1-31.4-3.4-9.7-10.6-9.6-29.9-.1-40.6,8.6-9.7,25.2-10.9,33.8-4,.1,0,.3.1.7.2,0-4.7,0-9.3,0-13.9,0-1.4.5-1.8,1.7-2,5.2-1,10.4-2,15.5-3,.3,0,.6,0,.8-.4,1.3-.3,1.5.2,1.5,1.5,0,22.7,0,45.5,0,68.2ZM409.6,50.5c0,6.5,4.3,11.1,10.5,11.1,6.4,0,10.8-4.5,10.8-11,0-6.4-4.4-10.8-10.8-10.8-6.3,0-10.6,4.4-10.6,10.8Z"/>
  <path class="cls-1" d="M314.1,22.3c5.9,0,10.9.9,15.7,3,11.2,4.8,17.1,15.1,16.1,27.3-1.2,14.6-11.1,23.1-24.1,25.6-7.8,1.5-15.4.9-22.7-2.3-11.5-4.9-16.6-14.8-16-26.6.9-16.9,13.1-24.8,26.2-26.6,1.8-.2,3.7-.3,4.8-.4ZM303.8,50.6c0,6.4,4.6,11,10.8,10.9,6.3,0,10.6-4.5,10.6-10.9,0-6.6-4.4-11.1-10.7-11.1-6.3,0-10.6,4.5-10.6,11Z"/>
  <path class="cls-1" d="M97.9,22.3c8.1.2,15.8,2.1,22.2,7.4,5.3,4.5,8.1,10.3,8.7,17.2.7,7.9-.8,15.2-6,21.4-4.5,5.3-10.4,8.2-17.1,9.6-7.9,1.7-15.7,1.2-23.2-1.9-12.5-5.1-17.4-16.1-16.2-28.4,1.4-13.8,11-22,23.7-24.5,2.6-.5,5.3-.8,8-.8ZM97.6,39.6c-6.4,0-10.8,4.4-10.9,11-.1,6.2,4.6,11,10.8,11,6.2,0,10.7-4.5,10.7-10.8,0-6.4-4.4-11.1-10.6-11.2Z"/>
  <path class="cls-1" d="M243.9,28.4c6.4-6.3,14-7.3,22.1-5.1,7.3,2,10.8,7.5,12.2,14.6.4,1.9.5,3.8.5,5.8,0,10.6,0,21.1,0,31.7,0,1.4-.3,1.9-1.8,1.9-5.4,0-10.7,0-16.1,0-1.4,0-1.9-.4-1.9-1.9,0-8.8,0-17.6,0-26.4,0-.9-.1-1.7-.3-2.6-.9-4.7-2.8-6.3-7.3-6.2-4.3.2-7,2.5-7.4,6.9-.4,4.9-.1,9.9-.2,14.8,0,4.6,0,9.1,0,13.7,0,1.3-.4,1.7-1.7,1.7-5.5,0-11,0-16.4,0-1.2,0-1.6-.3-1.6-1.6,0-16.7,0-33.4,0-50,0-1.4.5-1.6,1.7-1.6,5.4,0,10.7,0,16.1,0,1.6,0,2.1.4,1.9,2,0,.7-.2,1.5.2,2.4Z"/>
  <path class="cls-1" d="M159.2,22.3c6.5.2,12.4.7,18.3,2.1,1.2.3,1.5.7,1.2,1.9-1,3.9-1.9,7.9-2.7,11.8-.3,1.5-.8,1.5-2.1,1.1-6.1-1.8-12.2-3-18.6-2.1-.5,0-1,.2-1.4.4-1.2.3-2.1,1-2.1,2.3,0,1.3,1.1,1.9,2.2,2.2,4.2,1,8.5,1.2,12.7,2.3,2.2.6,4.4,1.3,6.5,2.3,5.8,2.8,8.3,7.3,8.1,13.7-.2,7.6-4.1,12.5-10.8,15.4-5.4,2.3-11.2,2.9-17,3.1-7.3.2-14.4-.8-21.4-2.8-1.1-.3-1.4-.7-1.1-1.9,1.1-4.1,2.2-8.3,3.2-12.5.3-1.4.8-1.5,2-1,6.4,2.5,13.1,3.9,20,3.4.9,0,1.9-.2,2.7-.6,1-.4,1.6-1.1,1.6-2.3,0-1.2-.7-1.8-1.7-2.2-2.2-.8-4.5-1-6.7-1.3-4-.5-7.9-1.2-11.6-2.7-10.7-4.3-13-18.2-4.2-25.9,4.8-4.2,10.7-5.6,16.9-6.2,2.2-.2,4.3-.3,6-.4Z"/>
  <path class="cls-1" d="M184.8,44.6c0-10.2,0-20.5,0-30.7,0-1.4.4-1.8,1.8-1.7,5.4,0,10.8,0,16.2,0,1.5,0,1.7.5,1.7,1.8,0,2.9,0,5.7,0,8.6,0,1.3.4,1.6,1.6,1.6,4.9,0,9.8,0,14.8,0,1.3,0,1.7.2,1,1.5-2.6,4.6-5.1,9.3-7.5,14-.4.8-1,1.1-1.9,1.1-2.1,0-4.1,0-6.2,0-1.4,0-1.8.4-1.8,1.8,0,10.8,0,21.6,0,32.4q0,2.4-2.4,2.4c-5.1,0-10.2,0-15.3,0-1.5,0-2-.3-2-1.9,0-10.2,0-20.5,0-30.7Z"/>
  <path class="cls-1" d="M370.1,29.8c4.5-6,10.4-6.8,16.8-6.4,1.2,0,1.7.5,1.7,1.9-.2,5-.3,10.1-.4,15.2,0,1.2-.4,1.5-1.6,1.2-2.2-.6-4.5-.8-6.8-.6-6.5.6-9.6,4-9.7,10.5,0,7.9,0,15.7,0,23.6,0,1.6-.3,2.2-2,2.1-5.3-.1-10.6,0-15.9,0-1.2,0-1.8-.2-1.7-1.6,0-16.7,0-33.3,0-50,0-1.2.3-1.6,1.5-1.6,5.5,0,11.1,0,16.6,0,1.2,0,1.5.4,1.4,1.5,0,1.2,0,2.5,0,4.2Z"/>
</svg>