<?xml version="1.0" encoding="UTF-8"?>
<svg id="Layer_1" data-name="Layer 1" xmlns="http://www.w3.org/2000/svg" version="1.1" viewBox="0 0 240 100">
  <defs>
    <style>
      .cls-1 {
        fill-rule: evenodd;
      }

      .cls-1, .cls-2 {
        fill: #fff;
        stroke-width: 0px;
      }
    </style>
  </defs>
  <path class="cls-1" d="M237.7,51.6c0-16.7-8.1-30-23.6-30s-25,13.2-25,29.8,11.1,29.6,27.1,29.6,13.7-1.8,18.1-4.3v-13.1c-4.4,2.2-9.6,3.6-16,3.6s-12-2.2-12.7-9.9h32c0-.9.1-4.3.1-5.8ZM205.4,45.4c0-7.4,4.5-10.5,8.6-10.5s8.2,3.1,8.2,10.5h-16.9Z"/>
  <path class="cls-1" d="M163.9,21.7c-6.4,0-10.5,3-12.8,5.1l-.9-4.1h-14.4v76.3l16.4-3.5v-18.5c2.4,1.7,5.9,4.1,11.6,4.1,11.7,0,22.4-9.4,22.4-30.2,0-19-10.9-29.3-22.3-29.3ZM160,66.7c-3.9,0-6.1-1.4-7.7-3.1v-24.3c1.6-1.9,4-3.2,7.7-3.2,6,0,10.1,6.7,10.1,15.2s-4.1,15.3-10.1,15.3Z"/>
  <polygon class="cls-1" points="113.3 17.8 129.7 14.3 129.7 1 113.3 4.5 113.3 17.8"/>
  <rect class="cls-2" x="113.3" y="22.8" width="16.4" height="57.2"/>
  <path class="cls-1" d="M95.7,27.6l-1-4.8h-14.1v57.2h16.4v-38.8c3.9-5,10.4-4.1,12.4-3.4v-15c-2.1-.8-9.7-2.2-13.6,4.8Z"/>
  <path class="cls-1" d="M63,8.6l-16,3.4v52.4c0,9.7,7.2,16.8,16.9,16.8s9.3-1,11.4-2.2v-13.3c-2.1.9-12.4,3.9-12.4-5.8v-23.2h12.4v-13.9h-12.4v-14.2Z"/>
  <path class="cls-1" d="M18.8,39.4c0-2.6,2.1-3.5,5.6-3.5,5,0,11.3,1.5,16.2,4.2v-15.4c-5.4-2.2-10.8-3-16.2-3-13.3,0-22.1,6.9-22.1,18.5,0,18.1,24.9,15.2,24.9,23s-2.6,4-6.3,4c-5.4,0-12.4-2.2-17.9-5.2v15.6c6.1,2.6,12.2,3.7,17.9,3.7,13.6,0,23-6.7,23-18.4,0-19.5-25-16-25-23.4Z"/>
</svg>