<?xml version="1.0" encoding="UTF-8"?>
<svg id="Lager_1" xmlns="http://www.w3.org/2000/svg" version="1.1" viewBox="0 0 279.7 250">
  <!-- Generator: Adobe Illustrator 29.8.2, SVG Export Plug-In . SVG Version: 2.1.1 Build 3)  -->
  <defs>
    <style>
      .st0 {
        fill: #fff;
      }
    </style>
  </defs>
  <path class="st0" d="M136.5,1.9c36.3-.7,74.1,6.1,106.4,22.8l.4.8v127.4c-1.9,42-31.1,61.7-65.4,78.3-12.5,6.1-25.3,11.4-37.9,16.9-17.4-7.6-35.3-14.9-52-24.1-30.5-16.9-50.2-36.6-51.6-73.5V24.9c14.8-7.6,30.7-13,46.8-16.7s35.4-6,53.3-6.3ZM233.7,27.7c-42.9-4.2-87.6-2.9-128.2,12.6-21.9,8.3-42.3,20.8-59.5,36.7v73.3c1.1,32,16.9,48.2,43.3,63.3,16.2,9.2,33.5,16.4,50.4,24.1,16.6-7.3,33.6-14.6,49.4-23.4,26.2-14.7,43.3-31.1,44.6-63V27.7Z"/>
  <path class="st0" d="M136.3,167v37.7h-18.2v-117c2.9-2.1,6.7-3.5,10.1-4.5,15.2-4.4,32.2-2.4,41.1,12,8.4,13.7,8.3,39.5,1.9,54-6.1,14-19.7,21.9-35,17.8ZM136.4,96.9v54.8c0,.7,1.3.9,1.9,1.1,8.3,2.3,13.9-2.6,16.7-10,3.7-10.1,4-34-2.8-42.8-4-5.2-10-5.7-15.8-3.1Z"/>
  <path class="st0" d="M73.2,82.9v59.5c0,.7.5,2.9.7,3.7,2.3,8.2,11,8.2,17.2,4.4v-67.7h17.9v78.1c-4.4,2.8-9.6,4.6-14.7,5.8-22.2,5.1-39.2-2.3-39.3-27v-57h18.2Z"/>
  <path class="st0" d="M224,102.4l-4.9-3.6c-6.9-5.2-23.3-5.8-21.9,6.5.9,7.4,14.7,12.6,20.3,17.3,14.8,12.4,11.7,38.2-7.5,44.2-9.9,3.1-20.4.8-29.3-4v-16.8c3.6,2.9,7.7,5.4,12.2,6.6,8.5,2.1,16.8-.4,15.8-10.6-.7-7.2-10.6-11.3-15.9-14.9-9.1-6.2-13.6-13.4-12.8-24.7,1.4-20.9,29.7-27.3,44.1-15.1v15.3Z"/>
</svg>