<?xml version="1.0" encoding="UTF-8"?>
<svg xmlns="http://www.w3.org/2000/svg" version="1.1" xmlns:cc="http://creativecommons.org/ns#" xmlns:dc="http://purl.org/dc/elements/1.1/" xmlns:inkscape="http://www.inkscape.org/namespaces/inkscape" xmlns:rdf="http://www.w3.org/1999/02/22-rdf-syntax-ns#" xmlns:sodipodi="http://sodipodi.sourceforge.net/DTD/sodipodi-0.dtd" xmlns:svg="http://www.w3.org/2000/svg" viewBox="0 0 320 100">
  <defs>
    <style>
      .cls-1 {
        fill: #fff;
        stroke-width: 0px;
      }
    </style>
  </defs>
  <g id="Layer_1" data-name="Layer 1" inkscape:version="0.91 r13725">
    <sodipodi:namedview id="namedview19" bordercolor="#666666" borderopacity="1" gridtolerance="10" guidetolerance="10" inkscape:current-layer="Layer_1" inkscape:cx="34.690897" inkscape:cy="131.15483" inkscape:pageopacity="0" inkscape:pageshadow="2" inkscape:window-height="705" inkscape:window-maximized="1" inkscape:window-width="1366" inkscape:window-x="-8" inkscape:window-y="-8" inkscape:zoom="0.35355339" objecttolerance="10" pagecolor="#ffffff" showgrid="false"/>
    <g id="g4158">
      <polygon id="polygon9" class="cls-1" points="139.6 98.3 114.7 98.3 130.3 2.3 155.1 2.3 139.6 98.3"/>
      <path id="path11" class="cls-1" d="M229.6,4.6c-4.9-1.9-12.7-4.1-22.3-4.1-24.5,0-41.8,13.1-41.9,31.8-.2,13.8,12.4,21.5,21.8,26.1,9.6,4.7,12.9,7.8,12.9,12,0,6.4-7.8,9.4-14.9,9.4s-15.2-1.5-23.3-5.1l-3.3-1.5-3.5,21.6c5.8,2.7,16.6,5,27.7,5.1,26.1,0,43-12.9,43.2-32.8,0-10.9-6.5-19.3-20.8-26.2-8.7-4.4-14-7.4-14-11.9.1-4.1,4.5-8.3,14.3-8.3,8.1-.2,14,1.7,18.5,3.7l2.2,1,3.4-20.7h0Z" inkscape:connector-curvature="0"/>
      <path id="path13" class="cls-1" d="M262.6,64.3c2-5.5,9.9-26.9,9.9-26.9-.1.2,2-5.6,3.3-9.2l1.7,8.3s4.7,23,5.7,27.8h-20.6ZM293.2,2.3h-19.2c-5.9,0-10.4,1.7-13,8l-36.9,88.1h26.1s4.3-11.9,5.2-14.4h31.9c.7,3.4,3,14.4,3,14.4h23L293.2,2.3h0Z" inkscape:connector-curvature="0"/>
      <path id="path15" class="cls-1" d="M94,2.3l-24.3,65.5-2.7-13.3c-4.5-15.3-18.6-32-34.3-40.3l22.3,84h26.3L120.2,2.3h-26.3Z" inkscape:connector-curvature="0"/>
      <path id="path17" class="cls-1" d="M47.1,2.3H7.1l-.4,1.9c31.2,8,51.8,27.2,60.3,50.3l-8.7-44.1c-1.4-6.1-5.8-7.9-11.2-8.1h0Z" inkscape:connector-curvature="0"/>
    </g>
  </g>
</svg>