<?xml version="1.0" encoding="UTF-8"?>
<svg id="Lager_1" data-name="Lager 1" xmlns="http://www.w3.org/2000/svg" version="1.1" viewBox="0 0 478 126.75">
  <defs>
    <style>
      .cls-1 {
        fill: #ea580c;
        stroke-width: 0px;
      }
    </style>
  </defs>
  <path class="cls-1" d="M37.92,124.99c-5.12,0-10.04-.69-14.74-2.06-4.7-1.37-8.48-3.15-11.34-5.35l5.03-11.17c2.75,1.95,5.99,3.56,9.74,4.81s7.55,1.88,11.4,1.88c2.93,0,5.28-.29,7.09-.87,1.8-.58,3.13-1.39,3.98-2.42.86-1.04,1.28-2.23,1.28-3.57,0-1.71-.67-3.07-2.01-4.07-1.34-1-3.11-1.83-5.3-2.47-2.2-.64-4.62-1.25-7.27-1.83-2.66-.58-5.31-1.3-7.96-2.15-2.66-.86-5.08-1.95-7.28-3.29-2.2-1.34-3.98-3.11-5.35-5.31-1.38-2.19-2.06-5-2.06-8.42,0-3.66.99-7,2.98-10.02,1.98-3.02,4.97-5.43,8.97-7.23,4-1.8,9.01-2.7,15.04-2.7,4.03,0,8,.47,11.9,1.42,3.9.94,7.35,2.37,10.34,4.26l-4.58,11.25c-2.99-1.71-5.98-2.97-8.97-3.8-2.98-.82-5.91-1.24-8.78-1.24s-5.21.34-7.04,1.01c-1.83.67-3.14,1.54-3.94,2.61-.79,1.07-1.19,2.31-1.19,3.7,0,1.65.67,2.98,2.01,3.98,1.34,1,3.11,1.81,5.31,2.42,2.19.61,4.62,1.22,7.28,1.83,2.65.61,5.3,1.31,7.96,2.11,2.65.79,5.08,1.85,7.27,3.2,2.2,1.34,3.98,3.11,5.35,5.3,1.37,2.2,2.05,4.98,2.05,8.33,0,3.6-1.01,6.89-3.02,9.88-2.01,2.99-5.01,5.4-9.01,7.23-3.99,1.83-9.04,2.75-15.14,2.75"/>
  <polygon class="cls-1" points="77.53 123.89 77.53 59.84 89.8 59.84 117.07 105.04 110.57 105.04 137.38 59.84 149.55 59.84 149.73 123.89 135.83 123.89 135.73 81.16 138.29 81.16 116.88 117.12 110.21 117.12 88.34 81.16 91.45 81.16 91.45 123.89 77.53 123.89"/>
  <path class="cls-1" d="M198.23,112.36c2.86,0,5.5-.49,7.91-1.46,2.41-.98,4.53-2.38,6.36-4.21,1.83-1.83,3.25-4,4.26-6.5s1.51-5.27,1.51-8.32-.5-5.83-1.51-8.33c-1.01-2.5-2.41-4.67-4.21-6.5-1.8-1.83-3.92-3.23-6.36-4.21-2.44-.98-5.09-1.46-7.96-1.46s-5.5.49-7.91,1.46c-2.41.97-4.53,2.38-6.36,4.21-1.83,1.83-3.25,4-4.25,6.5-1.01,2.5-1.52,5.28-1.52,8.33s.5,5.75,1.52,8.28c1,2.53,2.41,4.71,4.21,6.54,1.8,1.83,3.92,3.23,6.36,4.21,2.44.97,5.09,1.46,7.96,1.46M198.32,124.99c-5.06,0-9.74-.82-14.04-2.47-4.3-1.65-8.03-3.97-11.17-6.96-3.14-2.98-5.58-6.49-7.32-10.52-1.74-4.02-2.61-8.41-2.61-13.17s.87-9.15,2.61-13.18c1.74-4.02,4.2-7.53,7.36-10.52,3.18-2.99,6.9-5.31,11.17-6.95,4.27-1.65,8.91-2.48,13.91-2.48s9.72.82,13.96,2.48c4.23,1.64,7.92,3.96,11.07,6.95,3.14,2.99,5.59,6.48,7.36,10.48,1.77,4,2.66,8.4,2.66,13.22s-.88,9.16-2.66,13.21c-1.77,4.06-4.22,7.57-7.36,10.52-3.15,2.96-6.84,5.26-11.07,6.91-4.24,1.64-8.86,2.47-13.87,2.47"/>
  <path class="cls-1" d="M290.55,123.89l-22.79-27.91,9.7-10.52,30.38,38.43h-17.3ZM246.72,123.89V59.84h14.73v64.05h-14.73ZM259.99,109.25l-.82-17.11,30.65-32.3h16.47l-27.63,29.74-8.23,8.78-10.43,10.89Z"/>
  <rect class="cls-1" x="316.72" y="59.84" width="14.82" height="64.05"/>
  <path class="cls-1" d="M362.75,100.56v-11.89h30.74v11.89h-30.74ZM349.02,123.89V59.84h48.4v11.9h-33.58v52.15h-14.82Z"/>
  <polygon class="cls-1" points="425.7 123.89 425.7 97.72 429.08 106.69 400.9 59.84 416.63 59.84 438.23 95.8 429.17 95.8 450.85 59.84 465.41 59.84 437.22 106.69 440.52 97.72 440.52 123.89 425.7 123.89"/>
  <path class="cls-1" d="M314.11,19.47c-2.59,3.82,2.59,12.35,10.35,9.18,7.76-3.23,7.88,3.47,5.76,6.11-3.76,4.76-2.65,10.18-2.65,10.18,0,0,1.47-5.35,7.35-10.59,8.05-7.24.47-18.23-8.88-13.76-7.29,3.47-7.82,1.18-7.88-.65-.06-1.82,2.94-6.12,2.94-6.12,0,0-4.47,1.82-7,5.64"/>
  <path class="cls-1" d="M324.76,45.06c-4.29-5.06.82-12.11.82-12.11,0,0-7.64,2.06-8.05,6.82-.41,4.76,2.05,5.18,3.88,7.76,1.82,2.65.59,6.35.59,6.35,0,0,6.17-4.76,2.76-8.82M319.58,6.77c2.77,2.53,5.77.47,6.94,1.71,2.88,2.76-3.88,9.58-3.88,9.58,0,0,10.17-3.29,8.94-10.12-.77-4.17-4.47-4.76-8.29-3.76-5.12,1.35-4.7-3.18-4.7-3.18,0,0-1.88,3.06,1,5.76"/>
</svg>