<svg xmlns="http://www.w3.org/2000/svg" viewBox="0 0 1587.2 382.5"><defs><style>.st0{fill:#ea580c}</style></defs><g id="Lager_1"><path d="M30.7 256.3c-.2-1.7-.7-3.2-.9-4.9l11.9-5.1c-.7 4.6 2.5 7.7 4 11 21.9 47.7 50.9 80.5 104 93l1 1c.6.1 1.4-.1 2 0 1.4 2.7 5.6 1.4 7.1 2.4s0 6.5 3.6 7.4 11.3-5.3 14.3-6.9c3 0 6 .1 9 0l5 3.5-5 3.5h-1l-9 1c-.6 2.4.8 1.6 2.1 2.6l-1.1 7.4c-50.6-2.4-98-29.5-126.2-71.3-8.1-12-18.7-30.5-20.8-44.7ZM105.7 58.3c56.7-35.7 130.5-36.1 182 9.5 3.4 3 7.1 6.6 9.5 10.5-29.5-22.3-65.7-36.5-103-37l-12.5 2c22.3.5 44.1 8.1 62.9 19.6s9.6 5.8 12.6 8.4c1.2 1.1 2.9 2 2.5 4-9.5-6.7-21.9-11.9-33.2-15.3-27.2-8.1-53.4-8.9-80.8-1.2-7.5 2.1-14.5 5.6-22 7.5l-1 1h-1c-3.7-.1-14.8-5-16-9M324.7 226.3c4.1-5.7 8.2-11.4 12.5-17l3.3 8.7c0 2 1.3 1.3 1.7.3 1-2.6 2.8-15.5 3.5-16l11 9-5-21 10-.5-6-9.5 20-5-20-12.5 13.2-13.2c3.2-1.9 2.9-2.3 5-3 5-1.6 39.2-17.2 44.5-17-3.8 4.3-40.2 27.9-44.1 31.6s-.9.7-.6 2.1l32 14.5-35 8.5c-2 2.1 12.7 18.9 15 21.5l-20-4.5 9 42-19.5-24c-1.8 0-4.7 15.4-4.5 18-3.2-3.4-4-9.6-5.5-14l-13.5 18 1.5-17c-12.9 17.4-27 34-40.5 51l-1-1c10.5-15.9 18.1-33.8 28-50l1 5c2.1-.8 3.2-3.8 4-5M298.7 191.3l-3.5-9-6 3-1.1-2.1c-10.6 4.2-20.6 11.9-32.4 13.1l2.5-6c-5.4 1.8-14.1 10-19 11-5 1 4.7-6.4 0-6L208 213.1l-2.3.2c-.3-.2 4.1-7.8.5-6l-11 13 3.5-14-6.7 9.8-9.3 2.2c1.5-2.6 2.5-5.8 2.8-8.7s1-2.6-1.3-2.2c-3.3 3.6-5.1 8.8-10.5 10l9-17.5-12 6.5 8-11.5-12 3.5 8-7.5c1.1-2.3-7-2.2-8-2.5-2.3-1.9 5.7-3 6.1-4.7l-4.1-10.3 35 8c.8 3-2.4 2.1-4.5 2-6.1-.4-13.5-2.6-19.5-4-1.1 3.8 1.6 8.9 5 10.5s5.7-.3 7.6 4.6c16.1-5.7 32.8-8.8 49.4-12.5s27.8-5 42.2-7.8 10.8-4.4 13.1-3.7c3.5 1.1 1.8 17.3 1.6 20.9Zm-8-10h-2v1h2zm-48.5 12v1c.6-.3.6-.7 0-1m-34 12v1c.6-.3.6-.7 0-1" class="st0"/><path d="M121.7 67.3c-6.2 4.5-13 7.8-19.3 12.2-39.6 27.2-55.5 63-64.7 108.8l-1-7h-5.4c-.6 6.7-5.1 5-6.5 6.2s.9 3.6-2.1 2.8c5.4-55.3 36.6-102.8 83-132 1.2 4 12.3 8.9 16 9M110.7 145.3c-4.1-6.3 0-5.8 1.5-9s.1-4.5 1.5-5.5c3.9-2.8 14.4 0 19.1-.5.9-.9-6.2-23.4 2-25l-2-1.5c1.7-1.9 4.2-2.3 6.2-3.5s.7-1.5 1.5-1.9c11.1-5 19.9 1.3 30.2 4.4l-1 3.5 4.9 2.6c-1 3.5-3.2 6.4-6.9 4.9l1 9-3.1 1 3 9.5-2.8.2-3.2 8.8c5.5.4 10.9.7 15.5 4 7 5.1 14.1 11.1 22.5 14 1.1 2.5.9 4-1 6l-15 1 4-5-15 2 2-5c-3.1.2-4.6-2-6.5-4-1.9 2.5-1.9 5.6-2.5 8.5s.7 1.7-2 1.5c-1-4.6-3.5-9.3-1-14l-16.5-2-.5-2h2c-1.2-5.9-1.8-.2-2 0-.5.5-9.9 5.8-11.7 6.8-7.1 4-13.7 4.2-19.3-2.8s-1.9-2.8-2-5c1.9 1.1 2.2 3 3.5 4 5.2 3.8 9 5.8 15.4 2.4l18.1-12.9c-1.4-2.7-29.7-9-33-3l1.9 2.1 10.1 3.4-16 1v3c-.5-.3-2.2-.3-3-1Zm37-25c-3.1-.7-2.3 4-3.3 6.2-2.4 5.3-6.2 3.1-10.7 4.3l19 6.5c-1.3-2.5-1.3-5.8-2.1-8.2s-5-4.2-2.9-8.7Zm7 22h-2v1h2zm-3 1h-2v2h2zM323.7 126.3c-1.6-10.1-3.2-20.2-6-30 2.1-.5 2.3 1.1 3.2 2.3 4.3 6 7.2 13.8 13.3 18.7l19.5-49v51c1.6.3 2.3-.2 3.5-1 5.6-3.6 12.1-13.8 18-18l-6.5 29 45-18c-10.7 8.5-22.3 17.1-34.1 24.4-6.5 4-16.3 10.5-23.5 12.6s-1.5-1.8-1.2-3.2c1.4-6.7 5.5-13.9 6.8-20.7l-10.1 10.3-2.9.7 1-34-12 28.4-1 5.6c-2.3.5-1.6-.3-2.2-1.3-1-1.6-4.1-9.7-5.8-9.7-1.5 0-1.5 2.9 0 3 0 2.6.2 5.5 0 8h-3c-.1-.8-.7-2.5-1-4l-1-5ZM236.7 216.3c-.3 1.3-1.6 2.1-2.7 2.8-11.4 7.8-26.5 13.7-38.4 20.9-3.6 9.5-5.9 19.6-8.3 29.5s-2.9 20.3-5.9 28.1c-1.6 4.3-5.7 9-7.7 13.3s-6.4 18.1-9.3 22.7-1.9 3-3.8 2.6l-2-6.5-9-7 8-5-2-2c4.8-9.4 11.7-17.5 19-25-11.9.2-7.3-.2-3.2-7.2s5-8.1 6.2-12.3l-6.5 6-3.5.5 21-33-6.5.5-.5-2c12.5-3.8 23-12.1 34.3-18.2s13.8-7.8 20.7-8.8Zm-58.5 53v1c.6-.3.6-.7 0-1M197.7 361.3c-2.8-.4-8-.2-11 0l5-3.5-5-3.5c37.5-1.5 73.2-19 100.5-44s15.7-16.9 16.5-16l-11 15.5c-24.5 26.9-59.2 45-95 51.5" class="st0"/><path d="M22.7 214.3c.3-6.1.5-13.2 1-19.5s-.8-2.9 1.5-2.5c2.2 3.9 2.1 5.9 7.5 5l-1.9 10.3c2.7 3.5 4.5 3.1 5.9 7.7 2.1 7.5 2.4 17.2 4.3 25.2s3.8 11 4.7 16.8c-1.5-3.3-4.7-6.4-4-11l-11.9 5.1c.2 1.6.7 3.2.9 4.9-2.1-.6-1.8-2.6-2.3-4.2-2.6-8.1-4.2-16.3-4.7-24.8s.9-7-1-9zM108.7 179.3c1.7 6.7 6.2 14.6 10.2 20.3s10.3 10.3 12.7 14.3 4.2 16.4 6.6 19.4 11.7-1.5 15.5-1l-8 4.5c3.3 7.5 6.2 16.7 16 16.5.9 4.5-7.6.5-8 1l5 33c-2.9.3-3.6-3.2-4.3-5.2-2.6-7.8-2.4-17.1-4.1-24.9s-7-12.6-6.6-19.9l-8.5-1c-2.2-4.7-2.7-12.6-5.1-16.9s-8-8.5-10.7-12.3c-4.2-6.1-7.1-12.9-10.8-19.3l-17 5.1c-2.5 4.5-4.6 11.1-11 10.5l.7-3c4.1-.7 8.3-5.9 6.3-10l20-5c.9-1-3.3-7 1-6ZM326.7 143.3c-.2.4.3 1.3 0 1.9-2.6 2.1-13.5-4.8-16.9-5.4l10 14.5h-14l6 4-.5 2-26.5-7c.8-2.5 5.5 0 7.5 0 6.3.1 12.4-2.4 18.5-1l-22.5-32 25 14c.1-3.9-3.2-8-4.3-11.7s-.6-3.1 1.3-2.3 11.4 17.1 14.5 21 .9 1.7 2 2ZM206.7 160.3c-.7-2.5 3.6-2.7 5.3-3.2s2.9-1.1 4.7-.8c-1-4.2-8 0-9-1 0-3.8-.7-7 2-10-2.4 1.2-9.8-4-10.5-4s-2.1 2.2-1.5 3l5 2.5c0 3.5-5.3.5-6.5-.5-8.1-6.6 4.8-22.2 14.9-11.9 3.6 3.6 2.6 6.4 4.1 9.9 2.6 6.1 6.3 10.6 8.8 15.2s4.1 17.5-3.2 20.7c5-9.5-.5-20.9-12-19 0 0-1.9-1-2-1ZM113.7 146.3c.1 2.2.6 3.3 2 5-10.3 2.2-10.8 7.4-10 17l-2.2-1.3-2.3-5.7c-2.6 2.7-3.9 6.2-3.5 10-6.1-3.1-8.6 3.1-13 6.5l4 3.5-10.1.4-.9 10.6-2.9-3.4-2-.6c-.6 2-1.8 3.9-2.8 5.8s-.3 4.1-2.2 2.2c-3.2-3.1 2.4-9.8 3.9-12.6s.9-4.2 2.1-5.9 9.9-7.8 12.6-10.4c8.5-8.2 11.7-14.9 22.9-20.2.7-.4 1.3-1.1 1.6-1.8.8.7 2.5.7 3 1ZM319.7 226.3l3.5-13c-7.2 10.2-16.8 18.4-26.5 26l21-28c-4-3-22.6 12.7-28 10.5l32.5-22.5c1.9 2.7-8.4 8.3-6.5 10l14-5c-1.3 5.9-3.4 11.6-5 17.5s-2 3.6 0 4.5c-.8 1.2-1.9 4.2-4 5zM323.6 167.3c2.9 3.3 3.4 6.6 3 11-1 .3-.8 1.2-1 2-.5.2-2.2-.5-2.8.2s.2 2.6-1.9 3.7c-4.4 2.4-16 2.6-21.3 5.2-2.3-1.9 6.3-3.9 7-4l-6-1v-12l23-5Z" class="st0"/><path d="m344.4 158.6-1.7 2.6c-.4 2.9-2.4 4-3 7-3.6 7.7-4.9 12.6-13.5 16.5-2.3.8-.7-3.2-.5-4 .5-.2.7-.7 1-1 3.8-3.2 2.6-12.2-3-13l.2-1.8c7.2-1.4 11.4-19 15.5-20.1 5.2-1.4 6.3 7.6 6.4 11.4s-1.2 1.1-1.4 2.4m-.7-6.9h-2l1.5 2zM220.7 359.3c28.2-6.6 43.2-17.5 67-31.5 1.3-.8 2.7-4.2 4.8-3.7 1.4 1.3-9.1 11.2-10.3 12.2-14 11.6-32 22-49.5 27 2.3-1.3 3.6-.6 3-4-5.7-3-10 3.1-15 0M69.7 198.3c3.9 2.9-2.2 14.8-3.5 19s.5 2.7 0 4c-1.1 2.6-7 6.1-5.5 11l3.4-1.1 1.6 2.1v-2h2l1 3 .5-4 4.5 1c.6-3.2-2.4-4.9-2.9-7.5-1.1-5.8 1-12.6 5-16.9s5-4.7 4-1-6 8.9-6.1 14.1 5.8 5.4 3.2 11-5 5.9-5.7 6.3c-3.7 2.4-12.1-1.2-13.9-4.9-2.8-6 3.2-11.1 5.2-15.8s2.5-12.2 4.5-16.5 1.1-2.1 2.7-1.7ZM22.7 190.3c3.1.8 1.5-2.3 2.1-2.8 1.4-1.2 5.9.5 6.5-6.2h5.4l1 7.1c-.3 1.7-.7 2.7-1 4-.4 1.8-2.6 4.9 0 7v16c-1.3-4.6-3.1-4.2-5.9-7.7l1.9-10.3c-5.4.9-5.3-1.1-7.5-5-2.3-.4-1.4 1-1.5 2.5-.5 6.3-.7 13.4-1 19.5-2.2-7.5-.7-16.3 0-24ZM156.7 348.3l-19-6c-1.6-2.3 5.1-7.6 6.6-9.3 2.3-2.7.5-5 7.8-3.6s3.1 9.7 2.8 13.6 2.2 3.2 1.8 5.3M290.7 254.3c1.6 1.5-9.5 12.1-11 13.5-9.5 9-21.4 19-31.5 27.5s-6.1 5.2-9.5 6.5c11.7-10.9 22.2-23.2 34-34s16.4-15.1 18-13.5M343.7 243.3l-7 25.5-9 21.5c-.4-1.5-.9-2.3-.6-4 1.7-8.9 7.7-29.5 11.3-37.8s1.9-6.1 5.3-5.2M297.7 194.3c.6 4.4-1.1 4.8-4.5 6-9.3 3.5-24.7 7.7-34.5 9.5-2.4.4-7.2 1.8-9 0 8.4-3.2 17.3-5.6 26-8 5.1-1.4 12.4-2 17-4s2-3.8 5-3.5M309.7 112.3l-5 .6-21-28.5c2-.4 2.7.4 4 1.4 2 1.5 20.8 22 21.4 23.6s.8 1.8.5 2.9ZM217.7 360.3l-3.1 1.6v3.4c2.2 0 5.2-.6 6.1 2-5.3 1.4-8.5 2.1-14 3-.5-8.8-12-5.4-18-6l3 8c-4.5.2-9.6.2-14 0l1.1-7.4c-1.3-1-2.6-.2-2.1-2.6l9-1-7 2c6.4.8 13.1.6 19.6 0s3.6-.4 3.8-.4c5.6-.6 10.2-1.4 15.6-2.6" class="st0"/><path d="M206.7 370.3c-3 .5-5 .7-8 1l-4 1h-3l-3-8c6 .6 17.5-2.8 18 6M220.7 359.3c5 3.1 9.3-3 15 0 .6 3.4-.6 3.1-3 4.2s-3.9 1-6 1.8l-1.9.7c-.3.1-.8.2-1.1.3l-1.1.4c-.6.2-1.3.4-1.9.6-.8-2.6-3.8-2-6-2v-3.4l3-1.6c.8-.2 1.9-.7 3-1M283.7 123.3l-33-26c10.5 3.2 19.2 12.2 29 17.5zM177.7 354.3c-3 1.6-11.5 7.5-14.3 6.9s-2-6.2-3.6-7.4-5.7.2-7.1-2.4c7.9 1.6 16.9 2.8 25 3ZM155.7 289.3v4l2.5-1 .5 2c-9.8 4.2-9.1 17.6-13.5 26-3.7-3 .3-3 .3-3.4 0-11.8 3.3-15.8 7.4-25.8.6-1.4 1.2-2 2.8-1.7ZM206.7 160.3c.1 0 1.9.9 2 1 .9.6 4.8 6.2 4 7-3.9-.6-7.1-1.1-10-4l-.5 5-2.5-3c1.9-2 2.1-3.5 1-6 1.3.4 4.3-.3 6 0M292.7 277.3c-1.5 1.9-3.2 5.2-5 7.5s-3.4 5.3-6 5.5c-.7-.7 6.5-10.4 7.6-12s2.2-1.7 2.4-2zM328.7 135.3c-.3 3-.8 5.2-2 8-1.1-.3-1.4-1.2-2-2 1.5-.9 1.2-4.4 1-6zM23.7 227.3c-1.7-1.9-1.1-6.3-1-9 1.9 2 .9 6.1 1 9M36.7 199.3c-2.6-2.1-.4-5.2 0-7zM324.7 131.3c-.3-1.5-.7-3.1-1-5z" class="st0"/><path d="M198.7 371.3c-.2 0-2 .9-4 1zM328.7 127.3c-1.5 0-1.5-2.9 0-3zM150.7 351.3l-1-1c.5.1.9 1 1 1M122.7 67.3l1-1s-.3.9-1 1M389.9 288.3c-1.2.7-3.3 2.9-1 2.5 80-13.9 528.5-35.3 1126.3-39 2 0 38.6-10.1 38.4-10.2-82.1-13.8-650.7-4.6-1107.5 11l-31.6 17.8" class="st0"/></g><g id="Lager_2"><path d="M451.5 228c-6 0-11.7-.4-17.3-1.3-5.5-.9-10.5-2.1-15-3.7s-8.4-3.4-11.7-5.3l13.2-25.2c3.8 2.1 7.6 3.9 11.4 5.3s7.6 2.4 11.5 3.1c3.8.7 7.6 1 11.4 1s5.5-.2 7.5-.7q3-.75 4.5-2.1c1-.9 1.5-2 1.5-3.1s-.9-2.8-2.6-3.8-4-1.8-6.9-2.6-6-1.6-9.4-2.4-6.9-1.9-10.4-3.2-6.6-3-9.5-5-5.1-4.6-6.9-7.7c-1.7-3.1-2.6-6.9-2.6-11.3 0-7.7 2.1-14.5 6.2-20.2s10-10.1 17.7-13.3c7.7-3.1 16.8-4.7 27.5-4.7s14.6.7 21.1 2.2 12.2 3.6 16.9 6.5l-12.3 24.9c-4.1-2.5-8.5-4.4-13.3-5.7s-9.6-1.9-14.6-1.9-6 .3-8.3.9c-2.2.6-3.9 1.5-5 2.5-1.1 1.1-1.7 2.2-1.7 3.3s.9 2.8 2.6 3.8 4.1 1.9 7 2.6 6.1 1.5 9.5 2.3 6.9 1.8 10.3 3 6.6 2.8 9.5 4.8 5.2 4.5 7 7.5c1.7 3 2.6 6.8 2.6 11.2 0 7.5-2.1 14.1-6.2 19.8-4.2 5.7-10.1 10.1-17.8 13.3q-11.55 4.8-27.3 4.8ZM506.4 225.6l20.3-101.5h27.8l27.1 66.3h-14.8l52.2-66.3h29.1l-20 101.5h-31.2l10.6-54.5 4.9-.3-35.1 45.7h-15.1l-19.7-45.8 5.8.4-10.9 54.5h-31.2ZM701.9 228c-10.5 0-19.6-1.9-27.3-5.8s-13.6-9.2-17.8-16-6.3-14.7-6.3-23.6 1.6-17.2 4.7-24.6 7.6-13.8 13.3-19.2 12.5-9.6 20.3-12.5 16.4-4.4 25.7-4.4 19.6 1.9 27.3 5.8 13.6 9.2 17.8 16 6.3 14.7 6.3 23.6-1.6 17.2-4.7 24.6-7.6 13.8-13.3 19.2-12.5 9.6-20.3 12.5-16.4 4.4-25.7 4.4m2.9-27.7c4.3 0 8-.8 11.2-2.5 3.2-1.6 6-3.9 8.3-6.8s4.1-6.2 5.2-9.9c1.2-3.7 1.7-7.7 1.7-11.8s-.8-7.4-2.4-10.4c-1.6-2.9-3.9-5.2-6.8-6.9-2.9-1.6-6.5-2.5-10.7-2.5s-7.9.8-11.2 2.5c-3.3 1.6-6.1 3.9-8.4 6.8s-4.1 6.2-5.2 9.9c-1.2 3.7-1.7 7.7-1.7 11.8s.8 7.3 2.4 10.3 3.9 5.3 6.8 7c2.9 1.6 6.5 2.5 10.7 2.5ZM767.7 225.6 788 124.1h33.6l-20.3 101.5zm34.9-20.8 5.1-38.4 45.2-42.2h39.3l-52.1 47.3-23.2 20-14.4 13.3Zm33.7 20.8-24.5-39.4 25.4-22.9 37.3 62.4h-38.1ZM917.3 199.8h50.9l-5.2 25.8h-84.4l20.3-101.5h82.5l-5.2 25.8h-48.9zm5.4-38h45.2l-4.9 24.6h-45.2zM976.2 225.6l20.3-101.5h33.6l-20.3 101.5zm34.9-20.8 5.1-38.4 45.2-42.2h39.3l-52.1 47.3-23.2 20-14.4 13.3Zm33.7 20.8-24.5-39.4 25.4-22.9 37.3 62.4h-38.1ZM1087.1 225.6l20.3-101.5h34.2l-20.3 101.5zM1195.6 228c-10.4 0-19.6-1.9-27.4-5.7s-13.9-9.1-18.2-15.9-6.5-14.7-6.5-23.7 1.6-17.1 4.7-24.5 7.6-13.9 13.3-19.3 12.5-9.6 20.3-12.5 16.4-4.4 25.8-4.4 18.4 1.7 26 5.2 13.1 8.5 16.8 15.1l-24.6 19.3c-2.1-3.8-4.9-6.7-8.3-8.8s-7.4-3.1-12-3.1-7.8.8-11.1 2.2c-3.3 1.5-6.2 3.6-8.6 6.4s-4.3 6-5.7 9.8-2 7.9-2 12.5.9 7.4 2.6 10.4 4.2 5.3 7.3 7c3.1 1.6 6.8 2.5 10.9 2.5s7.9-.9 11.7-2.8c3.8-1.8 7.5-4.8 10.9-9l20.2 19.3c-6.2 7.5-13.1 12.8-20.7 15.7s-16.1 4.4-25.4 4.4ZM1245.8 225.6l20.3-101.5h33.6l-20.3 101.5zm34.9-20.8 5.1-38.4 45.2-42.2h39.3l-52.1 47.3-23.2 20-14.4 13.3Zm33.6 20.8-24.5-39.4 25.4-22.9 37.3 62.4h-38.1ZM1395.4 199.8h50.9l-5.2 25.8h-84.4l20.3-101.5h82.5l-5.2 25.8h-48.9zm5.4-38h45.2l-4.9 24.6h-45.2zM1454.3 225.6l20.3-101.5h45.5c13.4 0 23.8 2.9 31.2 8.8 7.3 5.9 11 14 11 24.6s-2.1 15.9-6.3 22.3-10.2 11.4-17.8 14.9c-7.7 3.6-16.7 5.4-27.2 5.4h-32.8l18.3-14.4-8 39.9zm41.3-35.8-12-15.5h29.1c4.7 0 8.4-1.2 11-3.6q3.9-3.6 3.9-9.9c0-6.3-1.1-6.3-3.4-7.9s-5.4-2.4-9.4-2.4h-26.5l18.3-16-11 55.2Zm20.7 35.8-20.9-37h35.2l21.2 37z" class="st0"/></g></svg>