<svg xmlns="http://www.w3.org/2000/svg" version="1.1" xmlns:xlink="http://www.w3.org/1999/xlink" width="500" height="169" viewBox="0 0 500 169"><svg xml:space="preserve" width="500" height="169" data-version="2" data-id="lg_1q1ubV2PYmkihKGOe7" viewBox="0 0 618 169" x="0" y="0">
    <rect width="100%" height="100%" fill="transparent"></rect>
    <path fill="#000000" d="M40.895 166.654q-10.25 0-19.65-2.75-9.39-2.74-15.12-7.13l6.71-14.89q5.49 3.91 12.99 6.41t15.19 2.5q5.85 0 9.45-1.16 3.6-1.16 5.31-3.23 1.71-2.08 1.71-4.76 0-3.42-2.69-5.43-2.68-2.01-7.07-3.29-4.39-1.28-9.7-2.44t-10.61-2.87q-5.31-1.71-9.7-4.39-4.4-2.69-7.14-7.08-2.75-4.39-2.75-11.22 0-7.32 3.97-13.36 3.96-6.04 11.96-9.64 7.99-3.6 20.06-3.6 8.06 0 15.86 1.89 7.81 1.89 13.79 5.68l-6.1 15q-5.98-3.41-11.96-5.06-5.97-1.65-11.71-1.65-5.73 0-9.39 1.34-3.66 1.35-5.25 3.48-1.58 2.14-1.58 4.94 0 3.3 2.68 5.31t7.08 3.23q4.39 1.22 9.7 2.44 5.3 1.22 10.61 2.81 5.31 1.58 9.7 4.27 4.39 2.68 7.14 7.07 2.74 4.4 2.74 11.11 0 7.19-4.03 13.17-4.02 5.98-12.01 9.64t-20.19 3.66" paint-order="stroke"></path>
    <rect width="71" height="88.33" x="-35.5" y="-44.16" fill="none" rx="0" ry="0" transform="translate(42.13 122.99)"></rect>
    <path fill="#000000" d="M93.715 165.194v-85.4h16.35l36.36 60.26h-8.67l35.75-60.26h16.23l.24 85.4h-18.54l-.13-56.98h3.42l-28.55 47.95h-8.9l-29.16-47.95h4.15v56.98Z" paint-order="stroke"></path>
    <rect width="96.26" height="85.4" x="-48.13" y="-42.7" fill="none" rx="0" ry="0" transform="translate(142.34 123)"></rect>
    <path fill="#000000" d="M254.755 166.654q-10.12 0-18.72-3.29-8.61-3.3-14.89-9.28-6.28-5.97-9.76-14.03-3.48-8.05-3.48-17.56 0-9.52 3.48-17.57t9.82-14.03q6.35-5.98 14.89-9.27 8.54-3.3 18.54-3.3 10.13 0 18.61 3.3 8.47 3.29 14.76 9.27 6.28 5.98 9.82 13.97t3.54 17.63q0 9.51-3.54 17.62-3.54 8.12-9.82 14.03-6.29 5.92-14.76 9.22-8.48 3.29-18.49 3.29m-.12-16.84q5.73 0 10.55-1.95t8.48-5.61q3.66-3.66 5.68-8.66 2.01-5 2.01-11.1t-2.01-11.11q-2.02-5-5.62-8.66t-8.48-5.61q-4.88-1.95-10.61-1.95-5.73 0-10.55 1.95t-8.48 5.61q-3.66 3.66-5.67 8.66-2.02 5.01-2.02 11.11 0 5.97 2.02 11.04 2.01 5.06 5.61 8.72 3.6 3.66 8.48 5.61 4.88 1.95 10.61 1.95" paint-order="stroke"></path>
    <rect width="93.46" height="88.33" x="-46.73" y="-44.16" fill="none" rx="0" ry="0" transform="translate(255.13 122.99)"></rect>
    <path fill="#000000" d="m336.985 145.674-1.1-22.82 40.87-43.06h21.96l-36.84 39.65-10.98 11.71Zm-17.69 19.52v-85.4h19.64v85.4Zm58.44 0-30.38-37.21 12.93-14.03 40.51 51.24Z" paint-order="stroke"></path>
    <rect width="81.5" height="85.4" x="-40.75" y="-42.7" fill="none" rx="0" ry="0" transform="translate(360.55 123)"></rect>
    <path fill="#000000" d="M412.625 165.194v-85.4h19.76v85.4Z" paint-order="stroke"></path>
    <rect width="19.76" height="85.4" x="-9.88" y="-42.7" fill="none" rx="0" ry="0" transform="translate(423 123)"></rect>
    <path fill="#000000" d="M455.695 165.194v-85.4h64.53v15.86h-44.77v69.54Zm18.3-31.11v-15.86h40.99v15.86Z" paint-order="stroke"></path>
    <rect width="64.53" height="85.4" x="-32.27" y="-42.7" fill="none" rx="0" ry="0" transform="translate(488.46 123)"></rect>
    <path fill="#000000" d="M557.925 165.194v-34.9l4.52 11.96-37.58-62.46h20.98l28.8 47.94h-12.08l28.91-47.94h19.4l-37.58 62.46 4.4-11.96v34.9Z" paint-order="stroke"></path>
    <rect width="86.01" height="85.4" x="-43.01" y="-42.7" fill="none" rx="0" ry="0" transform="translate(568.37 123)"></rect>
    <path fill="#000000" d="M409.153 25.964c-3.45 5.097 3.45 16.466 13.8 12.232 10.35-4.312 10.507 4.626 7.684 8.155-5.018 6.351-3.528 13.565-3.528 13.565s1.96-7.136 9.801-14.114c10.742-9.644.627-24.307-11.84-18.348-9.723 4.626-10.428 1.568-10.507-.862-.078-2.431 3.92-8.155 3.92-8.155s-5.958 2.43-9.33 7.527"></path>
    <path fill="#000000" d="M416.445 9.028c3.685 3.371 7.684.627 9.253 2.274 3.842 3.685-5.176 12.78-5.176 12.78s13.565-4.39 11.919-13.486c-1.02-5.567-5.96-6.351-11.056-5.018-6.822 1.803-6.273-4.235-6.273-4.235s-2.509 4.078 1.333 7.685m6.9 51.045c-5.724-6.744 1.098-16.153 1.098-16.153s-10.193 2.744-10.742 9.096c-.55 6.35 2.744 6.9 5.175 10.35 2.43 3.528.784 8.468.784 8.468s8.233-6.351 3.685-11.761"></path>
  </svg></svg>