<svg id="Layer_1" viewBox="0 0 128 128" xmlns="http://www.w3.org/2000/svg" data-name="Layer 1">
  <defs>
    <style>
      .cls-1 {
        fill: #fff;
        stroke-width: 0px;
      }
    </style>
  </defs>
  <path class="cls-1" d="m102.68732 104.33585a5.93725 5.93725 0 0 0 -8.27992-1.05566l-9.80718 7.5078a4.145 4.145 0 0 0 -.73045 5.7588l2.581 3.28754-2.07223 1.60894a2.0514 2.0514 0 0 0 1.16605 3.56925 1.99652 1.99652 0 0 0 1.287-.40909l2.08969-1.62244 2.73432 3.48279a4.13494 4.13494 0 0 0 5.77612.64746l9.14512-7.42187a6.02762 6.02762 0 0 0 1.30463-8.2959zm1.414 12.21289-9.24765 7.47363c-.03223-.00293-7.83756-9.94629-7.83756-9.94629l.01465-.11133 9.80816-7.50878a1.886 1.886 0 0 1 2.62588.25l5.19509 7.05859a2.02876 2.02876 0 0 1 -.55857 2.78418z" />

  <path class="cls-1" d="m119.0333 81.59327c-5.81616-7.5752-13.8705-9.04-21.61724-3.86523l-50.14239 36.79496a23.67927 23.67927 0 0 1 -32.62267-4.543 22.16 22.16 0 0 1 -4.42462-16.74121 22.45619 22.45619 0 0 1 9.065-15.02539l16.90245-12.40279-2.4977-3.12872-16.77174 12.30688a26.42584 26.42584 0 0 0 -10.65775 17.68555 26.13639 26.13639 0 0 0 5.21657 19.748 27.69893 27.69893 0 0 0 38.15657 5.3252l50.07013-36.7441c7.95669-5.31055 13.53262-.38281 16.15068 3.02539a10.19063 10.19063 0 0 1 2.03507 7.69531 10.37143 10.37143 0 0 1 -4.21759 6.94629l-6.476 5.02838 2.37124 3.22217 6.51382-5.05817a14.30094 14.30094 0 0 0 5.76831-9.57422 14.15543 14.15543 0 0 0 -2.82214-10.6953z" />
    <path class="cls-1" d="m35.55947 58.58121 5.62768 7.04637a7.68329 7.68329 0 0 0 10.71342 1.55177l2.37111-1.822 4.11493 5.39032a7.99581 7.99581 0 0 0 11.11183 1.62793l25.826-18.7085a8.13707 8.13707 0 0 0 2.4648-9.72888l13.349-10.08215a6.83372 6.83372 0 1 0 -8.18617-10.9375l-13.11825 9.90751-8.17763-11.0794 13.0648-9.8056a6.81585 6.81585 0 0 0 1.47853-9.37638 6.79134 6.79134 0 0 0 -9.41568-1.19931l-13.0775 9.8158a7.87059 7.87059 0 0 0 -10.25743-.58972l-25.786 19.67822a8.14579 8.14579 0 0 0 -1.56536 11.28076l3.29692 4.31879-2.36629 1.816a7.87763 7.87763 0 0 0 -1.46871 10.89597zm69.80267-32.47021a2.83785 2.83785 0 1 1 3.36607 4.55322l-13.15621 9.93615-3.36265-4.55585zm-16.17704-21.54639a2.77746 2.77746 0 0 1 3.81524.40084 2.76458 2.76458 0 0 1 -.68061 3.7764l-13.03881 9.78675-3.10186-4.20251zm-49.09653 28.88476 25.786-19.67822a3.93673 3.93673 0 0 1 5.51832.80615l22.29787 30.21a4.113 4.113 0 0 1 -.75192 5.67041l-25.826 18.708a3.96764 3.96764 0 0 1 -5.51834-.80663l-.01953-.02637-22.27836-29.18314a4.122 4.122 0 0 1 .79196-5.7002zm-.625 17.40918 2.35805-1.80988 10.02279 13.12916-2.38026 1.82917a3.60955 3.60955 0 0 1 -5.10135-.81006l-5.62769-7.04687a3.83916 3.83916 0 0 1 .72849-5.29152z" />

</svg>