<svg id="Layer_1" enable-background="new 0 0 100 100" viewBox="0 0 100 100" xmlns="http://www.w3.org/2000/svg"><g><path d="m49.7085609 68.9314041h-2.4149208c-1.8723373 0-3.395134 1.5227966-3.395134 3.395134v5.8512878h-38.0033736c-1.8723369 0-3.3951333 1.5227966-3.3951333 3.395134v2.4092941c0 1.8723373 1.5227964 3.395134 3.3951333 3.395134h38.0089965v5.8512878c0 1.8723373 1.5227966 3.395134 3.395134 3.395134h2.4092979c1.8723373 0 3.395134-1.5227966 3.395134-3.395134v-20.9021377c0-1.8723374-1.5227966-3.395134-3.395134-3.395134z"/><path d="m5.8951325 21.822176h11.9077988l.0028114 5.8512878c0 1.8723354 1.5227966 3.3951321 3.395134 3.3951321h2.4092979c1.8723354 0 3.3951321-1.5227966 3.3951321-3.3951321v-20.9021373c0-1.8723364-1.5227966-3.395133-3.3951321-3.395133h-2.4092979c-1.8723373 0-3.395134 1.5227966-3.395134 3.395133v5.8512864h-11.9106102c-1.8723369 0-3.3951333 1.5227966-3.3951333 3.395133v2.4092979c.0000001 1.8723375 1.5227965 3.3951322 3.3951333 3.3951322z"/><path d="m65.538147 60.4505997v-20.9011994c0-1.8723373-1.5227966-3.395134-3.395134-3.395134h-2.4092979c-1.8723373 0-3.395134 1.5227966-3.395134 3.395134v5.8503494h-50.4434486c-1.8723369 0-3.3951333 1.5227966-3.3951333 3.395134v2.4102325c0 1.8723373 1.5227964 3.395134 3.3951333 3.395134h50.4434471v5.8503494c0 1.8723373 1.5227966 3.395134 3.395134 3.395134h2.4092979c1.8723388 0 3.3951355-1.5227966 3.3951355-3.3951339z"/><path d="m94.104866 12.622613h-56.6658287c-1.8723335 0-3.3951302 1.5227966-3.3951302 3.395133v2.4092979c0 1.8723373 1.5227966 3.3951321 3.3951302 3.3951321h56.6658287c1.8723373 0 3.395134-1.5227947 3.395134-3.3951321v-2.4092979c0-1.8723364-1.5227966-3.395133-3.395134-3.395133z"/><path d="m94.104866 78.1778259h-30.5721245c-1.8723373 0-3.395134 1.5227966-3.395134 3.395134v2.4092941c0 1.8723373 1.5227966 3.395134 3.395134 3.395134h30.5721245c1.8723373 0 3.395134-1.5227966 3.395134-3.395134v-2.4092941c0-1.8723373-1.5227966-3.395134-3.395134-3.395134z"/><path d="m94.104866 45.3997498h-18.1254883c-1.8723373 0-3.395134 1.5227966-3.395134 3.395134v2.4102325c0 1.8723373 1.5227966 3.395134 3.395134 3.395134h18.1254883c1.8723373 0 3.395134-1.5227966 3.395134-3.395134v-2.4102325c0-1.8723374-1.5227966-3.395134-3.395134-3.395134z"/></g></svg>