<?xml version="1.0" encoding="UTF-8"?>
<svg id="Lager_1" data-name="Lager 1" xmlns="http://www.w3.org/2000/svg" version="1.1" viewBox="0 0 822 813">
  <defs>
    <style>
      .cls-1 {
        fill: #fff;
        stroke-width: 0px;
      }
    </style>
  </defs>
  <path class="cls-1" d="M258.6,182.2c0-7.9-.3-15,0-22,.8-13.9,6.5-25.2,20.1-30.1,13.6-4.9,26.9-3.5,37.7,7.4,6.4,6.5,8,15.2,8.6,23.9.5,6.4,0,13,0,19.8h54.3c0-7.1,0-14.1,0-21.1-.2-15.8,11-29.5,26.1-31.9,17.2-2.7,33.4,6.2,38,21.5,1.5,4.9,1.7,10.3,2.1,15.5.3,5.2,0,10.4,0,16.1h53.4c.3-6.7.5-13.5.9-20.3,1.4-23.1,20.2-37.5,42.8-32.8,11.7,2.5,22.7,14.8,23.6,26.8.6,8.8.8,17.7,1.2,27.3,10.3,0,20.5,0,30.8,0,11-.1,21.7,1.5,31.3,7.2,17.5,10.5,26.1,25.5,25.4,46.7-1,27.3,0,54.7-.1,82-.2,82.7-.4,165.5-.8,248.2,0,7.9-1.6,15.8-3,23.6-3.8,22-25.4,37.6-44.8,38.8-22.2,1.4-44.5.9-66.7,1-82.6.3-165.1.6-247.7.7-21.9,0-43.8,0-65.7-.5-26.3-.7-50.3-20.3-54.7-45.1-1.7-9.9-1.6-20.2-1.6-30.3-.1-101-.2-202.1,0-303.1,0-11.2.6-22.5,2.7-33.5,4-21.5,24.2-36,48-35.9,12.5,0,24.9,0,38.1,0ZM192.1,300.7c-.1,2.2-.2,3.3-.2,4.3,0,83.5,0,167,.2,250.5,0,10.8.4,21.6,4.9,31.9,4.7,11,12.9,17.5,24.4,19,8.4,1.1,17,1.3,25.5,1.3,68.8,0,137.6,0,206.5-.2,48.3-.1,96.7-.4,145-.6,13.9,0,26.2-7.8,29.8-20.2,2.5-8.6,4.1-17.7,4.3-26.6.6-22.4.3-44.8.3-67.3,0-54.5,0-109,0-163.5,0-9.7,0-19.4,0-28.7H192.1ZM192.7,277.1h439.8c0-7.8,0-14.7,0-21.6,0-6.9-1.1-13.9,0-20.5,2.3-12.6-11-27.9-22.8-28.5-14-.7-28.1-.2-42.9-.2,0,5.1.3,10.5,0,15.9-1.4,17.7-15.5,29.7-34.1,29.1-19.1-.6-32.5-13.3-32.9-31.2-.1-4.9,0-9.7,0-14.9h-54c0,4.7,0,9.4,0,14.1-.4,17-15.9,32.2-32.7,32.1-19.5-.1-33.6-14-34.3-33.8-.1-4.1,0-8.2,0-12.2h-53.6c0,4.9,0,9.4,0,13.9-.3,18.2-14.1,30.8-34,32.3-16.7,1.3-31.6-15.3-32.3-29.6-.3-5.4,0-10.8,0-16.4-14.4,0-27.9-.6-41.4.2-8.3.5-16.1,3.8-19.8,12.2-2.2,5.1-4.4,10.6-4.6,16-.6,14.4-.2,28.9-.2,43.2ZM544.3,189.7s0,0,.1,0c0-8,0-15.9,0-23.9,0-10.3-3.7-15.5-11-15.5-6.8,0-11.2,5.9-11.2,15.7,0,14.1,0,28.2.2,42.3,0,3.4.2,6.9.6,10.3.8,6.2,4.4,9.8,9.6,9.8,6,.1,10.5-3.8,11.5-10,.2-1.2.2-2.5.2-3.8,0-8.3,0-16.6,0-25ZM302.3,189.2s0,0,0,0c0-4.9.1-9.8,0-14.6-.1-5.1-.4-10.1-.9-15.1-.5-5.2-4.8-9.3-9.5-9.4-4.7-.2-9.8,3.7-10,8.9-.7,19.5-1.1,39-1.2,58.5,0,5.7,5.4,10.6,10.4,10.8,5.1.2,9.6-4,10.7-10.3.3-1.8.4-3.6.4-5.4,0-7.8,0-15.5,0-23.3ZM424.1,187.7c-.7-9.1-.9-19.1-2.5-28.8-.5-3.2-4.2-6.8-7.3-8.2-1.8-.9-6.5,1.4-8,3.5-2.5,3.4-4.6,7.9-4.8,12-.6,12.3-.5,24.6-.2,36.9.2,6.1.9,12.3,2.3,18.2,1.9,7.8,9.5,9.5,14.9,3.6,1.8-2,3.2-5,3.4-7.6,1-9.5,1.4-19.1,2.2-29.6Z"/>
  <path class="cls-1" d="M164,119.6c10.1,10.6,19.9,20.8,29.6,31,1.5,1.6,3,3.2,4.3,4.9,5.3,6.7,3.5,13.2-4.6,16.2-19.1,7.1-38.2,14.2-57.3,21.4-22.3,8.4-44.5,16.9-66.7,25.6-3.7,1.4-6.8.8-8.7-1.9-1.8-2.5-3.7-6.3-3.2-9.1,9.3-42.8,19-85.6,28.7-128.4,1.1-4.7,2.1-9.7,4.3-13.9,1.7-3.1,5.1-6.6,8.3-7.3,2.5-.6,6.5,2.3,8.8,4.6,13,13.3,25.7,27,38.4,40.4,31.5-25.7,64.4-48,101.3-64.3,36.6-16.2,74.7-27.3,114.3-31.9,38.9-4.6,77.8-4.2,116.8,2.4,68.9,11.6,130.6,38.9,185.3,82,50.2,39.6,87.7,89.3,114.9,147,16.9,35.7,27.7,73.3,33.3,112.2,8.7,60.4,2.9,119.7-15.4,177.8-2,6.3-3.7,12.9-6.7,18.8-3.5,6.8-10.6,8-16.6,3.8-4.2-3-5.5-7-4.1-11.9,4.6-16.5,9.8-32.9,13.6-49.5,10.3-44.3,11.9-89.1,5.7-134.2-5.3-38.2-15.6-74.8-32.6-109.5-21.3-43.6-48.6-83-84.4-116.1-52.2-48.2-113.2-79.8-182.7-94.3-32.9-6.9-66.3-7.9-99.9-6.3-46.1,2.3-89.8,13.6-132,31.9-33.1,14.4-63.1,33.6-90.7,56.7-1,.8-1.8,1.7-2.1,1.9ZM85.3,186.8c28.4-10,55.3-19.6,81.7-28.9-20.2-20.3-40.2-40.3-60.3-60.5-7,29.2-14.1,58.6-21.4,89.4Z"/>
  <path class="cls-1" d="M659.3,692.3c-12.1-12.8-23.7-25.1-35.2-37.3-6.9-7.2-5.9-13.7,3.6-16.9,18.3-6.3,36.8-11.8,55.1-17.9,22.4-7.5,44.7-15.5,67-23.1,9.8-3.3,17,3.3,14.5,13.5-7.3,29.8-14.9,59.5-22.1,89.3-3.1,12.6-5.5,25.4-8.3,38.1-.3,1.2-.6,2.5-.9,3.7-3,10.4-12.9,13.3-20.4,5.5-11.2-11.5-22.1-23.4-33.2-35.2-1-1-2-2.1-2.5-2.6-14.6,10.6-28.5,21.5-43.2,31.3-43.6,29-91,49.6-142.5,59.7-36.6,7.1-73.6,9.2-110.8,6.1-93.9-7.7-175.1-45.1-244.4-107.8-64-57.9-102.4-131-120.4-215-9-42-8.8-84.4-3.6-126.9,2.9-24.2,9.4-47.4,16.6-70.5,1-3.2,2.6-6.4,4.7-9.1,4.1-5.3,9.5-6.6,14.2-4,5.8,3.2,7.6,8.5,5.8,15.2-5.5,20.3-11.9,40.5-16,61.2-6.2,31.2-6.9,62.8-3.6,94.5,5.5,52.9,21.9,102.3,48,148.4,33.2,58.7,79.7,104.2,137.7,138.4,46,27.1,95.5,44,148.3,50,89.7,10.2,173.4-7.9,249.5-57.2,14.5-9.4,27.8-20.7,42.1-31.4ZM736.4,625.3c-28.1,9.9-54.9,19.3-82.2,28.9,20.4,20.9,40.3,41.3,60.6,62.1,7.1-29.8,14.1-59.6,21.6-91Z"/>
  <path class="cls-1" d="M547.6,435.8c-12.3,0-24.6.1-36.9,0-11.3-.1-15.9-4.6-15.9-15.8,0-24.1,0-48.1,0-72.2,0-11.6,5.8-17.3,17.4-17.3,23.7,0,47.4,0,71.1,0,11.4,0,16.3,4.7,16.3,16.1,0,23,0,45.9,0,68.9,0,2.7-.2,5.4-.4,8.1-.8,7.9-5.1,12.1-13,12.3-12.8.2-25.7,0-38.5,0,0,0,0,0,0,0ZM517.6,413.1h59.6v-59.1h-59.6v59.1Z"/>
  <path class="cls-1" d="M277.6,331.5c12.5,0,25,0,37.5,0,10,0,14.8,4.6,14.9,14.4.2,24.8.3,49.6.2,74.4,0,11.2-4.2,15.7-15.3,15.8-24.8.2-49.6,0-74.4.2-10.7,0-15.6-5.1-15.6-14.3,0-21.5-.4-43.1-.5-64.6,0-4-.2-8,.1-11.9.7-9.5,5.5-13.9,15.1-13.9,12.7,0,25.4,0,38,0h0ZM247.2,354.1v59.1h60.3v-59.1h-60.3Z"/>
  <path class="cls-1" d="M547.4,567.3c-12.7,0-25.3,0-38,0-9.2,0-14.5-4.6-14.6-13.8-.3-26.4-.2-52.8,0-79.2,0-7.4,6-11.9,14.6-12,19.4,0,38.7,0,58.1,0,6.3,0,12.7,0,19,.6,7.4.6,12.4,5.3,12.5,12.6.5,26.2.8,52.4.6,78.7,0,9.3-4.3,12.9-13.7,13.2-12.8.3-25.7,0-38.5,0,0,0,0-.1,0-.2ZM577.1,544.4v-59.3h-59.5v59.3h59.5Z"/>
  <path class="cls-1" d="M278.5,567.6c-12.5,0-25,0-37.5,0-11.8,0-15.7-3.5-16-15.5-.4-24.8-.4-49.6-.5-74.4,0-8.4,4.3-15.2,15-15,25.7.3,51.4-.1,77.1,0,9.3,0,13.5,4.7,13.6,13.9,0,25.3,0,50.7,0,76,0,10.8-4,14.6-14.9,14.7-12.3,0-24.6,0-36.9,0,0,0,0,.2,0,.3ZM307.6,485h-60.5v59.3h60.5v-59.3Z"/>
  <path class="cls-1" d="M412.1,435.8c-11.9,0-23.9,0-35.8,0-11.4,0-15.9-4.2-16-15.6-.3-19.9-.2-39.8-.2-59.7,0-4.7-.1-9.4.1-14.1.6-10.2,6-15.7,16.2-15.8,24.4-.2,48.9-.1,73.3,0,9.6,0,14.6,5.5,14.6,15,0,24.6,0,49.2,0,73.9,0,12.1-4.1,16.3-16.3,16.4-11.9.1-23.9,0-35.8,0ZM382.9,412.9h59v-58.9h-59v58.9Z"/>
  <path class="cls-1" d="M412.7,567.3c-12.1,0-24.3,0-36.4,0-11.2,0-16.1-4.6-16.2-16.2-.2-23-.1-46,0-69,0-3.6.3-7.3,1.2-10.7,1.3-5.3,5-8.4,10.5-8.5,26.3-.3,52.5-.6,78.8-.7,8.3,0,13.7,5.9,13.8,14.3,0,24.8,0,49.6,0,74.4,0,12-4.4,16.4-16.3,16.4-11.8,0-23.5,0-35.3,0h0ZM442.2,485.2h-59.3v59.1h59.3v-59.1Z"/>
</svg>