<svg height="512" viewBox="0 0 64 64" width="512" xmlns="http://www.w3.org/2000/svg"><g id="outline"><path d="m54.471 38.37c3.236-5.317 4.169-11.817 2.56-17.832-2.677-10.004-11.778-16.99-22.134-16.99h-1.476c-12.428 0-22.539 10.111-22.539 22.539v2.99l-4.192 6.441c-.489.752-.627 1.678-.38 2.54.248.861.855 1.572 1.668 1.949l3.01 1.4 1.192 6.787c.606 3.45 3.588 5.954 7.091 5.954h5.517c.723 0 1.354.514 1.501 1.221l.891 4.285c.096.464.505.797.979.797h21.25c.301 0 .586-.136.776-.369s.265-.54.203-.834l-1.36-6.547c-.538-2.589-.077-5.259 1.298-7.519zm-5.855 5.775c-1.639 2.693-2.188 5.877-1.547 8.964l1.11 5.344h-19.207l-.725-3.488c-.338-1.631-1.793-2.814-3.459-2.814h-5.517c-2.529 0-4.683-1.809-5.121-4.3l-1.282-7.301c-.057-.322-.267-.596-.563-.733l-3.483-1.621c-.291-.135-.5-.379-.589-.688-.088-.309-.041-.627.135-.896l4.354-6.689c.105-.163.162-.353.162-.546v-3.287c0-11.325 9.214-20.539 20.539-20.539h1.476c9.452 0 17.759 6.377 20.202 15.508 1.468 5.489.617 11.421-2.337 16.275zm-25.839-15.404c.339.436.261 1.064-.175 1.403-.953.742-2.183 1.15-3.464 1.15-1.282 0-2.512-.408-3.465-1.15-.436-.339-.514-.968-.175-1.403.34-.435.968-.514 1.403-.175 1.207.938 3.265.94 4.472 0 .436-.34 1.064-.26 1.404.175zm19.515-16.849c4.528 4.528 4.528 11.896 0 16.424-.195.195-.451.293-.707.293s-.512-.098-.707-.293c-.391-.391-.391-1.023 0-1.414 3.748-3.748 3.748-9.848 0-13.596-1.817-1.817-4.231-2.818-6.797-2.818s-4.98 1.001-6.798 2.818c-1.316 1.316-2.041 3.063-2.041 4.922 0 1.857.725 3.605 2.041 4.921s3.063 2.041 4.921 2.041 3.605-.726 4.921-2.041c1.679-1.68 1.679-4.411 0-6.091-1.679-1.678-4.411-1.678-6.09 0-.645.645-.645 1.694 0 2.339.625.625 1.713.625 2.338 0 .39-.391 1.023-.391 1.414 0s.391 1.023 0 1.414c-1.38 1.381-3.786 1.381-5.166 0-1.425-1.425-1.425-3.742 0-5.167 2.459-2.459 6.459-2.459 8.918 0s2.459 6.46 0 8.919c-1.693 1.693-3.943 2.627-6.335 2.627s-4.642-.934-6.335-2.627c-1.694-1.693-2.626-3.943-2.626-6.335 0-2.393.933-4.643 2.626-6.336 2.195-2.195 5.111-3.404 8.212-3.404 3.1-.001 6.016 1.208 8.211 3.404z"/></g></svg>