<?xml version="1.0" encoding="UTF-8"?>
<svg id="Lager_1" data-name="Lager 1" xmlns="http://www.w3.org/2000/svg" version="1.1" viewBox="0 0 400 400">
  <defs>
    <style>
      .cls-1 {
        fill: #000;
      }

      .cls-1,
      .cls-2 {
        stroke-width: 0px;
      }

      .cls-2 {
        fill: #fff;
      }
    </style>
  </defs>
  <path class="cls-1" d="M91.3,232.7c-28.1-102.8,70.4-182.4,162-139.7,1.4-12.5,1.5-25.3,4.5-37.3,2.9-11.3,7.2-22.9,13.8-32.3,10.8-15.4,25.2-12.8,32.9,4.6,2.6,5.9,5.3,11.9,7.9,17.9,3.6,8.5,10.2,11.5,19,11.3,26-.6,36.4,10.6,34.3,36.7-.2,2.8-.5,5.6-.8,8.4-.8,6.7,1.9,10.9,7.9,14.3,6.2,3.5,12.9,7.5,17.1,13,6.1,7.8,3.5,15.4-5,20.6-11.7,7.3-24.9,9.1-38.2,9.4-13.2.2-26.4-.9-39.6-1.4,18.7,49.6,4.9,91.6-33.5,124.7-36.1,31.2-78.3,33.4-121.8,16.1-2.1,15.1-2.9,30.6-6.7,45.4-2.8,10.9-8,21.7-14.5,31-6.8,9.7-18.1,8.1-24.2-2.3-3.3-5.6-5.7-11.7-7.9-17.8-3.9-11.1-9.3-15.6-20.9-13.6-26.1,4.5-35.9-12.2-34.6-32.4.9-13.4-4-21.3-15-27.2-4-2.1-7.7-4.8-11.1-7.7-13.6-11.2-12.6-26.2,3.7-32.7,12.8-5.1,27.1-7.1,41-9,9.6-1.3,19.6,0,29.6.1ZM293,144.1c-7.8-9.9-14.5-20.9-23.5-29.7-31.5-30.6-90.8-33.4-129.1-6.1-33.9,24.2-49.3,58.3-45,99.2,4.2,39.6,25,68.7,62.6,84.8,68.5,29.3,145.2-17.8,148.9-91.5,1-20.3-6.8-38.1-14-56.7ZM105.1,262.6c-3.4-16.8-11.8-24.5-27.9-21.9-4.1.7-8.6-.6-12.6.2-14,2.6-28.3,4.5-41.8,8.9-10.5,3.5-10.7,11.7-1.6,18.4,5.7,4.2,11.7,7.9,17.7,11.6,9,5.6,12.9,13.5,12.1,24.2-.4,5.8,0,11.9,1.2,17.6,1.8,8.4,8,12.9,16.6,12.8,3.6,0,7.3-.9,10.9-1.1,12.2-.9,20.6,4.7,24.5,16.2,1.6,4.8,2.9,9.9,5.4,14.3,2.1,3.7,5.8,9.2,8.6,9.1,3.7-.2,7.2-5,10.7-8,1-.9,1.4-2.4,2-3.7,9.6-19.9,10.8-41.4,11.9-62.8,0-2-1.7-4.7-3.4-6-3.4-2.8-7.4-4.9-11.5-7.5-2,4.2-3.3,8.2-5.6,11.6-2.5,3.6-1.3,11.5-9.1,8.9-.5-.2.7-8.2,2.4-12,6.8-15,6.6-16.9-5.4-25.2-7,4-13.7,8.3-20.7,11.8-2.7,1.3-6.3.6-9.5.8,2-2.7,3.5-6.2,6.2-7.9,6.2-3.9,12.9-6.9,19.1-10.1ZM291.5,127.6c6.9-3.6,13-7.2,19.5-9.9,2.3-1,5.4.2,8.2.4-1.4,2.3-2.3,5.4-4.4,6.7-6.1,3.8-12.7,6.8-20.6,10.9,4.5,5.1,7.6,12.1,11.7,12.7,23.2,3.5,46.7,5.6,69.6-1.7,4-1.3,8.7-5.3,9.8-9.1.7-2.2-4.2-8.1-7.7-9.4-17.4-6.7-24.6-18-19.2-36.3,0-.3,0-.6,0-.8.9-18.5-7.9-27.5-26.2-26.6-16.6.8-23.6-4-29.5-19.5-2.3-6.1-4.8-12.1-7.8-17.9-3.9-7.6-9.2-8.7-14.4-2-4.9,6.3-10,13.6-11.8,21.2-4,16.7-5.9,33.8-8.6,50.2,5.7,4.1,10.2,7.3,15.1,10.8,4-6.7,7.5-13.1,11.6-19.1,1.2-1.8,4.2-2.5,6.4-3.7.2,2.7,1.5,6,.4,8-3.8,7.5-8.4,14.5-12.6,21.5,3.5,4.6,6.6,8.7,10.4,13.6Z" />
  <path class="cls-1" d="M130.7,151.4c-2.5,9.2-5.8,18.2-7.3,27.6-2.9,17.3-.9,34.3,4.5,51,.7,2-.7,4.7-1.1,7.1-2.1-1.5-5.4-2.5-6.1-4.5-9.1-26-9.8-52,1.1-77.7,1.1-2.6,4.8-4,7.3-6,.5.8,1,1.7,1.6,2.5Z" />
</svg>