<?xml version="1.0" encoding="UTF-8" standalone="no"?>
<!-- Created with Inkscape (http://www.inkscape.org/) -->
<svg xmlns="http://www.w3.org/2000/svg" xmlns:svg="http://www.w3.org/2000/svg" version="1.1" id="svg183" width="682.66669" height="682.66669" viewBox="0 0 682.66669 682.66669">
  <defs id="defs187">
    <clipPath clipPathUnits="userSpaceOnUse" id="clipPath197">
      <path d="M 0,512 H 512 V 0 H 0 Z" id="path195"/>
    </clipPath>
  </defs>
  <mask id="custom"><rect id="bg" x="0" y="0" width="100%" height="100%" fill="white"/><g transform="matrix(1.3333333,0,0,-1.3333333,0,682.66667)"><path transform="matrix(1,0,0,1,229.9712,131.6987)" d="m 0,0 c -1.711,-1.704 -4.305,-2.689 -6.761,-2.699 -3.496,-0.013 -6.225,1.854 -6.21,5 0.003,0.757 0.194,1.595 0.613,2.51 l 26.875,74.49 H -25.66 c -15.474,0 -25.248,16.409 -17.719,29.833 L 2.704,191.301 H 73.69 l -36.596,-59 h 46.317 c 12.58,0 19.198,-14.814 11.001,-24.29 z" style="fill:#ffffff;fill-opacity:1;fill-rule:nonzero;stroke:none" id="path205"/></g></mask><g mask="url(#custom)"><g id="g189" transform="matrix(1.3333333,0,0,-1.3333333,0,682.66667)">
    <g id="g191">
      <g id="g193" clip-path="url(#clipPath197)">
        <g id="g199" transform="translate(391,181)">
          <path d="m 0,0 v 211 c 0,33.137 -26.863,60 -60,60 h -26 v 25.714 c 0,7.89 -6.396,14.286 -14.286,14.286 h -71.428 C -179.604,311 -186,304.604 -186,296.714 V 271 h -26 c -33.137,0 -60,-26.863 -60,-60 v -312 c 0,-33.137 26.863,-60 60,-60 h 152 c 33.137,0 60,26.863 60,60" style="fill:none;stroke:#000000;stroke-width:40;stroke-linecap:round;stroke-linejoin:round;stroke-miterlimit:10;stroke-dasharray:none;stroke-opacity:1" id="path201"/>
        </g>
        <g id="g203" transform="translate(229.9712,131.6987)">
          <path d="m 0,0 c -1.711,-1.704 -4.305,-2.689 -6.761,-2.699 -3.496,-0.013 -6.225,1.854 -6.21,5 0.003,0.757 0.194,1.595 0.613,2.51 l 26.875,74.49 H -25.66 c -15.474,0 -25.248,16.409 -17.719,29.833 L 2.704,191.301 H 73.69 l -36.596,-59 h 46.317 c 12.58,0 19.198,-14.814 11.001,-24.29 z" style="fill:#000000;fill-opacity:1;fill-rule:nonzero;stroke:none" id="path205"/>
        </g>
      </g>
    </g>
  </g></g>
</svg>
