<?xml version="1.0" encoding="UTF-8"?>
<svg id="Lager_1" data-name="Lager 1" xmlns="http://www.w3.org/2000/svg" version="1.1" viewBox="0 0 400 400">
  <defs>
    <style>
      .cls-1 {
        fill: #000;
      }

      .cls-1 {
        stroke-width: 0px;
      }
    </style>
  </defs>
  <path class="cls-1" d="M311.6,278.1c-4.8-3.7-9.3-6.8-13.3-10.5-5.9-5.3-5.7-8.1.5-13.2,2.8-2.3,6-4.3,9.1-6.1,9.7-5.7,10.5-13.8,2-21.5-1.2-1-2.3-2.2-3.3-3.3-.3-.3-.2-1-.7-2.9,4.5-1.7,9.2-3.4,13.9-5.1,14.9-5.2,16.8-12.2,6.6-24.2-3.2-3.8-6.5-7.6-9.9-11.1-12.4-12.6-18.7-27.4-17.1-45.4,1.7-18.1-1-35.4-11.1-51-1-1.5-2-3-3.1-4.5-.4-.6-1.1-1-1.7-1.5-28.5,19.1-60.3,22.1-94.2,19.5,8.7,22-2.2,39.5-11.1,57.8-5.2,10.6-8.8,22.2-12.1,33.6-1.6,5.5-3.7,6.8-8.8,5.2-8.3-2.6-14.4-8.1-17.4-15.9-5.1-13.3-15.8-15-25.9-13.9-12.4,1.4-19.4,8-22.7,20.6-6,22.6,8.5,48.5,30.3,53.7,3.1.7,6.6-.4,9.9,0,2.5.2,4.8,1.4,7.2,2.2-2,1.7-4.2,5-6,4.8-8.2-.7-16.3-2.1-24.4-3.8-2.6-.6-5-2.7-7.6-4.2-7.6,21.4-19.9,39.2-37.1,53.7-2.1,1.8-3.1,5.8-3.1,8.8-.2,26.4-7.7,50.4-22.6,72.1-.7,1.1-1.3,2.6-2.3,3.1-2.3,1.1-4.8,1.6-7.2,2.3.4-2.3.2-4.8,1.2-6.9,6-12.4,13.7-24.2,18.1-37.1,8.7-25.6,5.9-50.6-6.6-75-11.3-22-24-43.9-30.8-67.4C-4,141.4,1.7,93.6,35.9,52.3,57.4,26.3,86.3,13.1,119.2,8.4c45.6-6.5,89.3,4.2,133.2,14.1,13.2,3,27.4,2.8,41.1,2.2,7.6-.3,10.8,2.3,12.4,8.5,3.3,13.1-1.1,24.1-9.8,33.8-1.7,1.9-3.5,3.8-5.5,5.9,14.5,20.1,19.5,42.4,16.2,66.7-1.6,11.4,3.6,20.9,10.3,29.5,4.2,5.4,8.8,10.4,13.6,15.3,14.6,14.9,13.7,31.9-8.1,37.9-1.2.3-2.3,1.1-2.9,1.4,1.4,6.1,2.7,11.9,4.1,17.9,8-1.7,17.3-4,26.6-5.7,4.8-.9,9.8-1.4,14.8-1.5,19.5-.5,29.6,8.5,31.7,27.8,1.8,16.1-7.9,33.4-21.5,35.8-7.4,1.3-15.7.2-23.1-1.7-9.8-2.6-18.9-7.5-28.5-10.6-3.4-1.1-8.6-1.1-11.2.8-2.7,2-3.9,6.8-4.5,10.6-.7,5.1.5,10.4-.2,15.5-2.8,18.6-14.2,29.3-33.1,28.7-17.7-.6-35.3-3.4-52.9-5.3-3.9-.4-7.7-1.2-12.1-2-7.2,17.3-14.4,34.5-21.6,51.8-.5,1.2-.7,2.7-1.6,3.6-1.7,1.7-3.8,3.1-5.7,4.6-.4-2.3-1.7-4.8-1.1-6.7,1.9-6.2,4.4-12.2,6.9-18.3,5.1-12.3,10.6-24.4,15.4-36.8,2.1-5.5,4.6-6.6,10.5-5.7,20.4,3,40.8,5.9,61.3,7.1,16.7,1,26-8.9,27.2-25.7.3-3.6.4-7.4,0-11-1.2-8.8,1.5-15.4,10.5-18.9ZM173.7,90.2c3.5-6.5,7.4-1.8,11.1-1.8,16.9.3,34,1.5,50.8-.3,19.4-2.1,37.2-10,52.1-23.2,7.8-6.9,12.3-15.5,11.8-26.2-.2-4.4-1.6-7.5-7.2-6.5-18.2,3.4-35.7.1-53.4-4.4-39.1-10-78.6-17.4-119.3-11.6-30.8,4.4-57.7,16.8-77.8,41.1C9.3,97,2.8,142.7,18.3,190c10.6,32.3,27.5,62.6,41.6,94.1,14.5-12.9,26.3-28,32.6-46.7,1.2-3.6.5-8.9-1.3-12.2-6.3-11.3-9.3-23.2-8.3-36,1.3-17.5,11-29,27.9-32.3,12.7-2.5,28.3-.5,36,17.7,2,4.6,6.6,8.1,9.2,11.2,8-17.1,15.6-33.2,23.1-49.4,1.6-3.5,3.1-7.2,4.3-10.9,4.3-13.8.8-25.7-9.5-35.3ZM302.2,260.9c17,16.4,36.9,25.2,58.4,30.2,12.7,2.9,20-.8,24.7-10,3.8-7.4,5.3-15.1,2.9-23.4-2.9-10-8.6-15.5-18.8-15.5-23.7,0-45.9,5.4-67.1,18.8Z" />
  <path class="cls-1" d="M112.4,186.5c-.3-.3-2-1.7-3.7-3.1,1.8-1.5,3.3-3.8,5.3-4.2,9.6-2,15.7,4.8,13.1,14.2-1,3.8-2.6,7.4-3.4,11.2-.9,4.5-1,8.8,4,11.6,1.4.8,1.6,3.6,2.3,5.4-2.3.3-4.9,1.4-6.7.6-5.8-2.5-9.1-11.6-7.2-19.1.8-3.3,2.1-6.4,3.4-9.6,1.9-4.9.8-7.6-7.2-7.2Z" />
  <path class="cls-1" d="M273.9,119.2c1.5,1.1,3.7,2.8,5.9,4.4-2.3,1.2-4.4,3.2-6.8,3.5-10,.9-16.3,7.2-22.6,14.1-1.6,1.8-4.9,2-7.3,3,.8-2.4.9-5.5,2.4-7.2,7.6-7.8,14.9-16.2,28.4-17.7Z" />
  <path class="cls-1" d="M272.2,155.5c6.6,6.5,3.2,10.4-.2,13.8-.9.9-3.9-.1-6-.3,1.9-4.2,3.8-8.4,6.2-13.5Z" />
</svg>