<svg id="Layer_1" enable-background="new 0 0 512 512" height="512" viewBox="0 0 512 512" width="512" xmlns="http://www.w3.org/2000/svg"><g><g><path d="m256.06 456.5c-25.68 0-49.95-4.57-68.35-12.87-20.55-9.27-31.87-22.41-31.87-37 0-7.41 2.91-14.3 8.53-20.52-5.6-6.36-8.53-13.42-8.53-20.85 0-9.21 4.35-16.29 11.74-22.31-7.68-7.18-11.74-15.4-11.74-24.14 0-7.41 2.91-14.3 8.53-20.52-5.6-6.36-8.53-13.42-8.53-20.85 0-7.5 3.07-14.62 8.82-21.01-5.87-6.48-8.95-13.7-8.95-21.31 0-7.41 2.91-14.3 8.53-20.52-5.6-6.36-8.53-13.42-8.53-20.85 0-9.21 4.36-16.29 11.74-22.31-7.68-7.18-11.74-15.4-11.74-24.14 0-7.41 2.91-14.3 8.53-20.52-5.6-6.36-8.53-13.42-8.53-20.85 0-14.59 11.32-27.73 31.87-37 18.4-8.3 42.67-12.87 68.35-12.87 4.69 0 8.5 3.81 8.5 8.5s-3.81 8.5-8.5 8.5c-47.63 0-83.21 17.35-83.21 32.87 0 3.39 1.7 6.86 4.84 10.22 10.15-6.12 23.69-11.25 40.35-15.18 24.12-5.68 46.21-9 65.65-9.86 32.87-1.45 55.42-.24 66.37 10.23 4.07 3.9 6.22 8.91 6.22 14.49 0 8.84-3.96 16.26-11.74 22.23 1.58.9 3.01 1.9 4.27 2.99 4.88 4.21 7.47 9.79 7.47 16.15 0 10.61-5.71 19.19-16.87 25.63 4.29 1.58 7.85 3.65 10.65 6.32 4.07 3.9 6.22 8.91 6.22 14.49 0 8.91-4.03 16.39-11.93 22.38 1.86 1.02 3.5 2.16 4.94 3.44 4.58 4.07 7 9.45 7 15.55 0 9.29-4.38 17.02-12.96 23.13 2.64 1.31 4.93 2.86 6.86 4.71 4.07 3.9 6.22 8.91 6.22 14.49 0 8.84-3.96 16.26-11.74 22.23 1.58.9 3.01 1.9 4.27 2.99 4.88 4.21 7.47 9.79 7.47 16.15 0 10.61-5.71 19.19-16.87 25.63 4.29 1.58 7.85 3.65 10.65 6.32 4.07 3.9 6.22 8.91 6.22 14.49 0 26.14-34.65 39.96-100.21 39.96-25.68 0-49.95-4.57-68.35-12.87-3.69-1.66-7.08-3.45-10.16-5.35-3.07 3.2-4.71 6.49-4.71 9.72 0 15.51 35.59 32.87 83.21 32.87 32.7 0 58.37-3.76 72.27-10.58 4.22-2.07 9.31-.33 11.38 3.89 2.07 4.21.33 9.31-3.89 11.37-20.75 10.2-54.82 12.34-79.76 12.34zm-62.32-70.25c14.98 6.95 36.94 11.88 62.33 11.88 50.55 0 83.21-9.01 83.21-22.96 0-.95-.25-1.51-.98-2.21-6.94-6.64-33.57-6.31-48.46-5.75-5.99.57-12.36.98-19.13 1.22-14.9 1.47-31.25 4.3-48.78 8.43-10.97 2.59-20.51 5.81-28.19 9.39zm-11.37-33.04c-5.93 3.81-9.52 7.75-9.52 12.06 0 3.39 1.7 6.86 4.84 10.22 8.05-4.86 18.25-9.09 30.44-12.59-7.36-1.92-14.22-4.29-20.41-7.08-1.86-.84-3.65-1.71-5.35-2.61zm20.12-9.87c14.25 5.02 32.76 8.34 53.57 8.34 4.72 0 9.29-.08 13.68-.23 4.78-.46 9.43-.79 13.94-.99 1.54-.07 3.05-.13 4.55-.19 31.8-3.05 51.04-10.84 51.04-21.55 0-1.41-.42-2.29-1.56-3.27-2.61-2.25-8.13-4.15-16.97-4.97-16.22 4.52-37.87 6.83-64.69 6.83-.53 0-1.06 0-1.59-.01-12.4 2.6-25.57 5.64-31.03 7.76l-4.13 1.61c-5.86 2.29-11.55 4.49-16.81 6.67zm-24.93-34.24c-3.07 3.2-4.71 6.49-4.71 9.72 0 4.93 3.59 10.04 10.01 14.72 7.94-3.94 17.21-7.62 27.22-11.51-8.1-2-15.62-4.54-22.36-7.58-3.69-1.66-7.08-3.45-10.16-5.35zm16.18-10.67c14.33 6.65 35.04 11.45 59.03 11.85 10.39-2.15 19.28-3.8 21.27-4.17.09-.02.18-.03.28-.05 17.87-2.68 32.89-3.6 44.99-2.78 12.81-3.95 19.98-9.4 19.98-15.93 0-.95-.25-1.51-.98-2.21-3.66-3.5-12.81-5.07-22.83-5.68-15.55 3.65-35.46 5.52-59.54 5.52-4.35 0-8.66-.13-12.9-.39-6.82 1.26-13.85 2.74-21.09 4.45-10.99 2.59-20.53 5.81-28.21 9.39zm-15.83-31.36c-3.27 3.41-5.06 6.94-5.06 10.38 0 3.39 1.7 6.86 4.84 10.22 6.46-3.9 14.31-7.4 23.45-10.43-4.79-1.5-9.33-3.21-13.55-5.12-3.5-1.58-6.72-3.27-9.68-5.05zm16.19-10.74c12.14 5.54 28.76 9.77 48 11.16 14.89-2.66 28.81-4.29 41.59-4.85 11.4-.5 21.57-.69 30.43-.27 15.97-4.01 25.03-9.99 25.03-17.33 0-1.25-.34-2-1.29-2.85-2.1-1.87-7.06-4.2-18.71-5-16.05 4.26-37.2 6.43-63.21 6.43-3.06 0-6.1-.06-9.11-.19-12.6 1.93-26.12 4.23-33.7 6.21-7.1 1.85-13.52 4.13-19.03 6.69zm-16.67-30.92c-3.07 3.2-4.71 6.49-4.71 9.72 0 3.51 1.82 7.12 5.19 10.59 6.31-3.86 13.86-7.26 22.51-10.07-4.53-1.45-8.82-3.08-12.84-4.89-3.68-1.67-7.07-3.46-10.15-5.35zm16.18-10.67c12.97 6.02 31.19 10.53 52.33 11.62 14.54-2.21 27.3-3.87 28.3-4 17.57-2.07 31.86-2.85 43.3-2.29 13.84-3.98 21.61-9.61 21.61-16.41 0-.95-.25-1.51-.98-2.21-6.94-6.64-33.56-6.31-48.45-5.75-5.99.57-12.37.98-19.14 1.22-14.9 1.47-31.24 4.3-48.78 8.43-10.96 2.59-20.51 5.8-28.19 9.39zm-11.37-33.05c-5.93 3.81-9.52 7.75-9.52 12.06 0 3.39 1.7 6.86 4.84 10.22 8.05-4.86 18.25-9.09 30.44-12.59-7.36-1.92-14.22-4.29-20.41-7.08-1.86-.83-3.64-1.7-5.35-2.61zm20.12-9.86c14.25 5.02 32.76 8.34 53.57 8.34 4.72 0 9.28-.08 13.68-.23 4.78-.46 9.43-.79 13.94-.99 1.54-.07 3.06-.13 4.55-.19 31.8-3.05 51.04-10.84 51.04-21.55 0-1.41-.42-2.29-1.56-3.27-2.61-2.25-8.13-4.15-16.97-4.97-16.22 4.52-37.87 6.83-64.69 6.83-.53 0-1.06 0-1.59-.01-12.4 2.6-25.57 5.64-31.03 7.76l-4.14 1.61c-5.85 2.29-11.54 4.49-16.8 6.67zm-24.93-34.24c-3.07 3.2-4.71 6.49-4.71 9.72 0 4.93 3.59 10.04 10.01 14.72 7.94-3.94 17.22-7.62 27.22-11.51-8.1-2-15.62-4.54-22.36-7.58-3.69-1.67-7.08-3.45-10.16-5.35zm16.18-10.67c14.33 6.65 35.04 11.45 59.03 11.85 10.39-2.15 19.29-3.8 21.27-4.17.09-.02.18-.03.28-.05 17.87-2.68 32.89-3.6 44.99-2.78 12.81-3.95 19.98-9.4 19.98-15.93 0-.95-.25-1.51-.98-2.21-7.9-7.56-41.3-6.08-53.87-5.53-18.38.81-39.41 3.98-62.5 9.42-10.97 2.6-20.52 5.82-28.2 9.4z"/></g></g></svg>