<?xml version="1.0" encoding="UTF-8"?>
<svg id="Lager_1" xmlns="http://www.w3.org/2000/svg" version="1.1" viewBox="0 0 400 400">
  <!-- Generator: Adobe Illustrator 29.8.2, SVG Export Plug-In . SVG Version: 2.1.1 Build 3)  -->
  <path d="M74,223.4c-7.4-1.1-7.2-7.1-2.8-12,60.2-61.6,118.4-125.2,178.5-186.8,3-3.1,12.5-13.7,15.2-15.2,5.7-3.3,7.2,1.6,5.6,6.6l-48.8,137.6-.5,7.1c1.5.8,3.2,1,4.9,1.1,31.5,2.3,67.8-3.2,98.8,0,8.4.9,8.5,6.3,3.7,12l-197,215.4c-1.6,1.4-4.7,3.7-6.7,2.4l-1-1.2-.2-6.3,54.5-154c.8-1.4.7-6.5-1-6.5h-103.3Z"/>
</svg>