<?xml version="1.0" encoding="UTF-8"?>
<svg id="Lager_1" data-name="Lager 1" xmlns="http://www.w3.org/2000/svg" version="1.1" viewBox="0 0 400 400">
  <defs>
    <style>
      .cls-1 {
        fill: #000;
      }

      .cls-1 {
        stroke-width: 0px;
      }

      .cls-3 {
        opacity: 1;
      }
    </style>
  </defs>
  <g class="cls-3">
    <path class="cls-1" d="M42.7,386.8c-.4-2.8-2.2-6.4-1-8.2,16-25.6,31.9-51.2,48.9-76.1,12.8-18.7,32.4-29,52.1-39,20.1-10.2,39.7-21.5,59.7-31.9,6.4-3.3,9.7-7.6,8.6-14.9,0-.7,0-1.3,0-2,1.6-14.7.6-24.8-17.7-31.5-27.4-10-40-42.7-32-70.7,7-24.4,30.7-49.2,67.5-45.9,26.7,2.4,50.3,24.4,54.6,52.6,4.8,31.9-12.4,58.1-47,70.8v29.9c2.7-.4,5.2-.8,7.7-1.1,15.9-1.8,25.6,4.8,28.7,20.6,1.3,6.5,3.2,10.1,10.6,11.7,12.7,2.8,20,18.2,16.5,32-1,3.8-2.5,7.4-3.9,11.2,18.3,19.3,18.9,27.6,4.9,47.8,3.1,10.2,7.2,18.6,7.6,27.1.3,5.4-3.8,12.1-7.9,16.3-5.4,5.6-9.5,15.9-22,11.3,9.1-13.8,32.1-22.5,13.8-44.3-11.6,10.1-22.5,19.7-33.7,29-2,1.6-5.4,1.6-8.1,2.3,1.1-2.9,1.3-6.7,3.3-8.7,12.2-12.2,25.3-23.5,37.1-36,6.3-6.7,11.7-15,8-25.2-1.4-4-4.6-7.4-7.7-12.3-8.1,10.5-14.8,19.5-21.9,28.1-5.5,6.6-11.4,13-17.8,18.9-2.1,1.9-6,1.7-9.1,2.5.7-3,.4-6.9,2.2-9,9.8-11.7,20.4-22.8,30.1-34.6,5.4-6.6,10.3-14.1,13.5-21.9,2.1-5,2-11.7.6-17-1-3.7-5.9-6.4-9.1-9.6-2.5,2.6-5.2,5-7.5,7.9-14.2,17.9-28.2,36-42.6,53.7-1.7,2.1-6,2.1-9.1,3,.8-3.3.7-7.5,2.7-9.9,11.7-14.4,24.2-28.2,36-42.6,8.2-10,7.5-21.7,3.5-33.1-3.6-10.3-16.4-14.4-24.6-7.7-2.2,1.8-3,6.6-2.8,9.8,1,12.9-4.9,20.7-15.7,27.3-19.2,11.8-37.4,25.2-56.2,37.8-4.7,3.1-9.5,6.3-14.6,8.3-2.6,1-6.3-.8-9.5-1.3,1.5-2.5,2.5-5.9,4.7-7.4,17.9-12,35.9-23.9,54.3-35.2,7.7-4.7,12.8-9.8,11.1-19.7-.6-3.4.5-7.2,1-11.9-13.6,7.4-26.3,14.5-39.1,21.2-10.6,5.6-21.2,11-32,16-24,11.1-41.9,28.9-55.9,51-12.5,20-24.9,40-37.4,60-1.2.2-2.4.3-3.6.5ZM222.3,181.1c28.9-.1,52.9-24.2,52.5-52.7-.4-29.4-24.3-52.6-54-52.3-28.5.3-51.9,24.4-51.7,53.4.2,28.8,23.8,51.7,53.2,51.6ZM222.1,189.8c-1.2.8-2.4,1.6-3.6,2.4v64.1l2.5,1c1.9-4.8,5.3-9.4,5.6-14.3.8-15.6.6-31.3.2-46.9,0-2.1-3-4.2-4.7-6.3Z" />
    <path class="cls-1" d="M112.2,132.9c-6,0-12,.5-18-.2-2.5-.3-4.8-3.1-7.1-4.7,2.1-1.6,4.2-4.5,6.4-4.6,12.6-.5,25.3-.5,37.9,0,2.3,0,4.5,3.6,6.7,5.5-2.3,1.3-4.6,3.6-7,3.8-6.3.5-12.6.2-19,.2h0Z" />
    <path class="cls-1" d="M333.1,130.9c-6.3,0-12.6.3-18.9-.2-2-.2-3.8-2.5-5.7-3.9,1.8-1.9,3.6-5.3,5.5-5.4,12.9-.5,25.8-.4,38.7,0,2,0,4,3.4,5.9,5.2-2.2,1.4-4.4,3.8-6.7,4-6.2.6-12.6.2-18.9.2,0,0,0,0,0,0Z" />
    <path class="cls-1" d="M127.6,32.5c2.3,1.6,4.4,2.6,6.1,4.1,9.3,8.5,18.6,17,27.5,26,1.8,1.9,1.9,5.5,2.8,8.3-3.1-.6-7,0-9-1.8-9.9-8.8-19.4-18.2-28.8-27.5-1.4-1.3-2.1-3.8-2.1-5.8,0-1,2.1-2,3.5-3.2Z" />
    <path class="cls-1" d="M287.2,71.3c-1.3-.9-3.3-1.5-3.6-2.6-.4-1.7-.4-4.4.7-5.4,10.1-10,20.4-19.8,31-29.3,1.1-1,4.2,0,6.3.2-.2,2,.3,4.8-.8,5.9-9.5,9.7-19.2,19.2-29,28.6-1.1,1.1-2.8,1.7-4.6,2.8Z" />
    <path class="cls-1" d="M227,24.1c0,5.6.4,11.3-.2,16.9-.2,2.1-2.5,3.9-3.8,5.9-1.8-1.6-5.1-3.1-5.1-4.7-.5-12.2-.5-24.5-.1-36.7,0-1.5,2.9-2.9,4.4-4.4,1.6,1.7,4.4,3.3,4.6,5.2.6,5.9.2,11.9.2,17.8h0Z" />

  </g>
</svg>