<?xml version="1.0" encoding="UTF-8"?>
<svg id="Capa_1" data-name="Capa 1" xmlns="http://www.w3.org/2000/svg" viewBox="0 0 512 512">
  <defs>
    <style>
      .cls-1 {
        fill: #000000;
        stroke-width: 0px;
      }
    </style>
  </defs>
  <path class="cls-1" d="M141.77,310.88c-5.52,0-10,4.48-10,10v49.25l-37.83-54.78c-2.49-3.6-7.02-5.17-11.21-3.86-4.18,1.3-7.02,5.17-7.02,9.55v78.95c0,5.52,4.48,10,10,10s10-4.48,10-10v-46.87l35.77,51.79c2.26,3.27,5.69,5.09,9.27,5.09,1.07,0,2.15-.16,3.21-.49,4.74-1.48,7.81-5.92,7.81-11.31v-77.3c0-5.52-4.48-10-10-10h0Z" />
  <path class="cls-1" d="M428.54,153.49c-5.52,0-10,4.48-10,10v49.25l-37.83-54.78c-2.49-3.6-7.02-5.16-11.2-3.86-4.18,1.3-7.02,5.17-7.02,9.55v78.95c0,5.52,4.48,10,10,10s10-4.48,10-10v-46.87l35.77,51.79c2.27,3.27,5.69,5.09,9.27,5.09,1.07,0,2.15-.16,3.21-.49,4.74-1.48,7.81-5.92,7.81-11.31v-77.3c0-5.52-4.48-10-10-10h0Z" />
  <path class="cls-1" d="M421.96,372c-5.52,0-10,4.48-10,10v28.63h-35.36v-28.63c0-5.52-4.48-10-10-10s-10,4.48-10,10v80c0,5.52,4.48,10,10,10s10-4.48,10-10v-31.37h35.36v31.37c0,5.52,4.48,10,10,10s10-4.48,10-10v-80c0-5.52-4.48-10-10-10Z" />
  <path class="cls-1" d="M333.03,443.05c-4.23-3.55-10.54-3-14.09,1.24-.7.83-1.45,1.61-2.23,2.31-4.03,3.59-9.18,5.41-15.3,5.41-16.54,0-30-13.46-30-30s13.46-30,30-30c6.01,0,11.81,1.77,16.77,5.12,4.57,3.09,10.79,1.89,13.88-2.69,3.09-4.58,1.89-10.79-2.69-13.88-8.27-5.59-17.94-8.55-27.96-8.55-27.57,0-50,22.43-50,50s22.43,50,50,50c11.02,0,20.91-3.62,28.6-10.48,1.51-1.34,2.94-2.82,4.26-4.39,3.55-4.23,2.99-10.54-1.24-14.09h0Z" />
  <path class="cls-1" d="M481.96,412c-14.3,0-26.68,10.18-29.44,24.2-1.06,5.42,2.47,10.68,7.89,11.74,5.42,1.06,10.68-2.47,11.74-7.89.92-4.67,5.04-8.05,9.81-8.05,5.51,0,10,4.49,10,10s-4.49,10-10,10-10,4.48-10,10,4.48,10,10,10,10,4.49,10,10-4.49,10-10,10c-4.96,0-9.22-3.69-9.9-8.6-.06-.46-.1-.93-.1-1.4,0-5.52-4.48-10-10-10s-10,4.48-10,10c0,1.4.1,2.81.29,4.17,2.05,14.73,14.83,25.83,29.71,25.83,16.54,0,30-13.46,30-30,0-7.68-2.9-14.69-7.66-20,4.76-5.31,7.66-12.32,7.66-20,0-16.54-13.46-30-30-30Z" />
  <path class="cls-1" d="M50.71,316.83l-30.71-17.73v-108.24l60.13-34.72c4.78-2.76,6.42-8.88,3.66-13.66-2.76-4.78-8.88-6.42-13.66-3.66L5,176.42c-3.09,1.79-5,5.09-5,8.66v119.79c0,3.57,1.91,6.87,5,8.66l35.71,20.62c1.58.91,3.29,1.34,4.99,1.34,3.46,0,6.82-1.79,8.67-5,2.76-4.78,1.12-10.9-3.66-13.66h0Z" />
  <path class="cls-1" d="M455.97,20l34.27,105.49-28.16,20.46c-4.47,3.25-5.46,9.5-2.21,13.97,1.96,2.69,5.01,4.12,8.1,4.12,2.04,0,4.1-.62,5.87-1.91l34.04-24.73c3.51-2.55,4.97-7.06,3.63-11.18L472.75,6.91c-1.34-4.12-5.18-6.91-9.51-6.91h-125.45c-4.33,0-8.17,2.79-9.51,6.91l-32.7,100.64-29.24-40.24c-3.24-4.47-9.5-5.46-13.97-2.21-4.47,3.25-5.46,9.5-2.21,13.97l34.72,47.79-67.86,46.41-59.32-34.25c-4.78-2.76-10.9-1.12-13.66,3.66-2.76,4.78-1.12,10.9,3.66,13.66l59.77,34.51v108.24l-30.71,17.73c-4.78,2.76-6.42,8.88-3.66,13.66,1.85,3.21,5.21,5,8.67,5,1.7,0,3.41-.43,4.99-1.34l35.71-20.62c3.09-1.79,5-5.09,5-8.66v-114.51l71.37-48.82,27.76,20.16c4.47,3.25,10.72,2.26,13.97-2.21,3.25-4.47,2.26-10.72-2.21-13.97l-27.58-20.04,34.27-105.49h110.91Z" />
  <path class="cls-1" d="M410.51,340.33v-57.33c0-5.52-4.48-10-10-10s-10,4.48-10,10v57.33c0,5.52,4.48,10,10,10s10-4.48,10-10Z" />
  <path class="cls-1" d="M113.74,135.19c2.63,0,5.2-1.07,7.07-2.93,1.86-1.87,2.93-4.44,2.93-7.07s-1.07-5.21-2.93-7.08c-1.86-1.86-4.44-2.92-7.07-2.92s-5.21,1.06-7.07,2.92c-1.86,1.87-2.93,4.44-2.93,7.08s1.07,5.2,2.93,7.07c1.86,1.86,4.44,2.93,7.07,2.93Z" />
</svg>