<?xml version="1.0" encoding="UTF-8"?>
<svg xmlns="http://www.w3.org/2000/svg" id="Icons" viewBox="0 0 60 60" width="512" height="512"><path d="M24,60a23.7,23.7,0,0,0,8.362-1.524A19.984,19.984,0,0,0,59.871,42.287a2.928,2.928,0,0,0-.73-2.275A3.03,3.03,0,0,0,56.883,39h-9.1A23.278,23.278,0,0,0,48,36,24.029,24.029,0,0,0,34.25,14.3,8.165,8.165,0,0,0,36.694,12.5C40.329,8.447,38.527,1.18,38.449.873A1,1,0,0,0,37.618.13C37.305.087,29.889-.9,26.265,3.163a8.3,8.3,0,0,0-1.687,3.078,24.055,24.055,0,0,0-3.27-5.162A3,3,0,0,0,16.692,4.92,18.894,18.894,0,0,1,20.4,12.27,24,24,0,0,0,24,60ZM57.649,41.343a.92.92,0,0,1,.234.717,18,18,0,0,1-35.766,0,.92.92,0,0,1,.234-.717A1.029,1.029,0,0,1,23.117,41h.934a15.979,15.979,0,0,0,31.9,0h.934A1.029,1.029,0,0,1,57.649,41.343ZM53.949,41a13.964,13.964,0,0,1-3.385,8.15l-6.4-6.4A4.961,4.961,0,0,0,44.9,41Zm-16.7,3.167A4.961,4.961,0,0,0,39,44.9v9.05a13.907,13.907,0,0,1-8.15-3.385ZM41,44.9a4.961,4.961,0,0,0,1.753-.732l6.4,6.4A13.907,13.907,0,0,1,41,53.949ZM40,43a3,3,0,0,1-2.816-2h5.632A3,3,0,0,1,40,43Zm-4.9-2a4.961,4.961,0,0,0,.732,1.753l-6.4,6.4A13.964,13.964,0,0,1,26.051,41ZM27.756,4.5c2.352-2.636,7.12-2.574,8.9-2.45.325,1.753.919,6.478-1.446,9.115A7.3,7.3,0,0,1,31.486,13.2a23.647,23.647,0,0,0-3.425-.851,15.935,15.935,0,0,1,6.434-6.482,1,1,0,1,0-.99-1.738,18.014,18.014,0,0,0-7.157,7.162c-.1-.409-.208-.83-.335-1.267A8.613,8.613,0,0,1,27.756,4.5Zm-9.525-.852a1,1,0,1,1,1.54-1.284,23,23,0,0,1,4.7,9.652c-.156,0-.31-.012-.467-.012-.534,0-1.061.024-1.586.058A20.953,20.953,0,0,0,18.231,3.644ZM24,14a21.907,21.907,0,0,1,7.123,1.19l.015.005A22.034,22.034,0,0,1,46,36a21.248,21.248,0,0,1-.232,3H23.117a3.03,3.03,0,0,0-2.258,1.012,2.928,2.928,0,0,0-.73,2.275,19.94,19.94,0,0,0,9.686,14.921A22,22,0,1,1,24,14Z"/><path d="M18.314,18.929a1,1,0,1,0-.628-1.9A19.922,19.922,0,0,0,5.41,28.631a1,1,0,0,0,1.86.738A17.923,17.923,0,0,1,18.314,18.929Z"/></svg>
