<svg id="Piggy_Bank" enable-background="new 0 0 64 64" height="512" viewBox="0 0 64 64" width="512" xmlns="http://www.w3.org/2000/svg"><path d="m51.42246 32.74252c-.57061 0-1.03233-.46173-1.03233-1.03233v-2.27839c0-.57061.46173-1.03233 1.03233-1.03233s1.03233.46173 1.03233 1.03233v2.27839c.00001.57061-.46172 1.03233-1.03233 1.03233zm12.57754 2.03758v5.92025c0 2.08003-1.69006 3.77009-3.76014 3.77009h-3.82014c-1.42003 2.50009-3.3601 4.74015-5.76021 6.65026l-.63998 7.11023c-.22004 2.41012-2.20009 4.23013-4.62016 4.23013-2.17012 0-4.03017-1.49004-4.52018-3.61011l-.59999-2.64011c-4.94018 1.27006-10.24041 1.27006-15.19054 0l-.60006 2.64011c-.48 2.12007-2.34005 3.61011-4.52018 3.61011-2.41006 0-4.40012-1.82001-4.61015-4.23013l-.64004-7.11023c-5.04687-4.01479-8.04502-9.57217-8.34996-15.42321-.43227.10541-.87747.16266-1.33037.16266h-.13995c-1.40007-.03003-2.66013-.57003-3.56012-1.52007-1.52007-1.60003-1.77008-4.17013-.62008-6.25022.28004-.50002.90006-.68002 1.40007-.40999.50002.27998.68002.91.40004 1.41002-.72006 1.30009-.59005 2.8701.32002 3.83015.50997.54 1.28001.86002 2.11006.88004.50722-.01081.99363-.11084 1.44707-.29255.56386-9.02497 7.40248-16.64493 16.87028-19.74966-.20655-.78988-.32673-1.61425-.32673-2.46859 0-5.37018 4.37015-9.75034 9.75034-9.75034s9.75034 4.38016 9.75034 9.75034c0 .84891-.11914 1.66907-.32429 2.45529 1.96076.64272 3.83564 1.47674 5.59449 2.51492.61001-.42006 1.23003-.78006 1.89002-1.07005 1.40007-.63003 3.71015-1.09007 5.24023-.69003.59999.14997 1.06998.54 1.36003 1.12004.97001 1.97004-.38002 6.03018-.94003 7.51027 1.72003 2.43008 2.86008 5.07018 3.41009 7.88028h1.57006c2.0701.00001 3.76016 1.69007 3.76016 3.7701zm-39.00137-23.49082c0 2.54599 1.25694 4.7907 3.17131 6.19352 2.96782-.51729 6.06143-.51766 9.03651.00134 1.91748-1.39794 3.17272-3.64252 3.17272-6.19486 0-4.23013-3.45013-7.68026-7.69027-7.68026s-7.69027 3.45013-7.69027 7.68026zm36.9413 23.49082c0-.94004-.77005-1.70007-1.70007-1.70007h-2.4501c-.50997 0-.94004-.37996-1.01999-.87997-.44002-2.98015-1.62005-5.78023-3.50013-8.30034-.22004-.3-.27003-.69003-.12-1.01999 1.03001-2.42013 1.66003-5.89022 1.16002-6.40025-.88004-.21998-2.66007.04999-3.86012.59005-.72005.32997-1.39006.73001-2.05006 1.24003-.34004.26997-.82004.28999-1.1801.06-1.81055-1.1381-3.76912-2.03059-5.8301-2.69498-.44295.87601-1.01365 1.67523-1.68737 2.37551.88766.25031 1.75903.54433 2.60294.89304.52827.21674.77829.82065.56057 1.34789-.21577.52724-.81662.77926-1.34691.55953-5.49232-2.26833-12.2005-2.26229-17.65553 0-.12903.05341-.26313.07862-.39522.07862-.40425 0-.78934-.23994-.95365-.63717-.21778-.5262.03223-1.13011.55849-1.34886.84091-.34852 1.71033-.64248 2.59671-.89285-.66793-.69619-1.23259-1.48864-1.67273-2.35561-9.10768 2.93537-15.58856 10.34909-15.58856 19.01541 0 5.70021 2.89012 11.1904 7.92032 15.05058.22999.18.38002.44002.40999.73001l.67001 7.56026c.12006 1.34007 1.22008 2.34011 2.56009 2.34011 1.21007 0 2.24013-.82003 2.5101-2.00007l.84006-3.69013c.06-.28004.24-.52004.49001-.67007.24-.13996.54-.16999.81003-.08997 5.22021 1.54003 10.92036 1.54003 16.14058 0 .08997-.03003.19001-.04999.28999-.04999.18 0 .36.04999.52004.13996.25001.15003.42.39003.49001.67007l.84006 3.69013c.25996 1.18003 1.30003 2.00007 2.50009 2.00007 1.34001 0 2.44009-1.01004 2.57004-2.34011l.67007-7.56026c.02997-.28999.16999-.55001.39997-.73001 2.5101-1.93012 4.4802-4.22018 5.85024-6.81023.18-.34004.52999-.55007.92002-.55007h4.43015c.93003 0 1.70007-.75998 1.70007-1.70001v-5.92026zm-34.70977-23.48673c0-3.0103 2.44876-5.45911 5.45905-5.45911s5.46009 2.44882 5.46009 5.45911-2.44979 5.46003-5.46009 5.46003-5.45905-2.44973-5.45905-5.46003zm2.06464 0c0 1.87208 1.52233 3.39538 3.39441 3.39538 1.87311 0 3.39544-1.52331 3.39544-3.39538 0-1.87214-1.52233-3.39441-3.39544-3.39441-1.87208.00001-3.39441 1.52228-3.39441 3.39441z"/></svg>