<?xml version="1.0" encoding="UTF-8"?>
<svg id="Capa_1" data-name="Capa 1" xmlns="http://www.w3.org/2000/svg" version="1.1" viewBox="0 0 328.9 328.9">
  <defs>
    <style>
      .cls-1 {
        fill: #fff;
        stroke-width: 0px;
      }
    </style>
  </defs>
  <g id="_44-18Plus_movie" data-name="44-18Plus movie">
    <path class="cls-1" d="M104,220.4v-89.3h-20.6v-22.9h49.1v112.2h-28.5Z"/>
    <path class="cls-1" d="M239.6,137.2c0,9.8-5.3,18.4-14.1,23.2,12.3,5.1,20,15.8,20,28.3,0,20.2-17.9,33-45.9,33s-45.9-12.6-45.9-32.5,8.3-23.7,21.3-28.8c-9.4-5.3-15.5-14.2-15.5-24,0-17.9,15.7-29.3,40-29.3,24.6,0,40.2,11.7,40.2,30.1ZM180.5,186.4c0,9.4,6.7,14.7,19,14.7s19.2-5.1,19.2-14.7-6.9-14.6-19.2-14.6-19,5.3-19,14.6ZM183.4,138.8c0,8,5.8,12.5,16.2,12.5s16.2-4.5,16.2-12.5-5.8-13-16.2-13-16.2,4.6-16.2,13Z"/>
    <path class="cls-1" d="M292.9,120.9c4.7,14,7.1,28.6,7.1,43.5,0,74.8-60.8,135.6-135.6,135.6S28.9,239.2,28.9,164.4,89.7,28.9,164.4,28.9s29.5,2.4,43.5,7.1V5.8c-14.1-3.9-28.7-5.8-43.5-5.8C73.8,0,0,73.8,0,164.4s73.8,164.4,164.4,164.4,164.4-73.8,164.4-164.4-2-29.4-5.8-43.5c0,0-30.2,0-30.2,0Z"/>
    <polygon class="cls-1" points="284.7 44.1 284.7 12.6 262 12.6 262 44.1 230.6 44.1 230.6 66.8 262 66.8 262 98.3 284.7 98.3 284.7 66.8 316.2 66.8 316.2 44.1 284.7 44.1"/>
  </g>
</svg>