<?xml version="1.0" encoding="UTF-8"?>
<svg id="Image" xmlns="http://www.w3.org/2000/svg" version="1.1" viewBox="0 0 64 64">
  <defs>
    <style>
      .cls-1 {
        fill: none;
        stroke: #1d1d1b;
        stroke-linecap: round;
        stroke-linejoin: round;
        stroke-width: 2px;
      }
    </style>
  </defs>
  <path class="cls-1" d="M35,2l-3,2-3-2"/>
  <path class="cls-1" d="M35,62l-3-2-3,2"/>
  <path class="cls-1" d="M35,2l3,2,3-2"/>
  <path class="cls-1" d="M35,62l3-2,3,2"/>
  <path class="cls-1" d="M29,2l-3,2-3-2"/>
  <path class="cls-1" d="M29,62l-3-2-3,2"/>
  <path class="cls-1" d="M41,2l3,2,3-2"/>
  <path class="cls-1" d="M41,62l3-2,3,2"/>
  <path class="cls-1" d="M23,2l-3,2-3-2"/>
  <path class="cls-1" d="M23,62l-3-2-3,2"/>
  <path class="cls-1" d="M53,2v6l-2,3v42l2,3v6"/>
  <path class="cls-1" d="M11,2v6l2,3v42l-2,3v6"/>
  <path class="cls-1" d="M47,2l3,2,3-2"/>
  <path class="cls-1" d="M47,62l3-2,3,2"/>
  <path class="cls-1" d="M17,2l-3,2-3-2"/>
  <path class="cls-1" d="M17,62l-3-2-3,2"/>
  <path class="cls-1" d="M53,8h-30"/>
  <path class="cls-1" d="M48,56h-26"/>
  <path class="cls-1" d="M19,23v19"/>
  <path class="cls-1" d="M46,22v17"/>
  <path class="cls-1" d="M46,16l1-3"/>
  <path class="cls-1" d="M19,16l-1-4"/>
  <path class="cls-1" d="M46,46l1,4"/>
  <path class="cls-1" d="M19,48l-1,3"/>
</svg>