<svg clip-rule="evenodd" fill-rule="evenodd" stroke-linejoin="round" stroke-miterlimit="2" viewBox="0 0 32 32" xmlns="http://www.w3.org/2000/svg"><path d="m13 27.998h-3v-17c0-.53-.211-1.039-.586-1.414s-.884-.586-1.414-.586c-1.11 0-.89 0-2 0-.53 0-1.039.211-1.414.586s-.586.884-.586 1.414v17h-2c-.552 0-1 .448-1 1s.448 1 1 1h28c.552 0 1-.448 1-1s-.448-1-1-1h-2v-9c0-1.104-.895-2-2-2-1.11 0-.89 0-2 0-1.105 0-2 .896-2 2v9h-3v-13c0-.53-.211-1.039-.586-1.414s-.884-.586-1.414-.586c-1.11 0-.89 0-2 0-.53 0-1.039.211-1.414.586s-.586.884-.586 1.414zm11.551-16.052-.641.058c-.549.05-.955.536-.906 1.086.05.549.536.955 1.086.906l4-.36c.334-.03.631-.226.79-.522.16-.296.16-.651.001-.947l-1.849-3.442c-.261-.486-.867-.669-1.354-.408-.486.261-.669.868-.407 1.354l.29.541-17.133-8.116c-.499-.236-1.095-.023-1.332.476-.236.499-.023 1.095.476 1.332z"/></svg>