<?xml version="1.0" encoding="UTF-8"?>
<svg xmlns="http://www.w3.org/2000/svg" viewBox="0 0 64 64" width="512" height="512"><g id="Go_Green-2" data-name="Go Green"><path d="M59.67139,34.32861a4.53492,4.53492,0,0,0-6.41407,0l-7.76361,7.76361A3.987,3.987,0,0,0,42,40H30.64355a11.018,11.018,0,0,0-16.28466-.773L10,43.58594,8.707,42.293a.99962.99962,0,0,0-1.41406,0l-4,4a.99962.99962,0,0,0,0,1.41406l16,16a.99963.99963,0,0,0,1.41406,0l4-4a.99962.99962,0,0,0,0-1.41406L23.41406,57l1.12158-1.12158A3.022,3.022,0,0,1,26.65674,55H41.272a9.933,9.933,0,0,0,7.07129-2.9292L59.67139,40.74268a4.53492,4.53492,0,0,0,0-6.41407ZM20,61.58594,5.41406,47,8,44.41406,22.58594,59ZM58.25732,39.32861,46.9292,50.65674A7.94832,7.94832,0,0,1,41.272,53H26.65674a4.96656,4.96656,0,0,0-3.53516,1.46436L22,55.58594,11.41406,45,15.773,40.64111a9.0183,9.0183,0,0,1,13.45068.78369l.15381.19483A.99911.99911,0,0,0,30.16211,42H42a2,2,0,0,1,0,4H28a1,1,0,0,0,0,2H42a3.99169,3.99169,0,0,0,3.95343-3.53937l8.718-8.718a2.59634,2.59634,0,0,1,3.58593,0,2.53561,2.53561,0,0,1,0,3.58593Z"/><path d="M19.744,20.37775c-.014.01953-.035.03064-.04773.05145-.0033.00543-.00305.01172-.00623.01721A21.88447,21.88447,0,0,0,15,34c0,.16357.001.32617.01221.48926a1.00017,1.00017,0,0,0,.99658.93066c.02344,0,.04687-.001.07031-.00244a.99979.99979,0,0,0,.92822-1.06689C16.999,34.2334,17,34.1167,17,34a19.86711,19.86711,0,0,1,3.80994-11.69495c2.82806,1.84656,4.48333,3.63056,4.55139,4.9596a8.119,8.119,0,0,1-1.166,3.56836c-.29443.60791-.60351,1.24756-.88867,1.93262a1.00011,1.00011,0,1,0,1.84668.76855c.27-.64844.56348-1.25391.84229-1.82959a9.53237,9.53237,0,0,0,1.36279-4.5459c-.1034-2.017-1.89484-4.1737-5.29028-6.418a20.11291,20.11291,0,0,1,5.37561-4.30432c1.94769,3.79535,4.29126,5.79852,6.85022,5.79852a4.97972,4.97972,0,0,0,.55712-.03125A8.4423,8.4423,0,0,0,39.68652,20.291c.88037-.68067,1.24512-.96192,3.26368-.25684,1.88531.65637,3.87268-.1665,5.67321-2.30194a20.0178,20.0178,0,0,1,4.12738,3.96289A13.83458,13.83458,0,0,0,49.96,26.125c-.853,1.8623-1.42969,3.00928-2.49023,3.10889a15.59858,15.59858,0,0,1-2.06836-.00879c-2.63867-.12989-5.92041-.28369-8.26465,4.3247a10.6372,10.6372,0,0,0-1.05713,3.31153.9999.9999,0,0,0,.85156,1.1289A.97015.97015,0,0,0,37.07129,38a.99964.99964,0,0,0,.98877-.86133,8.52949,8.52949,0,0,1,.86084-2.68506c1.75586-3.45215,3.80078-3.35107,6.38525-3.23095a17.11739,17.11739,0,0,0,2.34766.00293c2.26807-.21387,3.21191-2.27491,4.12451-4.26807a13.10757,13.10757,0,0,1,2.144-3.60126A19.82756,19.82756,0,0,1,56.647,30.28369a.99991.99991,0,1,0,1.96582-.36719A21.98126,21.98126,0,0,0,38,12.04437V10.93945a2.987,2.987,0,0,1,1.67975-2.68524,5.92874,5.92874,0,0,0,4.497,2.06757,7.164,7.164,0,0,0,2.375-.42676A15.08409,15.08409,0,0,0,50.14844,8.064a3.4812,3.4812,0,0,1,3.603-.64746,1.00006,1.00006,0,0,0,1.03418-1.5874C54.57129,5.55664,49.47949-.82178,44.57813.09082c-4.73108.88184-5.28528,3.7514-5.51594,6.23993a4.98,4.98,0,0,0-2.06213,1.62543,4.9803,4.9803,0,0,0-2.06232-1.62574C34.707,3.842,34.15283.9726,29.42188.09082,24.52-.82666,19.42871,5.55713,19.21436,5.8291a1.00006,1.00006,0,0,0,1.03418,1.5874,3.48,3.48,0,0,1,3.603.64746A15.08409,15.08409,0,0,0,27.44824,9.895a7.14933,7.14933,0,0,0,2.375.42676,5.92925,5.92925,0,0,0,4.49707-2.06769A2.98713,2.98713,0,0,1,36,10.93945v1.08594A21.92939,21.92939,0,0,0,19.744,20.37775ZM44.94434,2.05664c2.19091-.41162,4.81005,1.49121,6.59326,3.19482A6.12561,6.12561,0,0,0,49.05176,6.3916a13.15788,13.15788,0,0,1-3.16211,1.61572,4.08309,4.08309,0,0,1-4.23535-.59625l2.64306-1.10931A.99989.99989,0,1,0,43.523,4.458l-2.342.98309C41.45892,3.73053,42.16119,2.57568,44.94434,2.05664Zm-16.834,5.95068A13.15788,13.15788,0,0,1,24.94824,6.3916,6.11593,6.11593,0,0,0,22.45947,5.251c1.78028-1.7041,4.3916-3.604,6.59619-3.19434,2.78315.51892,3.48529,1.674,3.76325,3.38428L30.47705,4.458a.99989.99989,0,1,0-.77441,1.84375l2.64349,1.10937A4.08664,4.08664,0,0,1,28.11035,8.00732Zm15.499,10.13819c-2.83008-.98731-3.87549-.41846-5.146.563a6.52361,6.52361,0,0,1-3.8335,1.50732c-2.36926.27155-4.27624-2.47589-5.39782-4.64508a19.99995,19.99995,0,0,1,17.69976,1.06879C46.06519,17.61523,44.84283,18.57642,43.60938,18.14551Z"/></g></svg>
