<?xml version="1.0" encoding="UTF-8"?>
<svg id="svg2484" xmlns="http://www.w3.org/2000/svg" version="1.1" xmlns:svg="http://www.w3.org/2000/svg" viewBox="0 0 82.4 82.4">
  <defs>
    <style>
      .cls-1 {
        fill: none;
        stroke: #1d1d1b;
        stroke-linecap: round;
        stroke-linejoin: round;
      }
    </style>
  </defs>
  <g id="g2490">
    <g id="g2492">
      <path id="path2494" class="cls-1" d="M59.9,51.4v-2.9" />
    </g>
    <g id="g2496">
      <path id="path2498" class="cls-1" d="M59.9,51.4v-2.9" />
    </g>
    <g id="g2500">
      <path id="path2502" class="cls-1" d="M42.7,39.9v11.5" />
    </g>
    <g id="g2504">
      <path id="path2506" class="cls-1" d="M42.7,39.9v11.5" />
    </g>
    <g id="g2508">
      <g id="g2510">
        <g id="g2516">
          <path id="path2518" class="cls-1" d="M68.5,48.6v9.3c0,4.8-1.9,10.5-5.1,13.6-3.1,3.1-7.4,5.1-12.2,5.4h-6.8c-10.5-.3-19.1-10.3-19.1-20.9h0c0-4.8,3.9-8.6,8.6-8.6h0v-20.6c0-1.2.5-2.3,1.3-3.1.8-.8,1.9-1.3,3.2-1.3,2.4,0,4.2,2,4.2,4.4v12.9c0-1.2.5-2.3,1.3-3.1s1.9-1.3,3.1-1.3,2.3.5,3.1,1.3c.8.8,1.3,1.9,1.3,3.1v4.3c0-1.2.5-2.3,1.3-3.1s1.9-1.3,3.1-1.3,2.3.5,3.1,1.3,1.3,1.9,1.3,3.1v4.3c0-1.2.5-2.3,1.3-3.1.8-.8,1.9-1.3,3.2-1.3,2.4,0,4.2,2,4.2,4.4Z" />
        </g>
        <g id="g2520">
          <path id="path2522" class="cls-1" d="M51.3,44.2v7.2" />
        </g>
        <g id="g2524">
          <path id="path2526" class="cls-1" d="M34,47.5v7.6" />
        </g>
        <g id="g2528">
          <path id="path2530" class="cls-1" d="M41.4,24c3.2-1.2,5.5-4.4,5.5-8.1s-3.9-8.6-8.6-8.6-8.6,3.9-8.6,8.6,2.3,6.8,5.5,8" />
        </g>
        <g id="g2532">
          <path id="path2534" class="cls-1" d="M29.7,16H6.5l5.2-5.2" />
        </g>
        <g id="g2536">
          <path id="path2538" class="cls-1" d="M6.5,16l5.2,5.2" />
        </g>
        <g id="g2540">
          <path id="path2542" class="cls-1" d="M47,16h28.9l-5.2-5.2" />
        </g>
        <g id="g2544">
          <path id="path2546" class="cls-1" d="M75.9,16l-5.2,5.2" />
        </g>
      </g>
    </g>
  </g>
</svg>