<svg height="512pt" viewBox="0 0 512 512" width="512pt" xmlns="http://www.w3.org/2000/svg"><path d="m511.621094 255.8125c0-68.332031-26.609375-132.570312-74.925782-180.886719-48.316406-48.316406-112.554687-74.925781-180.882812-74.925781-68.332031 0-132.570312 26.609375-180.886719 74.925781-48.316406 48.316407-74.925781 112.554688-74.925781 180.886719 0 68.328125 26.609375 132.566406 74.925781 180.882812 48.316407 48.316407 112.554688 74.925782 180.886719 74.925782 22.742188 0 45.023438-2.96875 66.421875-8.6875 6.566406 3.347656 13.621094 5.847656 21.039063 7.367187 5.566406 1.136719 11.15625 1.699219 16.707031 1.699219 15.988281 0 31.640625-4.667969 45.289062-13.679688 18.390625-12.140624 30.949219-30.71875 35.367188-52.304687 1.03125-5.035156 1.570312-10.09375 1.664062-15.121094 44.757813-47.601562 69.320313-109.453125 69.320313-175.082031zm-481.644532 0c0-124.527344 101.308594-225.835938 225.835938-225.835938 124.523438 0 225.832031 101.308594 225.832031 225.835938 0 52.011719-17.6875 99.96875-47.351562 138.191406-1.636719-3.425781-3.507813-6.761718-5.636719-9.984375l-28.699219-43.464843c5.871094-9.464844 10.839844-19.527344 14.789063-30.109376l-28.082032-10.484374c-20.277343 54.316406-72.859374 90.808593-130.851562 90.808593s-110.574219-36.492187-130.851562-90.808593l-28.082032 10.484374c11.964844 32.054688 33.117188 59.476563 61.167969 79.300782 28.53125 20.160156 62.113281 30.871094 97.144531 30.996094l35.78125 54.191406c.800782 1.210937 1.632813 2.394531 2.488282 3.554687-12.246094 2.066407-24.824219 3.152344-37.648438 3.152344-124.527344.003906-225.835938-101.304687-225.835938-225.828125zm381.289063 184.191406c-2.8125 13.746094-10.808594 25.570313-22.511719 33.300782-24.167968 15.957031-56.8125 9.277343-72.769531-14.890626l-27.007813-40.902343c14.546876-2.878907 28.613282-7.652344 41.914063-14.238281l23.789063 36.03125 25.015624-16.515626-23.222656-35.171874c8.832032-6.519532 16.945313-13.800782 24.269532-21.761719l22.898437 34.683593c7.730469 11.707032 10.4375 25.722657 7.625 39.464844zm0 0"/><path d="m171.738281 196.882812c14.140625 0 25.648438 11.503907 25.648438 25.648438h29.976562c0-30.671875-24.953125-55.625-55.625-55.625s-55.628906 24.953125-55.628906 55.621094h29.980469c0-14.140625 11.503906-25.644532 25.648437-25.644532zm0 0"/><path d="m339.882812 196.882812c14.144532 0 25.648438 11.503907 25.648438 25.648438h29.976562c0-30.671875-24.953124-55.625-55.625-55.625-30.671874 0-55.625 24.953125-55.625 55.621094h29.976563c0-14.140625 11.507813-25.644532 25.648437-25.644532zm0 0"/></svg>