<svg id="Capa_1" enable-background="new 0 0 511.973 511.973" viewBox="0 0 511.973 511.973" xmlns="http://www.w3.org/2000/svg"><g><g><path d="m308.775 314.733c2.212 5.369 3.373 11.171 3.373 17.153 0 6.255-1.278 12.31-3.692 17.882l134.712 134.712c5.319 5.319 12.29 7.978 19.262 7.978 6.971 0 13.943-2.659 19.262-7.978l16.169-16.169c10.638-10.638 10.638-27.885 0-38.523l-152.07-152.07z"/></g><g><path d="m158.593 199.904 32.643 32.643c5.572-2.414 11.627-3.692 17.882-3.692 5.982 0 11.785 1.161 17.154 3.374l37.015-37.016-50.001-50.001z"/></g><g><path d="m126.022 186.915c2.477-.437 4.759-1.625 6.538-3.404l63.302-63.302c1.981-1.98 3.223-4.58 3.521-7.365l1.223-11.436c.666-6.23 5.924-10.956 12.19-10.956h37.182c4.45 0 7.989-3.853 7.475-8.272-4.098-35.28-34.08-62.664-70.459-62.664h-30.527c-3.251 0-6.37 1.292-8.669 3.591l-87.947 87.947c-1.7 1.701-2.863 3.864-3.344 6.22l-3.649 17.899c-.98 4.808-4.732 8.567-9.537 9.558l-18.007 3.713c-2.346.484-4.499 1.645-6.193 3.338l-15.53 15.531c-4.788 4.788-4.788 12.55 0 17.337l55.246 55.246c2.394 2.394 5.531 3.591 8.669 3.591s6.275-1.197 8.669-3.591l15.407-15.407c1.772-1.772 2.958-4.044 3.399-6.51l3.219-17.994c.905-5.062 4.873-9.021 9.937-9.914z"/></g><g><path d="m424.187 156.894-40.072-40.084-134.201 134.202 40.077 40.078z"/></g><g><path d="m65.179 396.58c-21.848 21.848-21.848 57.396 0 79.245 10.924 10.923 25.273 16.385 39.622 16.385s28.698-5.462 39.622-16.386l95.075-95.075-79.244-79.244z"/></g><g><path d="m260.711 359.536 17.043-17.043c2.813-2.813 4.394-6.628 4.394-10.606 0-3.979-1.581-7.793-4.394-10.606l-58.031-58.031c-2.929-2.929-6.768-4.394-10.606-4.394-3.839 0-7.678 1.464-10.606 4.394l-17.043 17.043z"/></g><g><path d="m405.043 89.654c-.606 3.082.358 6.249 2.58 8.471l35.256 35.256c2.221 2.221 5.387 3.185 8.471 2.58l23.966-4.715c2.853-.562 5.326-2.451 6.616-5.056l29.062-58.671c1.793-3.621 1.079-7.974-1.778-10.831l-24.898-24.899c-1.808-1.807-4.214-2.757-6.654-2.757-1.417 0-2.846.32-4.177.979l-58.671 29.062c-2.605 1.291-4.495 3.764-5.057 6.616z"/></g></g><g/><g/><g/><g/><g/><g/><g/><g/><g/><g/><g/><g/><g/><g/><g/></svg>