<svg id="&#x421;&#x43B;&#x43E;&#x439;_1" enable-background="new 0 0 500 500" viewBox="0 0 500 500" xmlns="http://www.w3.org/2000/svg"><switch><foreignObject height="1" requiredExtensions="http://ns.adobe.com/AdobeIllustrator/10.0/" width="1"/><g><g><path d="m147.1269531 102.7504883c1.3442383 2.0483398 3.5791016 3.1601562 5.8583984 3.1601562 1.3178711 0 2.6508789-.371582 3.8344727-1.1489258 3.2324219-2.1210938 4.1323242-6.4609375 2.0112305-9.6928711l-38.1425781-58.112793c-2.1220703-3.2324219-6.4619141-4.1333008-9.6928711-2.0112305-3.2324219 2.121582-4.1323242 6.4609375-2.0112305 9.6928711z"/><path d="m249.3193359 104.7617188c1.184082.7773438 2.5166016 1.1489258 3.8339844 1.1489258 2.2792969 0 4.5146484-1.1123047 5.859375-3.1601562l38.1425781-58.112793c2.1210938-3.2319336 1.2207031-7.5712891-2.0117188-9.6928711-3.2304688-2.1225586-7.5712891-1.2202148-9.6933594 2.0112305l-38.1420898 58.112793c-2.1210937 3.2319334-1.2211913 7.5717772 2.0112305 9.692871z"/><path d="m203.0698242 97.6787109c3.8662109 0 7-3.1337891 7-7v-83.6787109c0-3.8662109-3.1337891-7-7-7s-7 3.1337891-7 7v83.6787109c0 3.866211 3.1337891 7 7 7z"/><path d="m416.0732422 297.0869141c-.0263672-.0273438-.0546875-.0537109-.0820312-.0810547l-.3720703-.3603516c-5.8061523-5.7890015-13.2814331-9.2976685-21.3374023-10.0767822 7.7772827-13.4292603 5.932373-30.9492188-5.5454102-42.4315186l-.4013672-.4008789c-6.0700073-6.0722656-13.9758301-9.6368408-22.4661865-10.1954956 6.2506104-13.0582886 3.9827271-29.2088013-6.8189697-40.0139771l-.4003906-.4003906c-5.5245972-5.5270386-12.2756958-9.1654663-19.355835-10.5143433l60.9710693-60.9915161c13.6757812-13.6801758 13.6767578-35.9516602.0029297-49.6459961-.0263672-.0273438-.0546875-.0546875-.0820312-.081543l-.3691406-.3579102c-6.6259766-6.6074219-15.4238281-10.2456055-24.7802734-10.2456055-9.3740234 0-18.1884766 3.652832-24.828125 10.2944336l-175.9448244 176.6601564c-4.8481445-24.9897461-15.03125-77.4902344-15.1538086-78.1201172-1.7373047-9.543457-7.1166992-17.7939453-15.1474609-23.230957-8.0224609-5.4321289-17.668457-7.3608398-27.140625-5.4375l-.5932617.1191406c-18.9541016 3.8486328-31.5527344 22.4658203-28.0839844 41.5019531 8.2290039 45.1274414 5.9711914 117.0297852 5.0073242 147.7338867-.1943359 6.1816406-.3344727 10.6474609-.3295898 13.0380859.019043 9.6044922-6.8408203 21.578125-11.8500977 30.3212891-.5830078 1.0175781-1.1416016 1.9931641-1.6640625 2.9189453-4.6323242 8.2138672-6.4990234 17.6611328-5.2553711 26.6035156.8007812 5.7636719 2.7358398 10.2158203 5.7895508 13.2714844l78.1669922 77.0175781c3.9975586 3.9990236 10.3349609 6.0185548 18.8637695 6.0185548.9628906 0 1.9541016-.0253906 2.9726562-.0771484 5.9189453-.2988281 11.7167969-1.8740234 17.2333984-4.6796875 3.5610352-1.8115234 7.0063477-3.7216797 10.3378906-5.5683594 10.8852539-6.0332031 21.1669922-11.7314453 33.3525391-12.8066406 3.0141602-.265625 5.9350586-.4658203 8.7597656-.6591797 13.6567383-.9345703 26.5561523-1.8173828 41.4038086-9.9355469 21.6425781-11.8339844 38.4453125-30.2246094 54.6953125-48.0097656 5.8837891-6.4404297 11.4423828-12.5234375 17.1855469-18.2666016l53.2597656-53.265625c13.6669923-13.6875 13.6669923-35.9570312.0000001-49.6445312zm-9.9033203 39.7490234-53.2568359 53.2617188c-5.9658203 5.9667969-11.8916016 12.4511719-17.6210938 18.7226562-15.4765625 16.9394531-31.4794922 34.4550781-51.0761719 45.1699219-12.1513672 6.6435547-22.5185547 7.3535156-35.6430664 8.2519531-2.8920898.1972656-5.8828125.4023438-9.0336914.6806641-15.1445312 1.3349609-27.2260742 8.03125-38.909668 14.5078125-3.2246094 1.7871094-6.559082 3.6357422-9.8984375 5.3339844-3.7509766 1.9082031-7.6513672 2.9765625-11.5927734 3.1757812-6.5878906.3349609-10.1640625-.7919922-11.265625-1.8945312l-78.1660156-77.0166016c-.5932617-.5927734-1.3740234-2.2880859-1.7880859-5.2646484-.8232422-5.9208984.4492188-12.2412109 3.5834961-17.7978516.5078125-.9003906 1.0507812-1.8476562 1.6176758-2.8369141 5.7939453-10.1132812 13.7290039-23.9638672 13.7021484-37.3085938-.0043945-2.1572266.1401367-6.7529297.3227539-12.5712891.9780273-31.1494141 3.2680664-104.09375-5.2275391-150.684082-2.1123047-11.5913086 5.5576172-22.9282227 17.0791016-25.2675781l.59375-.1191406c5.7729492-1.1728516 11.6416016.0014648 16.5229492 3.3066406 4.8896484 3.3105469 8.1650391 8.3339844 9.237793 14.2250977l17.4853516 90.1376953c1.2734375 6.5566406 5.840332 6.8447266 7.7392578 6.6572266 1.6230469-.1552734 3.140625-.8730469 4.2915039-2.0283203l185.2514648-186.0048829c3.9863281-3.9873047 9.2841797-6.1831055 14.9179688-6.1831055 5.6347656 0 10.9326172 2.1958008 14.9189453 6.1831055.0263672.0263672.0527344.0527344.0791016.0786133l.3652344.3535156c8.1865234 8.2402344 8.1748047 21.6049805-.0351562 29.8183594l-137.9843752 138.0302735c-2.0509644 2.0513306-2.562561 5.059082-1.5353394 7.5873413.3417969.8470459.8554688 1.6408691 1.5421753 2.3272095 2.7353516 2.7353516 7.1679688 2.7324219 9.8994141-.0009766l58.1884766-58.206543c3.8330078-3.8349609 8.5791016-5.7041016 13.734375-5.4101562 5.1777344.2978516 10.3408203 2.7744141 14.5390625 6.9746094l.4013672.4008789c8.2275391 8.2304688 8.2275391 21.6230469 0 29.8540039l-56.6230469 56.6420898c-2.7333984 2.734375-2.7324219 7.1669922.0009766 9.8994141 2.5634766 2.5634766 6.6195679 2.7228394 9.367981.4796753.1832275-.1495361.3606567-.3097534.5314331-.4806519l46.1699219-46.1855469c3.984375-3.9858398 9.2822266-6.1806641 14.9189453-6.1806641s10.9345703 2.1948242 14.9189453 6.1816406l.4013672.4003906c8.2275391 8.2304688 8.2275391 21.6230469 0 29.8535156l-12.4124146 12.416626c-.1323853.128418-.2693481.2504272-.4000854.3812256l-33.3623047 33.3740234c-2.050293 2.0510254-2.5620117 5.0574951-1.5362549 7.5852661.3417358.84729.8553467 1.6412964 1.5421143 2.3278198 1.3671875 1.3671875 3.1582031 2.0498047 4.9492188 2.0498047 1.7919922 0 3.5839844-.6835938 4.9501953-2.0507812l33.5620728-33.5734253c3.9628906-3.864563 9.1722412-5.9978638 14.7133179-5.9978638 5.6347656 0 10.9326172 2.1953125 14.9189453 6.1835938.0253906.0263672.0527344.0517578.0791016.078125l.3642578.3535156c8.182617 8.2353517 8.1699216 21.6015626-.0341799 29.8183595z"/></g></g></switch></svg>