<svg id="Layer_1" viewBox="0 0 64 64" xmlns="http://www.w3.org/2000/svg" data-name="Layer 1">
  <defs>
    <style>
      .cls-1 {
        fill: #fff;
        stroke-width: 0px;
      }
    </style>
  </defs>
  <path class="cls-1" d="m47.85 34.16v-3.86a2.41 2.41 0 0 0 -2.4-2.4h-1.45v-9.68h1.53a1 1 0 0 0 1-1v-4.81a1 1 0 0 0 -1-1h-1.82v-4.41a5 5 0 0 0 -10.09 0v4.37h-1.81a1 1 0 0 0 -1 1v4.81a1 1 0 0 0 1 1h1.53v9.72h-13.79a3.41 3.41 0 0 0 -3.4 3.4v27.3a3.41 3.41 0 0 0 3.4 3.4h24.9a3.41 3.41 0 0 0 3.4-3.4v-3.53-20.9zm-2 19.9h-3.24a1.13 1.13 0 0 1 -1.13-1.12v-16.65a1.14 1.14 0 0 1 1.13-1.13h3.24zm-10.23-47.06a3 3 0 0 1 6.09 0v4.37h-6.09zm-2.81 6.37h11.71v2.81h-11.71zm2.53 4.81h6.66v9.72h-6.66zm9.11 41.82h-24.9a1.4 1.4 0 0 1 -1.4-1.4v-27.3a1.4 1.4 0 0 1 1.4-1.4h25.9a.4.4 0 0 1 .4.4v2.86h-3.24a3.13 3.13 0 0 0 -3.13 3.13v16.65a3.13 3.13 0 0 0 3.13 3.12h3.24v2.54a1.4 1.4 0 0 1 -1.4 1.4z" />
  <path class="cls-1" d="m21.84 34.19a1 1 0 0 0 -1 1v2.58a1 1 0 0 0 2 0v-2.58a1 1 0 0 0 -1-1z" />
  <path class="cls-1" d="m21.84 41a1 1 0 0 0 -1 1v10.81a1 1 0 0 0 2 0v-10.81a1 1 0 0 0 -1-1z" />
</svg>