<svg id="Layer_1" fill="#FFFFFF" enable-background="new 0 0 512 512" height="512" viewBox="0 0 512 512" width="512" xmlns="http://www.w3.org/2000/svg">
  <g>
    <g>
      <path d="m109.413 26h-83.826c-14.109 0-25.587 11.479-25.587 25.587v329.066c.344 9.931 14.659 9.923 15 0v-273.013h105v352.773c0 5.838-4.749 10.587-10.587 10.587h-83.826c-5.838 0-10.587-4.749-10.587-10.587v-46.199c-.344-9.931-14.659-9.923-15 0v46.199c0 14.108 11.478 25.587 25.587 25.587h83.826c14.109 0 25.587-11.479 25.587-25.587v-408.826c0-14.108-11.478-25.587-25.587-25.587zm-94.413 66.64v-41.053c0-5.838 4.749-10.587 10.587-10.587h83.826c5.838 0 10.587 4.749 10.587 10.587v41.053z" />
      <path d="m79.392 402.172c10.488 0 19.021-8.533 19.021-19.021v-193.873c0-10.488-8.533-19.021-19.021-19.021h-23.784c-10.488 0-19.021 8.533-19.021 19.021v193.872c0 10.488 8.533 19.021 19.021 19.021h23.784zm-27.805-19.022v-193.872c0-2.218 1.804-4.021 4.021-4.021h23.784c2.217 0 4.021 1.804 4.021 4.021v193.872c0 2.218-1.804 4.021-4.021 4.021h-23.784c-2.217.001-4.021-1.803-4.021-4.021z" />
      <path d="m297.913 26h-83.826c-14.109 0-25.587 11.479-25.587 25.587v408.826c0 14.108 11.478 25.587 25.587 25.587h83.826c14.108 0 25.587-11.479 25.587-25.587v-408.826c0-14.108-11.479-25.587-25.587-25.587zm-94.413 25.587c0-5.838 4.749-10.587 10.587-10.587h83.826c5.838 0 10.587 4.749 10.587 10.587v41.053h-105zm105 408.826c0 5.838-4.749 10.587-10.587 10.587h-83.826c-5.838 0-10.587-4.749-10.587-10.587v-352.773h105z" />
      <path d="m244.108 402.172h23.784c10.488 0 19.021-8.533 19.021-19.021v-193.873c0-10.488-8.533-19.021-19.021-19.021h-23.784c-10.488 0-19.021 8.533-19.021 19.021v193.872c0 10.489 8.533 19.022 19.021 19.022zm-4.021-212.894c0-2.218 1.804-4.021 4.021-4.021h23.784c2.218 0 4.021 1.804 4.021 4.021v193.872c0 2.218-1.804 4.021-4.021 4.021h-23.784c-2.217 0-4.021-1.804-4.021-4.021z" />
      <path d="m486.413 26h-83.826c-14.108 0-25.587 11.479-25.587 25.587v408.826c0 14.108 11.479 25.587 25.587 25.587h83.826c14.108 0 25.587-11.479 25.587-25.587v-291.78c-.344-9.931-14.66-9.923-15 0v291.78c0 5.838-4.749 10.587-10.587 10.587h-83.826c-5.838 0-10.587-4.749-10.587-10.587v-352.773h105v25.831c.344 9.931 14.66 9.923 15 0v-81.884c0-14.108-11.479-25.587-25.587-25.587zm-94.413 66.64v-41.053c0-5.838 4.749-10.587 10.587-10.587h83.826c5.838 0 10.587 4.749 10.587 10.587v41.053z" />
      <path d="m432.608 170.257c-10.488 0-19.021 8.533-19.021 19.021v193.872c0 10.488 8.533 19.021 19.021 19.021h23.783c10.488 0 19.021-8.533 19.021-19.021v-193.872c0-10.488-8.533-19.021-19.021-19.021zm27.805 19.021v193.872c0 2.218-1.804 4.021-4.021 4.021h-23.783c-2.218 0-4.021-1.804-4.021-4.021v-193.872c0-2.218 1.804-4.021 4.021-4.021h23.783c2.217 0 4.021 1.804 4.021 4.021z" />
    </g>
  </g>
</svg>