<?xml version="1.0" encoding="UTF-8"?>
<svg id="Lager_2" xmlns="http://www.w3.org/2000/svg" version="1.1" viewBox="0 0 400 400">
  <!-- Generator: Adobe Illustrator 29.8.2, SVG Export Plug-In . SVG Version: 2.1.1 Build 3)  -->
  <defs>
    <style>
      .st0 {
        fill: #f8f6f9;
      }

      .st1 {
        fill: #141110;
      }
    </style>
  </defs>
  <path class="st1" d="M190.7,198.5c-44.9,18.1-89.8,36.2-134.8,54.3-30.8-2.9-53.3-29.7-51.3-58.6,1.8-26.2,23.5-48.3,51.3-50.8l134.8,55.1Z"/>
  <rect class="st0" x="67.3" y="187" width="19.4" height="16.6" transform="translate(-115.6 111.6) rotate(-45)"/>
  <rect class="st0" x="51.4" y="202.5" width="19.4" height="16.6" transform="translate(-131.2 104.9) rotate(-45)"/>
  <rect class="st0" x="37.1" y="188.6" width="19.4" height="16.6" transform="translate(-125.5 90.8) rotate(-45)"/>
  <rect class="st0" x="53.3" y="173.3" width="19.4" height="16.6" transform="translate(-110 97.7) rotate(-45)"/>
  <path class="st1" d="M138.8,58c-21.4-17.9-52.4-17.6-72.2-.4-21.8,19-24.9,53.9-5.1,77.7,44.6,19,89.1,37.9,133.7,56.9l-56.4-134.2ZM118.9,110.3c-7.2,11.6-19.7,18.8-33.6,17.6-1.8-.2-9.2-1.6-9.9-3-1.4-2.7,3.5-2.4,4.9-2.9,8.9-3,14.4-10.1,16.9-18.9,2.4-8.5-.3-17.9,9.2-22.4,1-.5,3.9-1,4.3-1.4,1.2-1.7-.2-8.7-1.2-10.8-1-1.9-5-4.8-3.1-6.8,3.7-3.7,8,7.2,8.5,9.7.3,1.6.2,7.3.5,7.8.3.6,4.2,2.3,5.5,3.4,7.7,6.8,2.7,20.3-1.9,27.7Z"/>
  <g>
    <path class="st1" d="M203.3,83.7c-2.3.7-1.8,5.9.9,5.7,2.6-.3,2.7-6.7-.9-5.7Z"/>
    <path class="st1" d="M200.3,49.4l-2.6-.3c-2.3,4.7,2.6,4.7,2.6.3Z"/>
    <path class="st1" d="M203.2,58.7c-1.7.5-2.4,6.5.9,6.2,3.3-.3,1.9-7-.9-6.2Z"/>
    <path class="st1" d="M187.7,56.7c-1.8.6-2.3,6,.9,5.7,3-.3,2.5-6.7-.9-5.7Z"/>
    <path class="st1" d="M194.5,71.2c-2.2.6-2.1,5.9.9,5.7,2.9-.3,2.6-6.6-.9-5.7Z"/>
    <path class="st1" d="M212.1,71.2c-2.2.6-2.1,5.9.9,5.7,2.9-.3,2.6-6.6-.9-5.7Z"/>
    <path class="st1" d="M208,3.8c-28.8-2-55.7,20.5-58.6,51.3,18.1,44.9,36.2,89.8,54.3,134.8l55.1-134.8c-2.5-27.8-24.6-49.5-50.8-51.3ZM192.7,33.4c2.2,1,3.9,3,6.1,4,.2-1.8,3.3-11.5,4.5-11.9,2.1-.7,3,2.4,3.7,4,.6,1.3,2,7.8,2.5,7.9,2.5-1.9,5-3.9,8-4.9,9.4-3.2,3,5.5.7,9.5-6.1-1.2-12.3-2-18.6-1.5-1.9.1-8.8,1.8-9.8,1.5-.8-.3-4.2-7.5-4.4-8.6-.5-3.2,5.9-.7,7.3,0ZM230.9,64.6c-.8,7.7-14.5,29-21.3,32.7-12.2,6.6-23.8-13.1-28.6-22.2-9.9-19.1.2-30.9,20.2-31.8,14-.6,31.3,3.9,29.6,21.3Z"/>
    <path class="st1" d="M219.2,56.2c-2.2.2-3,6.5.5,6.1,2.9-.3,2-6.3-.5-6.1Z"/>
  </g>
  <path class="st1" d="M346.6,63.7c-19-21.8-53.9-24.9-77.7-5.1-19,44.6-37.9,89.1-56.9,133.7l134.2-56.4c17.9-21.4,17.6-52.4.4-72.2ZM296.1,87.9c.7-1.9,5-13.9,7-15.4,4-1.3,12.1,7,14.1,10.1,7.4,8.9-7.3,6.8-12.6,6.9-2,0-8.9,2.1-8.5-1.7ZM320.4,92.9c3.1,1.8-1.1,12.9-2.9,15.3-1.3,1.7-1.9,2-3.8.8-2.7-1.8-13.1-10.6-15.1-12.9-.7-.8-1.3-1.2-1-2.4.7-.9,21.6-1.5,22.8-.8ZM300.4,101.5c1.9,1.5,10.4,8.7,11.2,10.1,1.1,1.9.1,2.8-1.3,3.9-3.1,2.5-11.1,4.9-15,4.2-1.4-.3-1.7-1.5-1.8-2.8-.2-2.1-.2-17.3.3-18.4.1-.3.8-1,1.1-1,.5,0,4.8,3.5,5.6,4.1ZM291.2,90.7c4-1.2,4.4,4.8,1,4.5-2.4-.2-3.5-3.7-1-4.5ZM275,106.7c1.4-1.3,12.6-9.6,13.6-9.7.6,0,1.1.4,1.7.4v20.5c0,.4-1.7,1.2-2.3,1.2-2.7,0-10.8-4.3-13-6.2-3.3-2.8-3-3.4,0-6.2ZM278.5,127c-3.1-1.4-12.2-7.5-13.4-10.5-.6-1.5,2.6-4.4,3.7-4.6.6,0,4.7,3.8,5.7,4.5,32.8,22,67.5-16.1,40.9-40.9-1.9-1.7-10.6-6.7-10.9-7.3-.5-1,1.1-4.3,2.2-4.6,3.6-.9,14.8,8.2,17.3,11.1,25.5,30.1-10.5,68.3-45.5,52.2Z"/>
  <g>
    <path class="st1" d="M357.1,196.4c-1.3-.2-1.9-1.6-2.9-2.3-.7-.5-2.5-.7-2.6-.8-.2-.3,0-6.3,0-7.5s-3.1-1-3.1,0v7.5c0,.1-1.8.3-2.6.8-1,.7-1.7,2.1-2.9,2.3-1.9.3-7.5-3.3-8-.2-.3,2,6.4,3.2,7.7,3.9-.4,1.3,1.2,3.7,1.1,4.3-.2,1-5.3,3.3-4.6,5.7,1,3.6,6.1-3.6,7.1-3.8.5-.1,2.1,1,3.6,1,1.5,0,3.4-1.1,4.1-1,1.3.3,5,6.7,6.8,4.1,1.7-2.3-4.1-5.1-4.4-6.6,0-.2,1-3.6,1.1-3.7.7-1,8.5-1.7,8.2-3.9-.5-3.1-6.7.5-8.5.2ZM352.3,202.6c-4.7,3.1-8.1-4.6-3.8-5.8,4.8-1.4,7.3,3.5,3.8,5.8Z"/>
    <path class="st1" d="M348.6,145.6c-44.9,18.1-89.8,36.2-134.8,54.3l134.8,55.1c27.8-2.5,49.5-24.6,51.3-50.8,2-28.8-20.5-55.7-51.3-58.6ZM372.3,203.2c-1.5.7-6.7,1.9-6.9,2.1-.3.3,0,.7.3,1,.8.9,2,1.8,2.7,2.9,1.4,2.3,5.1,12.5,2.2,13.9-3.1,1.5-12.1-2.3-14.8-4.4-1.2-.9-5.2-5.8-5.7-5.7-3.3,4.6-7.8,8.1-13.3,9.5-2.6.7-7.4,2.3-7.7-1.5-.5-5.5,2.8-11.7,6.3-15.8-5.8-1-11.2-4.1-14.7-8.9-2.8-3.8-2.7-4.8,1.9-6.3,6.8-2.2,13.2-1.6,19.6,1.2-1.3-6.6,0-13,4.4-18.2,3.4-4.1,4.4-4.1,7.7,0,3.5,4.3,5.3,9.2,4.9,14.7,0,.9-1.5,3.9-.2,3.9.2,0,2.8-1.6,3.8-1.9,1.9-.6,5.2-1.2,7.1-1.2,1.9,0,11.6,1.8,12.1,3.5,1.2,3.4-6.8,9.6-9.6,11Z"/>
  </g>
  <path class="st1" d="M343.5,263.1c-44.6-19-89.1-37.9-133.7-56.9l56.4,134.2c21.4,17.9,52.4,17.6,72.2.4,21.8-19,24.9-53.9,5.1-77.7ZM315.3,324c-1,.4-7.8,2.8-7.8,1v-8.8c0-.7,8.7-8.2,9.9-9.3,1.3-1.8,0-4.5-2.2-3.8-1.4.4-5.4,6-7.6,6.7v-10.6c0-.6,8.8-7.9,8.8-9.3,0-1.5-2-2.1-3.3-1.7-1.5.4-3.8,4.4-5.6,5.1v-12.7c0-1.5-4.2-1.9-4.2.5v12.2c-1.7-.7-4.1-4.7-5.6-5.1-1.3-.4-3.3.2-3.3,1.7,0,1.4,8.8,8.7,8.8,9.3v10.6c-2.3-1.2-6.9-8.5-9.6-6.3-.6.4-.8,1.1-.8,1.8.2,2.1,8.9,8.1,10.4,10.4v19.5c0,.2-3.6,1-3.6-.3v-8.3c0-1.6-4.4-2.4-5.7-3.1-21.8-11.3-8.7-41.3,5.5-53.7,3.8-3.3,5.1-5.6,9.4-2.1,8.9,7.4,18.6,20.5,19.5,32.4.8,10.5-2.9,19.9-13,23.9Z"/>
  <path class="st1" d="M61.3,261.7c-17.9,21.4-17.6,52.4-.4,72.2,19,21.8,53.9,24.9,77.7,5.1,19-44.6,37.9-89.1,56.9-133.7l-134.2,56.4ZM116.2,286.8c5.5-1.2,6.4,6.3,1.8,7.1-4.3.8-6.4-6.1-1.8-7.1ZM105.3,274.9c5.5-1.2,6.3,6.6,1.4,7-4,.4-5.5-6.1-1.4-7ZM93.2,287.2c3.8-2.3,7.9,2.7,4.8,5.6-3.7,3.4-9.5-2.8-4.8-5.6ZM135,317.6c-3.9,5-10.3,9-16.6,5.7-2.4-1.2-2.7-3.4-4.7-4.7-8.2-5.5-15.8,9.5-25.8,5-3.3-1.5-2.9-6.4-8.7-6.4-6.6,0-10.3,4.5-15.4,6.4-2.4.9-3,0-1.6-2.2,3.7-5.7,18.2-16.6,25-17.5,1.6-.2,6.3-.8,5.6,1.9-.9,3.7-2,6.9,3.2,7.7,8.5,1.3,14.3-10.1,23.2-9.8,5.7.2,2,3.1,2.3,6,.4,3.2,4,5,7,5,3.3,0,12.6-5,6.5,2.8Z"/>
  <path class="st1" d="M203.4,209l-55.1,134.8c2.5,27.8,24.6,49.5,50.8,51.3,28.8,2,55.7-20.5,58.6-51.3-18.1-44.9-36.2-89.8-54.3-134.8ZM220,334.4c12.6-4.5,8.8,6.7-1.5,7.3-2.1.1-4-.4-6-.3l-5.2,10.7c4.2-1.2,7.1-2.6,11.7-2.1,10.8,1.2,1.5,7.4-4.7,7.8-2.4.1-8.9-2.1-9.6-1.8-1.5.7-6.2,8.6-8.3,9.9,4.6,0,7.1-1.3,11.9,0,13.8,3.6-1,9.5-10.1,6-1.4-.5-4-2.8-5.1-2.6-.4,0-4.6,4.1-5.6,4.8-1.9,1.4-9.2,7.6-9.7,2-.2-2.5,9.6-7.9,11.3-10.3-3.1-4.4-6.1-9.3-5.7-15,.5-6,3.4-5.4,6.1-.9,2.1,3.5,2.8,7.8,2.7,11.8,1.1,1.1,1-.5,1.5-1,1.2-1.3,6.2-6.4,6.2-7.8,0-1.1-2.6-2.9-3.3-3.9-4.6-6.4-3.9-20.7,2.9-10.2,2,3,2.4,6.2,3,9.7.7.5,5-7.8,5.1-8.7.1-1.1-3.1-2.9-4-4.1-4.2-4.8-6-16.2,2.3-8l3.9,7.3c.2-2,2.6-6.4,2.4-8.1,0-.4-4.7-3.9-5.6-5.6-5.1-8.9,5.1-5.6,6.6.7,1.7-1.5.3-3.6.2-5.4,0-2.2.8-13.5,4.6-7.7,2.5,3.8.7,7.4-.3,11-.2.6-.8,2.6-.2,3,2.1-.9,3-3.2,5.2-4.2,8.7-3.9,5.1,5.7-1.8,8.1-1.3.4-2.5.3-3.5.6-1.7.5-2.6,7.7-3.5,9.7,2.3,0,3.7-1.8,5.9-2.6Z"/>
</svg>