<?xml version="1.0" encoding="UTF-8"?>
<svg id="Lager_1" data-name="Lager 1" xmlns="http://www.w3.org/2000/svg" version="1.1" viewBox="0 0 400 400">
  <defs>
    <style>
      .cls-1 {
        fill: #000;
      }

      .cls-1 {
        stroke-width: 0px;
      }
    </style>
  </defs>
  <path class="cls-1" d="M264.8,315.9c-4.3,18.8-16.9,30.7-31.8,41.4-7.5,5.4-12.7,13.8-18.2,22,1.8-.8,3.7-1.5,5.4-2.5,14.6-8.3,29.2-16.9,43.9-25.1,10.1-5.6,15.6-3.5,20.7,7.3,6.1-2,12.5-4.3,17.5,2.7,4.2,5.9,1.5,11.1-1.4,16,.7,4.8,9.5,8.7,1.4,14.7-2.4-3.3-4.4-6-6.3-8.5-6.1,3-11.7,6-17.5,8.3-1.6.6-4-1-6-1.5,1.2-1.6,2.1-3.6,3.6-4.6,5.9-3.9,12.3-7.1,17.7-11.4,2-1.6,2-5.7,2.9-8.6-3.1,0-6.5-.7-9.2.5-3.7,1.6-6.7,4.9-10.3,6.9-10.4,6-20.8,11.8-31.4,17.3-2.2,1.1-5.3.3-8,.4,1.9-2.1,3.5-4.7,5.8-6.1,8.5-5.2,17.3-10,26-14.9.6-.4,1.3-.7,1.8-1.2,3.1-2.9,8.2-5.4,4.8-10.6-3.4-5.2-7.5-1.3-10.8.6-16,9-31.7,18.3-47.8,27.1-4.8,2.7-10.4,4.1-15.7,5.7-1.4.4-3.3-1-5-1.5.6-1.4.9-3.1,1.8-4.3,6.1-7.3,12.6-14.4,18.4-21.9,1.5-1.9.8-5.5,1.1-8.3-2.7.4-6.1,0-8,1.4-13.3,10-26.3,20.4-39.5,30.6-1.2.9-2.3,2.2-3.6,2.4-1.7.3-3.6-.1-5.4-.3.5-1.7.4-4,1.5-4.9,4.4-3.8,9.2-7.2,13.9-10.8,2.1-1.6,4.2-3.2,7.2-5.5-29.9-8.8-56.9-20.1-67.6-53-23.3,7-47.8,9.8-68.9,22.8-16.9,10.4-28.6,24.9-35.3,43.6-.8,2.1-3.4,3.6-5.2,5.4-.4-2.5-1.7-5.4-1-7.5,11.3-34.6,37.3-52.3,70.8-61.5,12.7-3.5,25.6-6.4,38.1-10.5,16.8-5.5,22.6-14.4,23.8-32,.6-8.3-1.2-14.5-7.6-20.6-13.2-12.7-19.7-29.4-23.5-47.1-.6-2.8-1.2-5.7-1.9-8.8-10,.5-16-5.3-18.8-13.5-3.1-8.9-5.7-18.3-6.3-27.6-.8-13.6,6.5-20.1,21.1-21.4.2-.4.6-.8.6-1.2-.9-18.4-.9-18.1,16.3-22.5,27.4-7,53.8-16.7,75.1-36.1,5.1-4.6,8.2-11.3,12.4-16.9,1.1-1.4,2.9-2.3,4.4-3.5.7,1.9,2.4,4.1,1.9,5.5-1.7,4.5-3.6,9.2-6.5,12.9-14.4,17.7-34.2,27.5-54.8,35.4-12,4.6-24.8,7.1-37,11.1-2,.6-4.4,3.7-4.4,5.8-.2,6.1.9,12.2,1.1,18.3,0,1.5-1.3,3.1-2,4.7-1.4-.7-3.6-.9-4.1-2-2.1-4.3-5.9-4.9-9.1-3.3-2.9,1.4-6.3,4.6-6.9,7.5-2.6,12.8.7,24.8,7.8,35.5,1.5,2.4,6.5,4,9.5,3.5,6-.8,7.1,1.6,7.6,6.7,4,40,31.3,71.2,70.1,79.5,5.7,1.2,12.2.5,18-1,35.7-8.8,62.3-39.6,66.3-76.6.6-5.1,2.1-7.7,7.9-8.4,3.4-.5,7.4-3.7,9.4-6.8,5.8-9.1,7.7-19.6,6-30.2-.6-3.5-3.8-7.6-6.9-9.3-1.8-1-5.9,2.3-9,3.7-1.2.5-3.1,1.8-3.6,1.4-1.1-.8-2.2-2.7-2.1-4,.4-5.1.7-10.3,2-15.2,1.2-4.4-.5-6-4-7.8-19.4-10.2-31.7-26.4-39.2-46.6-.8-2.2.5-5.1.8-7.7,1.9,1.6,4.6,2.9,5.5,5,8.3,20.2,20.5,36.5,41.3,45.5,1.9.8,3.3,4.4,3.5,6.8.3,3.3-.9,6.7-1.4,10,17.3,4,22.3,9.6,20.5,27.6-1,9.4-5,18.7-9.3,27.3-2.1,4.2-7.8,6.5-12.5,9-4.2,17.3-9.4,34.7-21.1,49.5-1.8,2.3-3.4,5-5.8,6.6-10.2,6.9-9.4,16.9-7.7,26.9,1.9,11.2,8,19.6,19.1,23,15.8,4.9,31.9,8.9,47.8,13.7,21.8,6.7,42.3,15.9,55.6,35.7,5,7.4,8.5,15.9,12.2,24.1.9,2-.3,5-.6,7.6-1.9-1.6-4.9-2.9-5.7-4.9-6.4-16.9-15.4-32-31.5-41-10.1-5.7-21-10.5-32-14.2-13.8-4.7-28.1-7.8-42.6-11.7ZM146.6,269.2c-.2,3.3-.2,5.1-.5,7-1.7,12.4-3.1,25.7-15.3,32.5-7.3,4-7.2,7.8-3.7,13.7,1.4,2.3,2.5,4.8,4,7,10.2,15.4,26,22.2,42.2,28.8,11.8,4.8,21.4,5.3,31.3-5,8.6-9,11.4-8,21.5-.2,16.2-8.6,27.2-21.3,32-39.5-19.2-8.3-23.8-24.5-23.9-43.9-29.7,21.4-58.4,21.3-87.5-.3Z" />
  <path class="cls-1" d="M294.5,292c3.1-1.8,6-3.8,9.2-5.2,18.7-8.6,27.3-23.4,28-43.6.6-17.1-2.3-33.7-8.7-49.4-13.5-33.3-23-67.8-31.4-102.7-4.2-17.6-13.1-33.1-26.6-45.6-8.4-7.8-17.7-12.8-29.6-12.3-2.3,0-5.8-.8-6.9-2.5-4.6-7.2-11.7-10.2-19.4-12.2-36.4-9.4-90.4,3.3-117.5,51.9-10.8,19.3-17,39.8-20.4,61.4-3.8,24.2-11.3,47.3-19.8,70.2-5,13.5-8.6,28.1-9.6,42.5-1.7,23.8,12.4,41.8,35.1,49.1,1.4.4,3,.5,4.1,1.3,1.2.9,2,2.4,2.9,3.7-1.3.9-2.5,2.5-3.9,2.6-2.1.2-4.4-.4-6.4-1.1-28.7-10.1-43.9-35-38.8-65.1,2-11.7,4.6-23.6,9.2-34.5,11.3-26.8,17.1-54.8,22.6-83.1,5.6-29.3,17.7-55.7,39.2-77.2,17.2-17.4,38.5-26.2,62.1-30.4,13.9-2.5,27.7-2,41.5,1.4,8.9,2.2,17.3,5.3,23.4,12.7.9,1.1,2.9,2,4.3,2,21.3.3,34.4,13.7,45.7,29.2,9.8,13.4,15.3,28.9,18.7,45,6.1,29.2,15.1,57.5,26.2,85.1,7.5,18.7,11.8,38.1,11.2,58.6-.8,23.9-14.9,44.2-37.5,51.7-2,.7-4.5-.4-6.8-.6,0-.9-.2-1.9-.3-2.8Z" />
  <path class="cls-1" d="M341.6,24.5c8.8.2,16.3,3.8,22.8,10,3.7,3.5,7.5,7.1,11.6,10.1,4.8,3.6,10,6.3,15.9,1.4.9-.7,2.9,0,4.5,0-.2,1.7.3,4-.6,5-4.7,5.2-11,6.1-16.7,3-6.4-3.4-12.5-7.7-17.8-12.6-12.8-12-26.3-12.9-39.9-1.8-.8.6-1.4,1.6-2.2,1.9-2.1.6-4.3.8-6.5,1.2.6-2.1.5-5.1,1.8-6.2,7.8-6.4,16.3-11.7,27-12.1Z" />
  <path class="cls-1" d="M381.2,82.5c-13.6-.1-22.1-5.6-30.6-11.6-4.7-3.3-10.7-5.6-16.3-6.4-2.9-.4-6.4,3.3-9.8,5.1-1.7.9-3.4,1.6-5.1,2.3-.2-2.4-1.3-5.3-.3-7.1,3.2-6.3,15.4-10.1,23.6-7.1,4.5,1.6,8.9,4.2,12.5,7.3,10.7,9.4,22,13.1,35.7,7.1,1.6-.7,4.1.7,6.2,1.2-1,1.7-1.7,4.3-3.2,4.9-4.9,2.1-10,3.4-12.6,4.3Z" />
  <path class="cls-1" d="M190.7,205.4c-1.6-.3-5.4-.4-8.7-1.6-2.3-.9-4-3.3-5.9-5.1,2.4-.7,4.8-1.9,7.2-1.9,4.6,0,9.3,1.3,13.8.9,6.6-.6,7.7-3.2,5.1-9.4-3.2-7.9-6.6-15.7-9.5-23.7-.9-2.7-.9-5.8-.6-8.7.1-1.2,2.3-3.3,3-3.2,1.5.4,3.4,1.8,3.9,3.2,3.1,9.1,5.2,18.6,8.9,27.5,6.1,14.8,1.3,22.3-17.2,22Z" />
  <path class="cls-1" d="M296.3,255c-.2,22.4-12.2,36.7-34.6,41-2,.4-4.4-1.4-6.7-2.2,1.6-1.6,3.1-4.3,4.9-4.6,15.4-2.5,25.4-10.7,28.5-26.2.7-3.6,0-7.4.9-10.9.6-2.4,2.8-4.4,4.2-6.6.9,2.2,2,4.4,2.7,6.6.3.9,0,1.9,0,2.9Z" />
  <path class="cls-1" d="M115.8,295.7c-19.2-1.7-31.7-9.7-39.1-25.2-.8-1.7-1.9-3.7-1.8-5.5.1-1.6,1.9-3,2.9-4.5,1.2.9,2.8,1.6,3.6,2.8,1.9,3.1,3.1,6.7,5.2,9.6,6.7,9.6,16.1,14.5,27.7,15.8,2.4.3,4.5,2.9,6.8,4.4-2.3,1.1-4.6,2.3-5.2,2.6Z" />
  <path class="cls-1" d="M192.2,223c7.4,2.7,14.3,4.8,20.8,7.8,1.8.8,2.2,4.5,3.2,6.8-2.3-.1-5,.5-6.8-.5-11.9-6.3-23.5-6.6-35.4.1-2,1.1-5,.4-7.5.6,1.2-2.3,1.9-5.9,3.8-6.7,7-3.1,14.3-5.4,22-8.1Z" />
  <path class="cls-1" d="M152.1,120.9c7.1,1.8,14,3.1,20.7,5.4,1.6.5,2.3,3.9,3.4,5.9-2.1.3-4.6,1.6-6.2.9-12.3-5.3-24.2-4.1-36.3.6-2,.8-4.6-.2-7-.4,1.4-2.2,2.4-5.6,4.3-6.3,6.8-2.5,13.9-4.1,21.1-6.1Z" />
  <path class="cls-1" d="M228.8,120.2c8,2,15.1,3.6,22,5.7,1.7.6,2.8,3.2,4.2,4.9-2.3.6-4.9,2.1-6.8,1.5-11.8-3.6-23.3-5.4-35,.3-1.3.6-3.7-1-5.6-1.5.7-1.6,1.1-4.2,2.3-4.7,6.3-2.4,12.7-4.3,18.9-6.3Z" />
  <path class="cls-1" d="M151.9,167.4c-5.2-1.5-10.2-2.6-14.8-4.4-1.4-.6-1.8-3.4-2.6-5.2,1.8-.2,3.7-1.1,5.2-.6,8.7,3,17.2,2.5,25.8-.5,1.5-.5,3.6.9,5.5,1.4-.9,1.7-1.5,4.5-2.9,5-5.2,1.9-10.7,3-16.1,4.4Z" />
  <path class="cls-1" d="M251.1,158.3c-5.8,9.2-24.7,13-31.8,7-1.1-1-1.2-3.2-1.8-4.9,1.5-.4,3-1.4,4.3-1.3,8,1,15.8,2.3,23.2-2.6,1.1-.7,3.8,1,6,1.7Z" />
</svg>