<?xml version="1.0" encoding="UTF-8"?>
<svg id="Lager_1" xmlns="http://www.w3.org/2000/svg" version="1.1" viewBox="0 0 400 400">
  <!-- Generator: Adobe Illustrator 29.8.2, SVG Export Plug-In . SVG Version: 2.1.1 Build 3)  -->
  <path d="M295.8,192.3h-66.2c-.3,5.3.6,11.7-.6,16.8s-5.1,5-8.2,3.2c-5.3-3-.9-14.8-2.1-20h-118.2c-.1,21.6,3.4,43,7.8,64.1-18.7,3.1-36.6,10.2-52.5,20.4-.3.4,0,1.1.2,1.5.6,1.7,6.3,8.1,7.8,9.9,23.4,26,57,43.3,92.4,44.6,4.3,1.1,5.5,6.9,2.4,10-2.1,2.1-6,1.7-8.8,1.6-48.5-2.3-95.3-38.6-118.1-79.9C-11.7,186.2,16.3,87.5,98.7,50.2c104-47,219,37,208.5,149.7-.4,4.5-.4,12.5-6,13.3-10.5,1.5-4.6-15.3-5.4-20.8ZM210.4,117.8c1.3-1.3-7.8-24.7-9.3-28-6.5-14.5-19.1-34.4-35-39.5s-32.3,12.1-40.3,24.8c-8.1,12.9-13.2,27.4-17.5,41.9.3.6.8.6,1.3.8,3.6,1.3,11.6,2.4,15.8,3,21.9,3.2,45.6,3.2,67.5,0,5.9-.8,11.6-2.4,17.5-3ZM128.6,52.7c-21.5,4.7-42.2,15.6-58.9,29.9-3.7,3.2-10.4,9.2-13,13s-.7.5-.5,1.3c13.4,6.7,26.9,13.9,41.6,17.2,5.6-22.3,14.9-44.4,30.8-61.4ZM263,97c.2-.8-.2-.9-.5-1.3-1.9-2.8-9.6-10-12.5-12.5-16.5-14.7-37.8-25.7-59.4-30.5,15.6,17.3,25.1,39,30.8,61.4,14.8-3.4,28.2-10.5,41.6-17.2ZM23.4,180.9h65.6c.3-18.7,2.6-37.3,5.7-55.7-16.1-4-30.8-11.8-45.5-19.3-16,21.4-25.1,48.2-25.8,75ZM295.8,180.9c-.9-23.9-8.3-48.1-21.1-68.2s-4.1-6.8-5.1-6.8c-14.4,8.2-29.6,14.7-45.4,19.8,3.5,17.9,5.5,36.2,5.7,54.5l.6.8h65.4ZM218.7,180.9c-.2-15.4-1.4-31.3-4.3-46.5-.2-1.2-.8-5.9-1.7-6.1-27.7,6.6-57,7.7-85.3,4s-14.4-2.3-21.4-4.1c-3.8,17.2-5.4,35-5.5,52.6h118.2ZM89,192.3H23.4c.4,27.1,10.7,53.1,25.3,75.5,14.4-9,30-15.8,46.4-20.3-3.6-18.2-5.4-36.7-6-55.2Z"/>
  <path d="M354.9,247c2.8.5,6.5,3.6,8.3,5.8,6.2,7.5,16.4,23.6,21.4,32.3,2,3.4,3.1,6,3.4,10.1.8,9.6.9,28.1,0,37.5-.4,3.6-1.7,6.7-4.7,8.8-4.8,3.4-10.2,1.1-15.6,2.1-6.8,26.1-43,26.1-49.3-.3h-75c-1.6.3-2.6,5.6-3.6,7.4-10.7,19.7-41.8,15-46.1-7.1-9.1-1.1-21.3,3.2-23.9-8.9v-102.5c.1-5.2,4.4-9.2,9.5-9.6h132.9c3.6-.5,9.6,4.8,9.6,8.1v15.6l.8.8h32.3ZM310.9,233.5h-130.2v99.5h12.8c1.2-2.1,1.5-4.5,2.7-6.7,8.1-15.8,30.3-17.7,41.3-4,2.8,3.5,3.5,6.9,5.5,10.7h68v-99.5ZM321.8,324.1c1.8-1.3,2.8-3.2,4.4-4.7,10.5-9.4,26.6-8.3,35.6,2.3,3,3.5,4.1,6.8,5.7,10.9h8.6c0,.1.8-.5.8-.5v-38.5l-22.7-34.6c-.7-.8-3.8-1.6-4.7-1.6h-27.1l-.8.8v65.9ZM214.4,323.7c-16.1,3-14.6,31,5.6,29,19.1-1.8,16-33-5.6-29ZM339.9,323.7c-15.6,2.3-15.5,26.9.4,29,22.9,3,23.2-32.4-.4-29Z"/>
  <path d="M114.4,274.2h41.5c5.3.8,5.4,9.2,0,10.3h-41.1c-5.1-.8-5.4-8.8-.4-10.3Z"/>
  <path d="M132.1,246.6c9.4-.7,18.9.2,28.3.1,6,.7,5.5,9.8.2,10.6-9.5,1.5-22.8-1-32.8,0-3.4-.8-4.7-4.1-3.7-7.3,1.1-3.5,5-3.2,8-3.5Z"/>
  <path d="M127.4,301.3h28.9c5.8,2.6,4.4,10-2,10.8-4.7.6-21.4.7-25.9,0-5.5-1-6.3-8.7-1.1-10.7Z"/>
</svg>