<?xml version="1.0" encoding="UTF-8"?>
<svg id="svg183" xmlns="http://www.w3.org/2000/svg" version="1.1" xmlns:svg="http://www.w3.org/2000/svg" xmlns:xlink="http://www.w3.org/1999/xlink" viewBox="0 0 682.7 682.7">
  <defs>
    <style>
      .cls-1 {
        fill: #000;
      }

      .cls-1, .cls-2, .cls-3 {
        stroke-width: 0px;
      }

      .cls-2, .cls-4 {
        fill: none;
      }

      .cls-4 {
        stroke: #000;
        stroke-linecap: round;
        stroke-linejoin: round;
        stroke-width: 36px;
      }

      .cls-5 {
        clip-path: url(#clippath);
      }

      .cls-3 {
        fill: #fff;
      }

      .cls-6 {
        mask: url(#mask);
      }
    </style>
    <mask id="mask" x="0" y="0" width="682.7" height="682.7" maskUnits="userSpaceOnUse">
      <g id="custom">
        <rect id="bg" class="cls-3" width="682.7" height="682.7"/>
        <path id="path205" class="cls-3" d="M306.6,507.1c-2.3,2.3-5.7,3.6-9,3.6-4.7,0-8.3-2.5-8.3-6.7,0-1,.3-2.1.8-3.3l35.8-99.3h-53.6c-20.6,0-33.7-21.9-23.6-39.8l61.4-109.6h94.6l-48.8,78.7h61.8c16.8,0,25.6,19.8,14.7,32.4l-125.9,144Z"/>
      </g>
    </mask>
    <clipPath id="clippath">
      <rect class="cls-2" width="682.7" height="682.7"/>
    </clipPath>
  </defs>
  <g class="cls-6">
    <g id="g189">
      <g id="g191">
        <g class="cls-5">
          <g id="g193">
            <g id="g199">
              <path id="path201" class="cls-4" d="M521.3,441.3V160c0-44.2-35.8-80-80-80h-34.7v-34.3c0-10.5-8.5-19-19-19h-95.2c-10.5,0-19,8.5-19,19v34.3h-34.7c-44.2,0-80,35.8-80,80v416c0,44.2,35.8,80,80,80h202.7c44.2,0,80-35.8,80-80"/>
            </g>
            <g id="g203">
              <path id="path205-2" data-name="path205" class="cls-1" d="M312.2,487c-1.9,1.9-4.8,3-7.6,3-3.9,0-7-2.1-7-5.6,0-.8.2-1.8.7-2.8l30.1-83.5h-45c-17.3,0-28.3-18.4-19.9-33.4l51.6-92.1h79.5l-41,66.1h51.9c14.1,0,21.5,16.6,12.3,27.2l-105.8,121Z"/>
            </g>
          </g>
        </g>
      </g>
    </g>
  </g>
</svg>