<?xml version="1.0" encoding="UTF-8"?>
<svg id="Lager_1" data-name="Lager 1" xmlns="http://www.w3.org/2000/svg" version="1.1" viewBox="0 0 800 800">
  <defs>
    <style>
      .cls-1 {
        fill: #000;
      }

      .cls-1, .cls-2 {
        stroke-width: 0px;
      }

      .cls-2 {
        fill: #fff;
      }
    </style>
  </defs>
  <path class="cls-1" d="M291.1,194.1c-7.6,1.7-11.7-1.6-11.7-9.2,0-32.1,0-64.2,0-96.3,0-22.8,9.8-40.6,27.2-54.6,12.4-9.9,26.8-14.6,42.8-14.5,33.9.2,67.8.5,101.7,0,31.6-.6,59.1,22.2,67.3,48.9,1.9,6,2.9,12.6,3,18.9.3,32.3,0,64.7.3,97,0,6.7-3.7,12.1-12.5,9.7v4.2c0,45.5-.1,90.9.1,136.4,0,7.6-3.2,11.3-11.2,11.2-65.4-.3-130.8-.1-196.2-.1-8.1,0-10.8-2.8-10.8-10.9,0-46.2,0-92.4.1-138.6,0-.6,0-1.2,0-2.1ZM296.1,167.9c10.6-4.8,20.7-4.8,31.1-1.7,22.1,6.7,44.7,10.2,68,10.4,24,.2,47.7-1.3,70.9-8.2,6-1.8,12.1-3.9,18.3-4.1,6.6-.3,13.3,1.4,20.1,2.2,0-24.1,0-49.2,0-74.2,0-2.3,0-4.6-.2-6.9-1.3-23.6-24.1-49.6-52.9-49.2-34.3.6-68.6.1-102.9.1-1.9,0-3.9,0-5.8.2-25.9,3.4-46.5,26.7-46.5,52.9,0,22.5,0,45,0,67.5,0,3.5,0,7,0,11ZM492.2,289.4c0-.8.2-1.2.2-1.7,0-34,0-68.1,0-102.1,0-3.5-2-4.7-4.7-4.7-2.9,0-5.8.4-8.5,1.3-19,6-38.3,10.2-58.3,11.2-29.6,1.5-58.8.2-87.5-7.9-6.8-1.9-13.8-3.5-20.8-4.6-3.9-.6-4.8.8-4.8,4.8,0,33.2,0,66.4,0,99.6,0,1.3,0,2.6,0,4.1h184.3ZM308,328.6h184.1v-22h-184.1v22Z"/>
  <path class="cls-1" d="M523.6,771.6c0,5.8-2.8,8.9-8.1,9-5.4,0-8.5-3.1-8.5-9,0-67,0-15.6,0-82.6,0-37.3,0-74.7,0-112.4h-213.9v4.4c0,102.8,0,84,0,186.7,0,6.3-2.9,9.7-8.2,9.7-5.4,0-8.6-3.6-8.6-9.9,0-112.3-.1-102.9,0-215.2,0-28.9,23.1-50.1,45.9-52.6,2.8-.3,5.5-.6,8.3-.6,46.6,0,93.1.3,139.7-.2,24.5-.2,47.3,19.4,51.8,42.4,1.2,6.4,1.3,13,1.3,19.5,0,88.7,0,122,.1,210.7M506.7,559.5c3.3-25.7-18.3-44.6-39.7-44.5-44.8.3-89.7,0-134.5.1-13.7,0-24.6,5.8-32.5,16.9-5.8,8.2-7.8,17.4-6.7,27.5h213.3Z"/>
  <path class="cls-1" d="M391.9,451.4c0-16.8,0-33.1,0-49.3,0-9.5,0-19,0-28.4,0-4.1,2.4-7.5,5.7-8.5,3.5-1.1,7.8,0,9.6,3.3,1.2,2.2,1.7,5,1.7,7.6.2,23.1.1,46.2.2,69.3,0,1.8,0,3.6,0,6.3,6.8-7.2,12.9-13.7,19.1-20.1,4.3-4.5,8.4-9.1,12.8-13.5,1.5-1.5,3.5-2.8,5.4-3.3,4-1.1,7.5.4,9.4,3.7,1.7,2.9,1.4,7.6-1,10.2-6.9,7.5-13.9,14.9-20.9,22.3-7.9,8.4-15.9,16.7-23.9,25.1-1.2,1.2-2.4,2.4-3.7,3.5-4.3,3.4-8.2,3.2-12-.6-15.9-16.6-31.8-33.2-47.6-49.8-3.5-3.7-3.5-9-.4-12.2,3.1-3.2,8.9-3.4,12.5.1,6.3,6.1,12.2,12.5,18.3,18.8,4.9,5.1,9.7,10.2,14.9,15.7Z"/>
  <path class="cls-1" d="M400.2,688.1c-10.1,0-20.2.1-30.3,0-17.7-.3-30.5-16.9-27.6-34.4,2.4-14.2,15.9-25.2,30-24.8,19.3.5,38.6.1,58,.1,15.9,0,28.9,13.2,29,29.4,0,16-12.5,29.4-28.2,29.7-10.3.2-20.7,0-31,0ZM400.7,645.7c-9.5,0-18.9,0-28.4,0-7.5,0-13.2,5.4-13.4,12.5-.2,7.1,5.5,13.6,12.8,13.7,19.1.2,38.1.2,57.2,0,7.5,0,13.7-6.6,13.6-13.5,0-7.2-6.3-12.7-14.4-12.7-9.1,0-18.2,0-27.3,0Z"/>
  <path class="cls-2" d="M296.1,167.9c0-4,0-7.5,0-11,0-22.5,0-45,0-67.5,0-26.2,20.6-49.4,46.5-52.9,1.9-.3,3.9-.2,5.8-.2,34.3,0,68.6.4,102.9-.1,28.8-.5,51.6,25.5,52.9,49.2.1,2.3.2,4.6.2,6.9,0,25,0,50.1,0,74.2-6.8-.8-13.5-2.5-20.1-2.2-6.2.3-12.3,2.4-18.3,4.1-23.2,6.9-46.9,8.4-70.9,8.2-23.2-.2-45.8-3.8-68-10.4-10.4-3.1-20.5-3.1-31.1,1.7Z"/>
  <path class="cls-2" d="M492.2,289.4h-184.3c0-1.5,0-2.8,0-4.1,0-33.2,0-66.4,0-99.6,0-4.1.9-5.5,4.8-4.8,7,1.1,14,2.7,20.8,4.6,28.7,8.1,58,9.4,87.5,7.9,20-1,39.3-5.2,58.3-11.2,2.7-.9,5.7-1.3,8.5-1.3,2.7,0,4.7,1.2,4.7,4.7,0,34,0,68.1,0,102.1,0,.5,0,.9-.2,1.7Z"/>
  <path class="cls-2" d="M308,328.6v-22h184.1v22h-184.1Z"/>
  <path class="cls-2" d="M506.7,559.5h-213.3c-1.2-10,.9-19.3,6.7-27.5,7.9-11.1,18.8-16.9,32.5-16.9,44.8,0,89.7.2,134.5-.1,21.4-.1,42.9,18.8,39.7,44.5Z"/>
  <path class="cls-2" d="M400.7,645.7c9.1,0,18.2,0,27.3,0,8.1,0,14.4,5.5,14.4,12.7,0,6.8-6.2,13.4-13.6,13.5-19.1.2-38.1.2-57.2,0-7.3,0-13-6.6-12.8-13.7.2-7.1,5.9-12.5,13.4-12.5,9.5,0,18.9,0,28.4,0Z"/>
</svg>