<?xml version="1.0" encoding="UTF-8"?>
<svg id="Capa_1" data-name="Capa 1" xmlns="http://www.w3.org/2000/svg" version="1.1" viewBox="0 0 492.9 492.9">
  <defs>
    <style>
      .cls-1 {
        fill: #000;
        stroke-width: 0px;
      }
    </style>
  </defs>
  <path class="cls-1" d="M135.7,361c-18-16.2-31-35.7-39.5-56.6-22.6-55.4-12-121.3,32.1-166.8l40.7,40.7c2.2,2.2,6.3.6,6.8-2.7l22.2-145.5c.4-2.4-1.7-4.5-4.1-4.1L48.3,48.3c-3.3.5-4.9,4.6-2.7,6.8l40.8,40.8C19,164.7,7.5,268.1,51.8,348.8c13.3,24.3,31.7,46.5,55.1,65.2,39.8,31.7,88.8,46.8,137.4,45.8l9.1-59.8c-41.9,3.6-84.9-9.3-117.7-38.9Z"/>
  <path class="cls-1" d="M406.5,397c67.3-68.9,78.8-172.2,34.6-252.9-13.3-24.3-31.7-46.5-55.1-65.2-39.8-31.7-88.8-46.8-137.4-45.8l-9.1,59.8c41.8-3.6,84.9,9.3,117.7,38.9,18,16.2,31,35.7,39.5,56.6,22.6,55.4,12,121.3-32.1,166.8l-40.7-40.7c-2.2-2.2-6.3-.6-6.8,2.7l-22.2,145.5c-.4,2.4,1.7,4.5,4.1,4.1l145.6-22.2c3.3-.5,4.8-4.6,2.7-6.8l-40.8-40.8Z"/>
</svg>