<?xml version="1.0" encoding="UTF-8"?>
<svg id="Layer_1" data-name="Layer 1" xmlns="http://www.w3.org/2000/svg" version="1.1" viewBox="0 0 512 512">
  <defs>
    <style>
      .cls-1 {
        fill: #000;
        stroke-width: 0px;
      }
    </style>
  </defs>
  <path class="cls-1" d="M322.4,212.3l-7-8.9,43.8-34.8c.8-.6,1.3-1.6,1.4-2.6s-.2-2-.8-2.8l-21.9-27.6c-1.3-1.6-3.7-1.9-5.4-.6l-43.8,34.8-7-8.9c-1.3-1.6-3.7-1.9-5.4-.6l-18.1,14.4c-.8.6-1.3,1.6-1.4,2.6s.2,2,.8,2.8l3.1,3.9-26.5,21c-1.6-1.3-3.6-2.2-5.8-2.4-3-.3-6,.5-8.3,2.4l-15.9,12.9c-.2.1-.5.2-.7.3-.3.2-.5.5-.7.8l-11.8,9.5c-5.2-4.6-11-6.7-17.2-6.3-11.7.9-21.1,11-25,15.8-5.9-2-11.3-1.7-16.1.9-8.1,4.3-11.8,14.1-13.4,19.6-6.6-1-12.5,0-17.6,3.1-7.4,4.5-10.7,12.3-11.9,16.1-5.1,1.9-16.6,8.5-20.9,30.2-1,4.7-1,11,0,19.4l-32.5,26.3c-2.4,1.9-3.9,4.5-4.2,7.6s.5,6,2.4,8.3l40.3,50.6c2.2,2.8,5.5,4.3,8.9,4.3s5-.8,7.1-2.5l.8-.6,33.4,76.8c.6,1.5,2,2.3,3.5,2.3s1-.1,1.5-.3c1.9-.8,2.8-3.1,2-5l-34.2-78.6v-.2c0,0,8.7-7.1,8.7-7.1.3-.1.6-.3.9-.5s.4-.5.6-.7l97.1-78.6,30.9-2.9c1.1-.1,2.1-.7,2.8-1.6.6-.9.8-2.1.5-3.2,0-.2-6.5-24-5.2-34.7.9-8.1,10.1-15.3,17.1-15.9,4.4-.4,7.2,1.8,8.6,6.5,0,.2.1.3.2.5h0c7.5,25.6,19.7,38.7,22.8,41.6,1.8,4.7,10.4,31.6-23.8,47.6-39.8,18.6-56.4,23.7-56.5,23.7-1.1.3-2,1.2-2.5,2.3-.4,1.1-.3,2.3.3,3.4l39.9,66.8c.7,1.2,2,1.9,3.3,1.9s1.3-.2,1.9-.5c1.8-1.1,2.4-3.4,1.3-5.2l-37.4-62.7c7.4-2.6,24.1-9,53-22.6,43.5-20.4,27.4-58,27.3-58.3-.2-.5-.6-1-1-1.3-.1-.1-12.6-11.4-20.4-36.2l6.3-5.2c4.9-3.9,5.7-11,1.8-15.9l-7.3-9.2,26.2-20.8,3.1,3.9c.8,1,1.9,1.5,3,1.5s1.7-.3,2.4-.8l18.1-14.4c1.7-1.3,1.9-3.7.6-5.3h0ZM334.2,143.4l17.2,21.6-40.8,32.4-17.2-21.6,40.8-32.4ZM174.3,229.9c4.5-.3,8.6,1.5,12.7,5.5-3.8,5.8-11.2,20.7-7.9,44.4.9,6.5-1,12.7-5,16.6-2,1.9-4.1,2.9-6.2,2.8-3.1,0-6.9-2.4-10.9-6.6-10.9-20.3-4.5-44.6-3.5-48.1,1.8-2.4,10.6-13.8,20.7-14.6h0ZM136.3,245.7c2.6-1.4,5.7-1.6,9.2-.6-2.1,8.7-6,31.4,5.1,51.5.1.2.3.4.5.6,0,0,0,.1,0,.2s0,0,.1.1c3.4,3.5,7.2,17.7,3.2,23.2-2.8,3.9-10,1.2-14.6-1-21.5-24.3-14-55.3-13.9-55.6v-.2c0,0,0-.1,0-.2.6-3.7,3.7-14.4,10.3-17.9h0ZM105.8,268.2c3.3-2,7.3-2.7,11.9-2.1-1.6,9.9-3.3,36.2,16.2,58.4,1.7,6.2,2.7,15.8-.4,18.4-1.9,1.6-6.5.8-12.6-2.3-24.7-17.9-24.2-55.8-24.1-59.4.3-1.5,2.6-9.2,9-13.1h0ZM76.4,309.5c2.8-13.9,8.7-20.1,12.8-22.8.5,12.5,3.9,41.6,25.2,58.7-1.7,4.4-5.2,11.3-9.8,13-2,.8-4.2.3-6.8-1.2-16-10.2-20.7-26.9-21.2-28.6-1-8.4-1.1-14.8-.2-19ZM80.8,415.5l-40.3-50.7c-.6-.8-.9-1.7-.8-2.7.1-1,.6-1.8,1.4-2.4l13.6-11,44.9,56.4-8.7,7s0,0-.1,0l-4.8,3.9c-1.6,1.3-3.9,1.1-5.2-.5ZM215.9,320.8l13-10.5c.7,3.5,1.4,6.7,2,9.1l-15,1.5ZM230.3,276.5c-.1-2.4-1-4.9-2.6-7-2-2.6-4.9-4.2-8.1-4.5-3.2-.4-6.4.5-8.9,2.6l-11.5,9.2c-5.2,4.2-6.1,11.8-1.9,17.1,2,2.6,4.9,4.2,8.1,4.5.5,0,.9,0,1.4,0,2.8,0,5.4-.9,7.6-2.6l11.5-9.2c.3-.3.6-.6.9-.9,0,.2,0,.3,0,.5-.5,4.2,0,9.8.8,15.4l-121.8,98.6-44.9-56.4,10.3-8.3c2.8,7.1,9.2,19.3,22.7,28,3.3,2.1,6.3,2.8,8.8,2.8s3.5-.4,4.7-.9c7.2-2.7,11.7-11.1,13.8-16.3,7.6,3.1,13.4,3,17.4-.3,5.3-4.4,5.2-13.3,4.3-19.8,10,3.1,15.2-.2,17.9-3.9,3.6-4.9,3.7-12.5,2.3-19.3,1.6.6,3.3.9,4.9,1,4.3.2,8.2-1.5,11.7-5,5.8-5.6,8.4-14.2,7.2-23.1-3.7-27.1,7.7-40.6,8.1-41.1.8-.9,1-2.1.8-3.1l9.4-7.6,32.2,42.1c-2.7,2-5.2,4.5-7.1,7.4h0ZM221,280.6l-11.5,9.2c-1,.8-2.1,1.1-3.3,1s-2.3-.7-3-1.7c-1.6-1.9-1.2-4.8.7-6.4l11.5-9.2c.8-.6,1.8-1,2.8-1s.3,0,.5,0c1.2.2,2.3.7,3,1.7,1.5,1.9,1.2,4.8-.8,6.4ZM269.6,267.5l-4.4,3.6c-3.1-5.2-8.2-8-14.6-7.5-2.1.2-4.3.8-6.5,1.6l-33-43.1,13.7-11c.8-.6,1.7-.9,2.7-.8,1,.1,1.8.6,2.4,1.3l23.7,29.8,7,8.7,9.7,12.1c1.2,1.6,1,3.9-.6,5.2h0ZM264.1,242.4l-6.2-7.8-18.9-23.7,26.2-20.8,25,31.5-26.2,20.8ZM301.9,223.7l-4-5-28.9-36.3-3.1-3.9,12.2-9.7,36,45.3-12.2,9.7Z"/>
  <path class="cls-1" d="M358.3,130.3c3.2-1.9,5.9-4.8,7.7-8.2,1.6-3.4,2.5-7.2,2.3-10.8,0-1.8-.5-3.6-.8-5.3-.6-1.7-1.3-3.4-2.2-4.9-.7,1.8-1.1,3.4-1.5,5-.5,1.6-.9,3.1-1.4,4.5-.9,2.9-1.9,5.5-3.1,8.1-2.6,4.9-6,9.2-11.4,13.9,3.6.6,7.3-.4,10.5-2.3Z"/>
  <path class="cls-1" d="M394,142.8c-3.4-1.4-7.2-1.9-11-1.5-3.8.5-7.5,2.1-10.3,4.5-2.8,2.4-5,5.6-5.7,9.2,6.3-3.5,11.4-5.4,16.9-6.1,2.8-.3,5.6-.4,8.6-.3,1.5,0,3.1.2,4.7.2,1.6.1,3.3.3,5.2.2-1.1-1.4-2.5-2.6-3.9-3.7-1.5-.9-3-1.9-4.7-2.6h0Z"/>
  <path class="cls-1" d="M469.4,127.7c-1.6-1.6-3.3-3.1-5.2-4.4,6.6-12.1,4-28.4-6.8-39.4-5.7-5.8-13-9.6-20.6-10.7-1-7.7-4.5-15-10.2-20.9-9.7-9.8-23.5-13.4-35.3-9.5-1.8-7-5.5-13.5-10.6-18.8-15.2-15.5-38.9-17-52.9-3.3-1.5,1.5-2.8,3.1-4.1,5-10.5-2.4-21.1.2-28.2,7.2-11,10.8-11.4,29.2-1,42.9,0,0,0,0,0,0-4.4,5.4-6.7,12.2-6.5,18.9,0,7,2.8,13.7,7.2,18.5-1.6-6.3-2.2-12.4-1.3-18.1.9-5.7,3.4-10.9,6.9-15,3.6-4,8.4-7,14-8.4,2.8-.6,5.7-1,8.7-1s6.1.5,9.3,1.1c-2.5-2.1-5.5-3.7-8.7-4.8-3.2-1-6.7-1.5-10.2-1.2-4.8.3-9.6,2-13.8,4.8-7.8-10.5-7.6-24.3.5-32.3,5.9-5.7,14.7-7.4,23.5-4.6,1.7.5,3.6-.2,4.5-1.8,1.3-2.3,2.8-4.3,4.4-5.9,10.9-10.7,29.8-9.3,42,3.2,5.2,5.3,8.5,12.2,9.4,19.3.2,1.3.9,2.3,2,2.9s2.4.6,3.6,0c9.6-5.2,22.3-2.7,30.9,6.1,5.2,5.3,8.1,12.1,8.3,19.1,0,2,1.6,3.6,3.7,3.7,7,.3,13.7,3.4,18.9,8.7,9.2,9.5,10.9,23.7,3.9,33-.7.9-.9,2-.7,3.1s1,2,1.9,2.6c2.7,1.5,4.9,3.1,6.9,5.1,10.2,10.4,11.1,26.2,2.1,35.3-.1,0-.2.2-.3.2-1.5,1.3-1.8,3.5-.6,5.1,7.6,10.6,7.2,24-1,31.9-7.2,7-18.8,7.8-28.7,2.2,1.8-2.8,3.2-5.9,3.9-9.2,2-8.8-.4-18-5.6-24.3,2.3,7.9,2.4,15.9-.2,22.7-2.6,6.8-7.8,12.1-14.3,14.6-6.5,2.6-14,2.3-21-.1-7-2.5-13.4-7.1-18.6-13.5,2.4,7.9,8.4,15,16.2,19,3.9,2.1,8.3,3.3,12.8,3.7,4.5.3,9.1-.3,13.4-1.9,3-1.2,5.8-2.9,8.2-5,5.9,3.7,12.4,5.5,18.6,5.5s15.1-2.8,20.6-8.1c10.1-9.9,11.4-25.9,3.6-39.2,10.3-12.2,8.9-31.5-3.6-44.2h0Z"/>
  <path class="cls-1" d="M408.6,87.8c1.7,1.5,3.2,3.7,4.2,6.9,2.2-2.6,2.4-6.8.8-10.2-1.6-3.5-5-6.2-9-7-3.9-.8-8.2.3-11,2.9-.9.8-1.6,1.8-2.2,2.8-.4-2.1-1.1-4.2-2.1-6.1-3-5.6-8.7-9.9-15.2-11.2-6.4-1.3-13.4.4-18.3,4.4-5,3.9-7.9,10.1-7.4,15.9,2.7-5.1,6.4-8.8,10.7-11,4.3-2.2,9.1-2.7,13.5-1.8,4.5.9,8.6,3.3,11.7,7,3.1,3.7,5.1,8.5,5.6,14.3.9-1.8,1.5-3.7,1.7-5.8,1.8-1.8,3.6-2.9,5.3-3.4,2.2-.7,4.2-.8,6.2-.4s3.8,1.3,5.5,2.8h0Z"/>
  <path class="cls-1" d="M438.3,160.3c3.5,1.5,8,.5,11.2-2.3,3.2-2.7,5.2-7.2,4.9-11.6-.2-4.4-2.6-8.6-6.1-11-3.5-2.4-8-2.9-11.3-1.1,6.8,2.8,9.5,7.7,9.9,12.5.2,4.7-1.9,9.9-8.4,13.4h0Z"/>
</svg>